<?xml version="1.0" encoding="UTF-8"?><svg id="uuid-a80c87ee-eba5-41e0-9c82-4f8bc58a3c37" xmlns="http://www.w3.org/2000/svg" viewBox="0 0 75 75"><g><path d="M40.45,17.91h-6.71c-.48,0-.87,.37-.9,.85-.16,2.79-2.48,4.97-5.26,4.97s-5.28-2.37-5.28-5.28c0-2.73,2.14-5.04,4.86-5.26,.47-.04,.83-.43,.83-.9V5.58c0-.24-.1-.48-.28-.65-.19-.18-.43-.27-.66-.25-7.44,.28-13.26,6.33-13.26,13.77s6.18,13.78,13.78,13.78,13.57-5.88,13.78-13.4c0-.24-.09-.48-.26-.65-.17-.17-.41-.27-.65-.27Zm-19.96,.54c0,3.91,3.18,7.09,7.09,7.09,3.4,0,6.36-2.49,6.96-5.82h4.94c-.63,6.12-5.71,10.71-11.91,10.71-6.6,0-11.98-5.37-11.98-11.98,0-6.13,4.54-11.21,10.58-11.9v4.95c-3.26,.66-5.7,3.61-5.7,6.94Z" style="fill:#e96424;"/><path d="M29.89,2.38c-.24,0-.47,.1-.64,.26-.17,.17-.27,.4-.27,.64v6.7c0,.5,.4,.9,.9,.9,2.87,.01,5.18,2.27,5.25,5.15,.01,.49,.42,.88,.9,.88h6.7c.24,0,.47-.1,.64-.27,.17-.17,.26-.41,.26-.64-.09-7.49-6.26-13.61-13.75-13.62Zm11.9,12.73h-4.92c-.46-3.14-2.92-5.56-6.07-5.97V4.23c5.71,.45,10.48,5.17,10.99,10.88Z" style="fill:#e96424;"/></g><path d="M59.96,70.28H17.01c-.6,0-1.09,.49-1.09,1.09s.49,1.09,1.09,1.09H59.96c.6,0,1.09-.49,1.09-1.09s-.49-1.09-1.09-1.09Z" style="fill:#e96424;"/><g><path d="M57.35,20.17h-4.32c-1.39,0-2.52,1.13-2.52,2.52v45.11c0,.6,.49,1.09,1.1,1.09s1.09-.49,1.09-1.09V22.68c0-.18,.15-.33,.33-.33h4.32c.18,0,.33,.15,.33,.33v45.11c0,.6,.49,1.09,1.09,1.09s1.09-.49,1.09-1.09V22.68c0-1.39-1.13-2.52-2.51-2.52Z" style="fill:#e96424;"/><path d="M40.65,45.76h-4.32c-1.39,0-2.51,1.13-2.51,2.52v19.52c0,.6,.49,1.09,1.09,1.09s1.09-.49,1.09-1.09v-19.52c0-.18,.15-.33,.33-.33h4.32c.18,0,.33,.15,.33,.33v19.52c0,.6,.49,1.09,1.09,1.09s1.09-.49,1.09-1.09v-19.52c0-1.39-1.13-2.52-2.51-2.52Z" style="fill:#e96424;"/><path d="M23.94,39.94h-4.32c-1.39,0-2.51,1.13-2.51,2.52v25.33c0,.6,.49,1.09,1.09,1.09s1.09-.49,1.09-1.09v-25.33c0-.18,.15-.33,.33-.33h4.32c.18,0,.33,.15,.33,.33v25.33c0,.6,.49,1.09,1.09,1.09s1.1-.49,1.1-1.09v-25.33c0-1.39-1.13-2.52-2.52-2.52Z" style="fill:#e96424;"/></g></svg>