<?xml version="1.0" encoding="UTF-8"?><svg id="uuid-f7afcc7c-9063-44d2-a6f5-3470d5cd9b07" xmlns="http://www.w3.org/2000/svg" viewBox="0 0 75 75"><path d="M24.26,7.71c-.94,0-1.7,.76-1.7,1.7v4.07c0,.94,.76,1.7,1.7,1.7h26.48c.94,0,1.7-.76,1.7-1.7v-4.07c0-.94-.76-1.7-1.7-1.7h-8.56c-.52,0-.94-.42-.94-.94,0-2.06-1.68-3.74-3.74-3.74s-3.74,1.68-3.74,3.74c0,.52-.42,.94-.94,.94h-8.56Zm26.48,9.36H24.26c-1.98,0-3.59-1.61-3.59-3.59v-4.07c0-1.98,1.61-3.59,3.59-3.59h7.69c.45-2.65,2.77-4.68,5.55-4.68s5.1,2.03,5.55,4.68h7.69c1.98,0,3.59,1.61,3.59,3.59v4.07c0,1.98-1.61,3.59-3.59,3.59h0Z" style="fill:#e96424;"/><path d="M14.59,10.42c-.9,0-1.63,.73-1.63,1.63v58.28c0,.9,.73,1.63,1.63,1.63H60.41c.9,0,1.63-.73,1.63-1.63V12.05c0-.9-.73-1.63-1.63-1.63h-6.09v3.06c0,1.98-1.61,3.59-3.59,3.59H24.26c-1.98,0-3.59-1.61-3.59-3.59v-3.06h-6.09Zm45.83,63.43H14.59c-1.94,0-3.52-1.58-3.52-3.52V12.05c0-1.94,1.58-3.52,3.52-3.52h7.03c.52,0,.94,.42,.94,.94v4.01c0,.94,.76,1.7,1.7,1.7h26.48c.94,0,1.7-.76,1.7-1.7v-4.01c0-.52,.42-.94,.94-.94h7.03c1.94,0,3.52,1.58,3.52,3.52v58.28c0,1.94-1.58,3.52-3.52,3.52h0Z" style="fill:#e96424;"/><path d="M55.05,24.57h-16.7c-.52,0-.94-.42-.94-.94s.42-.94,.94-.94h16.7c.52,0,.94,.42,.94,.94s-.42,.94-.94,.94h0Z" style="fill:#e96424;"/><path d="M55.05,32.07h-16.7c-.52,0-.94-.42-.94-.94s.42-.94,.94-.94h16.7c.52,0,.94,.42,.94,.94s-.42,.94-.94,.94h0Z" style="fill:#e96424;"/><path d="M55.05,39.56h-16.7c-.52,0-.94-.42-.94-.94s.42-.94,.94-.94h16.7c.52,0,.94,.42,.94,.94s-.42,.94-.94,.94h0Z" style="fill:#e96424;"/><path d="M55.05,47.06H18.85c-.52,0-.94-.42-.94-.94s.42-.94,.94-.94H55.05c.52,0,.94,.42,.94,.94s-.42,.94-.94,.94h0Z" style="fill:#e96424;"/><path d="M55.05,54.55H18.85c-.52,0-.94-.42-.94-.94s.42-.94,.94-.94H55.05c.52,0,.94,.42,.94,.94s-.42,.94-.94,.94h0Z" style="fill:#e96424;"/><path d="M41.41,62.05H18.85c-.52,0-.94-.42-.94-.94s.42-.94,.94-.94h22.56c.52,0,.94,.42,.94,.94s-.42,.94-.94,.94h0Z" style="fill:#e96424;"/><path d="M24.91,12.44c-.52,0-.95-.42-.95-.94s.42-.94,.94-.94h.01c.52,0,.94,.42,.94,.94s-.42,.94-.94,.94h0Z" style="fill:#e96424;"/><path d="M28.53,12.44c-.52,0-.96-.42-.96-.94s.41-.94,.93-.94h.02c.52,0,.94,.42,.94,.94s-.42,.94-.94,.94h0Zm3.62,0c-.52,0-.96-.42-.96-.94s.41-.94,.93-.94h.02c.52,0,.94,.42,.94,.94s-.42,.94-.94,.94h0Zm3.62,0c-.52,0-.96-.42-.96-.94s.41-.94,.93-.94h.02c.52,0,.94,.42,.94,.94s-.42,.94-.94,.94h0Zm3.62,0c-.52,0-.96-.42-.96-.94s.41-.94,.93-.94h.02c.52,0,.94,.42,.94,.94s-.42,.94-.94,.94h0Zm3.62,0c-.52,0-.96-.42-.96-.94s.41-.94,.93-.94h.02c.52,0,.94,.42,.94,.94s-.42,.94-.94,.94h0Zm3.62,0c-.52,0-.96-.42-.96-.94s.41-.94,.93-.94h.02c.52,0,.94,.42,.94,.94s-.42,.94-.94,.94h0Z" style="fill:#e96424;"/><path d="M50.24,12.44c-.52,0-.95-.42-.95-.94s.42-.94,.94-.94h.01c.52,0,.94,.42,.94,.94s-.42,.94-.94,.94h0Z" style="fill:#e96424;"/><path d="M38.81,6.78c0,.72-.59,1.31-1.31,1.31s-1.31-.59-1.31-1.31,.59-1.31,1.31-1.31,1.31,.59,1.31,1.31h0Z" style="fill:#e96424;"/></svg>