<?xml version="1.0" encoding="UTF-8"?><svg id="uuid-f9631342-a1b2-413d-92e4-7311711b33e1" xmlns="http://www.w3.org/2000/svg" viewBox="0 0 75 75"><path d="M58.73,34.74c.55-1.5,.82-3.08,.82-4.7,0-7.62-6.2-13.82-13.82-13.82-4.67,0-8.91,2.28-11.49,6.13-2.11-1.4-4.62-2.17-7.16-2.17-6.88,0-12.45,5.28-12.86,12.1-4.2,2.21-6.9,6.65-6.9,11.41,0,7.1,5.78,12.88,12.89,12.88,.16,0,.31,0,.42,0h2.29c.67,0,1.22-.55,1.22-1.22s-.55-1.22-1.22-1.22h-2.33c-2.84,.09-5.56-.93-7.62-2.91-2.06-1.99-3.19-4.66-3.19-7.52,0-4.1,2.42-7.84,6.15-9.52,.44-.2,.72-.63,.72-1.11,0-5.75,4.69-10.43,10.44-10.43,2.46,0,4.85,.87,6.72,2.45,.28,.24,.65,.34,1.02,.27,.36-.07,.67-.3,.85-.63,1.98-3.73,5.84-6.05,10.06-6.05,6.27,0,11.38,5.1,11.38,11.38,0,1.82-.42,3.56-1.25,5.18-.19,.38-.18,.82,.04,1.18,.21,.36,.59,.59,1.02,.6,4.66,.13,8.32,3.89,8.32,8.56s-3.76,8.47-8.4,8.56h-.05s-4.85,0-4.85,0c-.67,0-1.22,.55-1.22,1.22s.55,1.22,1.22,1.22h4.94s.1,0,.1,0c5.9-.17,10.7-5.1,10.7-11.01,0-5.34-3.79-9.85-8.94-10.82Z" style="fill:#e96424;"/><g><path d="M54.81,41.71l-2.28-.63c-.3-.98-.7-1.94-1.18-2.85l1.17-2.06c.22-.39,.16-.89-.17-1.21l-4.17-4.17c-.32-.32-.82-.39-1.21-.17l-2.06,1.17c-.91-.49-1.87-.89-2.85-1.18l-.63-2.28c-.12-.44-.52-.74-.97-.74h-5.9c-.45,0-.85,.3-.97,.74l-.63,2.28c-.98,.3-1.94,.7-2.85,1.18l-2.06-1.17c-.39-.22-.89-.16-1.21,.17l-4.17,4.17c-.32,.32-.39,.82-.17,1.21l1.17,2.06c-.49,.91-.89,1.87-1.18,2.85l-2.28,.63c-.44,.12-.74,.52-.74,.97v5.9c0,.45,.3,.85,.74,.97l2.28,.63c.3,.98,.7,1.94,1.18,2.85l-1.17,2.06c-.22,.39-.16,.89,.17,1.21l4.17,4.17c.32,.32,.82,.39,1.21,.16l2.06-1.17c.91,.49,1.87,.89,2.85,1.18l.63,2.28c.12,.44,.52,.74,.97,.74h5.9c.45,0,.85-.3,.97-.74l.63-2.28c.98-.3,1.94-.7,2.85-1.18l2.06,1.17c.39,.22,.89,.16,1.21-.16l4.17-4.17c.32-.32,.39-.82,.17-1.21l-1.17-2.06c.49-.91,.89-1.87,1.18-2.85l2.28-.63c.44-.12,.74-.52,.74-.97v-5.9c0-.45-.3-.85-.74-.97Zm-4.08,7.4c-.31,1.2-.79,2.35-1.42,3.42-.18,.31-.18,.7,0,1.01l1.07,1.89-3.08,3.08-1.89-1.07c-.31-.18-.7-.17-1.01,0-1.08,.63-2.23,1.11-3.42,1.42-.35,.09-.62,.36-.72,.71l-.58,2.09h-4.36l-.58-2.09c-.09-.34-.37-.62-.72-.71-1.19-.31-2.35-.79-3.42-1.42-.31-.18-.7-.18-1.01,0l-1.89,1.07-3.08-3.08,1.07-1.89c.18-.31,.17-.7,0-1.01-.63-1.08-1.11-2.23-1.42-3.42-.09-.35-.36-.62-.71-.72l-2.09-.58v-4.36l2.09-.58c.34-.1,.62-.37,.71-.72,.31-1.19,.79-2.35,1.42-3.42,.18-.31,.18-.7,0-1.01l-1.07-1.89,3.08-3.08,1.89,1.07c.31,.18,.7,.17,1.01,0,1.08-.63,2.23-1.11,3.42-1.42,.35-.09,.62-.36,.72-.71l.58-2.09h4.36l.58,2.09c.1,.35,.37,.62,.72,.71,1.19,.31,2.35,.79,3.42,1.42,.31,.18,.7,.19,1.01,0l1.89-1.07,3.08,3.08-1.07,1.89c-.18,.31-.17,.7,0,1.01,.63,1.08,1.11,2.23,1.42,3.42,.09,.35,.36,.62,.71,.72l2.09,.58v4.36l-2.09,.58c-.35,.1-.62,.37-.71,.72Z" style="fill:#e96424;"/><path d="M37.5,36.85c-4.84,0-8.78,3.94-8.78,8.78s3.94,8.78,8.78,8.78,8.78-3.94,8.78-8.78-3.94-8.78-8.78-8.78Zm6.76,8.78c0,3.73-3.03,6.76-6.76,6.76s-6.76-3.03-6.76-6.76,3.03-6.76,6.76-6.76,6.76,3.03,6.76,6.76Z" style="fill:#e96424;"/></g></svg>