<?xml version="1.0" encoding="UTF-8"?><svg id="uuid-973082f3-292f-462e-9475-e55d06671e70" xmlns="http://www.w3.org/2000/svg" viewBox="0 0 75 75"><path d="M51.49,68.19H10.15c-1.84,0-3.34-1.5-3.34-3.34V18.79c0-1.84,1.5-3.34,3.34-3.34h9.03c.51,0,.93,.42,.93,.93s-.42,.93-.93,.93H10.15c-.81,0-1.48,.66-1.48,1.48v46.06c0,.82,.66,1.48,1.48,1.48H51.49c.81,0,1.48-.66,1.48-1.48V18.79c0-.82-.66-1.48-1.48-1.48h-9.96c-.51,0-.93-.42-.93-.93s.42-.93,.93-.93h9.96c1.84,0,3.34,1.5,3.34,3.34v46.06c0,1.84-1.5,3.34-3.34,3.34Z" style="fill:#e96424;"/><path d="M41.53,20.97H19.18c-.51,0-.93-.42-.93-.93v-6.84c0-.51,.42-.93,.93-.93h22.35c.51,0,.93,.42,.93,.93v6.84c0,.51-.42,.93-.93,.93Zm-21.42-1.86h20.49v-4.98H20.11v4.98Z" style="fill:#e96424;"/><path d="M37.5,14.13c-.51,0-.93-.42-.93-.93v-1.63c0-1.6-1.3-2.91-2.89-2.91h-6.65c-1.6,0-2.9,1.3-2.9,2.91v1.63c0,.51-.42,.93-.93,.93s-.93-.42-.93-.93v-1.63c0-2.63,2.13-4.77,4.76-4.77h6.65c2.62,0,4.75,2.14,4.75,4.77v1.63c0,.51-.42,.93-.93,.93Z" style="fill:#e96424;"/><path d="M67.26,54.96h-8.58c-.51,0-.93-.42-.93-.93V27.91c0-2.08,1.69-3.78,3.78-3.78h2.89c2.08,0,3.78,1.7,3.78,3.78v26.12c0,.51-.42,.93-.93,.93Zm-7.65-1.86h6.72V27.91c0-1.06-.86-1.92-1.92-1.92h-2.89c-1.06,0-1.92,.86-1.92,1.92v25.19Z" style="fill:#e96424;"/><path d="M62.97,68.18c-.4,0-.76-.26-.88-.64l-4.29-13.23c-.16-.49,.11-1.01,.6-1.17,.49-.16,1.01,.11,1.17,.6l3.41,10.5,3.41-10.5c.16-.49,.68-.76,1.17-.6,.49,.16,.76,.68,.6,1.17l-4.29,13.23c-.12,.38-.48,.64-.88,.64Z" style="fill:#e96424;"/><path d="M67.26,32.79h-8.58c-.51,0-.93-.42-.93-.93s.42-.93,.93-.93h8.58c.51,0,.93,.42,.93,.93s-.42,.93-.93,.93Z" style="fill:#e96424;"/><path d="M20.67,41.03c-.05,0-.1,0-.15-.01-.27-.04-.5-.21-.64-.44l-2.53-4.22c-.26-.44-.12-1.01,.32-1.28,.44-.26,1.01-.12,1.28,.32l1.97,3.29,6.76-5.68c.39-.33,.98-.28,1.31,.11,.33,.39,.28,.98-.11,1.31l-7.6,6.38c-.17,.14-.38,.22-.6,.22Z" style="fill:#e96424;"/><path d="M50.25,30.34h-13.38c-.51,0-.93-.42-.93-.93s.42-.93,.93-.93h13.38c.51,0,.93,.42,.93,.93s-.42,.93-.93,.93Z" style="fill:#e96424;"/><path d="M50.25,36.36h-13.38c-.51,0-.93-.42-.93-.93s.42-.93,.93-.93h13.38c.51,0,.93,.42,.93,.93s-.42,.93-.93,.93Z" style="fill:#e96424;"/><path d="M50.25,42.37h-13.38c-.51,0-.93-.42-.93-.93s.42-.93,.93-.93h13.38c.51,0,.93,.42,.93,.93s-.42,.93-.93,.93Z" style="fill:#e96424;"/><path d="M50.25,48.39h-13.38c-.51,0-.93-.42-.93-.93s.42-.93,.93-.93h13.38c.51,0,.93,.42,.93,.93s-.42,.93-.93,.93Z" style="fill:#e96424;"/><path d="M50.25,54.4h-13.38c-.51,0-.93-.42-.93-.93s.42-.93,.93-.93h13.38c.51,0,.93,.42,.93,.93s-.42,.93-.93,.93Z" style="fill:#e96424;"/><path d="M50.25,60.42h-13.38c-.51,0-.93-.42-.93-.93s.42-.93,.93-.93h13.38c.51,0,.93,.42,.93,.93s-.42,.93-.93,.93Z" style="fill:#e96424;"/><path d="M23.02,47.35c-1.93,0-3.83-.51-5.54-1.5-2.55-1.48-4.37-3.87-5.12-6.72-.45-1.72-.49-3.54-.09-5.26,.11-.5,.61-.81,1.11-.7,.5,.11,.81,.61,.7,1.11-.33,1.45-.31,2.92,.08,4.37,.63,2.37,2.14,4.35,4.26,5.59,2.12,1.23,4.59,1.57,6.96,.94,2.37-.63,4.36-2.14,5.59-4.26,.26-.44,.83-.59,1.27-.34,.44,.26,.59,.83,.34,1.27-1.48,2.55-3.87,4.36-6.72,5.12-.94,.25-1.89,.37-2.84,.37Z" style="fill:#e96424;"/><path d="M32.92,39.39c-.07,0-.13,0-.2-.02-.5-.11-.82-.61-.71-1.11,.31-1.43,.28-2.87-.1-4.29-1.29-4.89-6.33-7.82-11.22-6.53-2.39,.63-4.39,2.16-5.62,4.3-.26,.45-.82,.6-1.27,.34-.45-.26-.6-.82-.34-1.27,1.48-2.58,3.88-4.42,6.76-5.18,5.89-1.55,11.94,1.97,13.49,7.85,.45,1.71,.49,3.45,.11,5.16-.1,.43-.48,.73-.91,.73Z" style="fill:#e96424;"/><path d="M14.27,32.21c-.49,0-.9-.38-.93-.88l-.23-3.98c-.03-.51,.36-.95,.88-.98,.53-.03,.95,.36,.98,.88l.23,3.98c.03,.51-.36,.95-.88,.98-.02,0-.04,0-.05,0Z" style="fill:#e96424;"/><path d="M14.27,32.21c-.46,0-.87-.35-.92-.82-.06-.51,.3-.97,.81-1.03l3.7-.44c.5-.06,.97,.3,1.03,.81,.06,.51-.3,.97-.81,1.03l-3.7,.44s-.07,0-.11,0Z" style="fill:#e96424;"/><path d="M27.96,42.8c-.46,0-.86-.34-.92-.81-.06-.51,.3-.97,.81-1.04l3.82-.48c.51-.06,.97,.3,1.04,.81,.06,.51-.3,.97-.81,1.04l-3.82,.48s-.08,0-.12,0Z" style="fill:#e96424;"/><path d="M31.94,46.26c-.49,0-.91-.39-.93-.89l-.17-3.94c-.02-.51,.38-.95,.89-.97,.53-.02,.95,.38,.97,.89l.17,3.94c.02,.51-.38,.95-.89,.97-.01,0-.03,0-.04,0Z" style="fill:#e96424;"/><path d="M30.82,60.42H12.93c-.51,0-.93-.42-.93-.93v-6.02c0-.51,.42-.93,.93-.93H30.82c.51,0,.93,.42,.93,.93v6.02c0,.51-.42,.93-.93,.93Zm-16.96-1.86H29.89v-4.16H13.86v4.16Z" style="fill:#e96424;"/></svg>