<svg xmlns="http://www.w3.org/2000/svg" width="55.861" height="56.3" viewBox="0 0 55.861 56.3"><defs><style>.a{fill:#f96c0d;stroke:#f96c0d;stroke-width:0.35px;}</style></defs><g transform="translate(-1.832 0.175)"><path class="a" d="M179.763,155.707a3.849,3.849,0,0,0-2.231.71v-.091a3.871,3.871,0,0,0-6.607-2.738q-.1.1-.194.208a3.931,3.931,0,0,0-.435-.517,3.868,3.868,0,0,0-4.968-.423v-8.024a3.871,3.871,0,0,0-7.741,0V157.3a4.3,4.3,0,0,0-7.3,4.544c.652,1.174.794,3.91.794,4.869a23.81,23.81,0,0,0,1.44,7.521,14.02,14.02,0,0,0,1.987,3.617,9.166,9.166,0,0,0,7.555,3.657h9.089c7.238,0,11.712-6.684,12.39-13.286a.82.82,0,1,0-1.631-.167c-.6,5.871-4.492,11.815-10.759,11.815h-9.089a7.53,7.53,0,0,1-6.262-3.026,12.388,12.388,0,0,1-1.749-3.2,22.537,22.537,0,0,1-1.332-6.939c0-.395-.028-3.909-1-5.66a2.664,2.664,0,1,1,4.66-2.584,11.082,11.082,0,0,1,1.2,2.808V166.7a.82.82,0,1,0,1.639,0V144.834a2.231,2.231,0,0,1,4.463,0v15.942a.82.82,0,1,0,1.639,0v-4.757a2.231,2.231,0,1,1,4.463,0v3.764a.82.82,0,1,0,1.639,0v-3.446s0-.006,0-.008a2.231,2.231,0,1,1,4.463,0v3.252a.82.82,0,1,0,1.639,0,2.231,2.231,0,1,1,4.463,0v5.285a.82.82,0,0,0,1.639,0v-5.285a3.87,3.87,0,0,0-3.871-3.871Z" transform="translate(-131.599 -125.559)"/><path class="a" d="M18.163,21.1a.82.82,0,0,0-1.063-.462A9.862,9.862,0,1,1,19.7,19.1a.82.82,0,0,0,1.036,1.27A11.411,11.411,0,1,0,17.7,22.158a.82.82,0,0,0,.462-1.063Z" transform="translate(0 -0.001)"/><path class="a" d="M71.288,59.824a.819.819,0,0,0-1.159,0l-3.568,3.567-3.567-3.567a.82.82,0,0,0-1.159,1.159L65.4,64.551l-3.567,3.567a.82.82,0,1,0,1.159,1.159l3.567-3.568,3.568,3.568a.82.82,0,0,0,1.159-1.159l-3.568-3.567,3.568-3.567A.819.819,0,0,0,71.288,59.824Z" transform="translate(-53.077 -53.073)"/><path class="a" d="M311.4,0a11.478,11.478,0,1,0,11.478,11.478A11.491,11.491,0,0,0,311.4,0Zm0,21.316a9.839,9.839,0,1,1,9.839-9.839A9.85,9.85,0,0,1,311.4,21.316Z" transform="translate(-265.356)"/><path class="a" d="M364.286,50.326a.819.819,0,0,0-1.1.367L358.6,59.873l-3.5-3.5a.82.82,0,0,0-1.159,1.159l4.306,4.306a.82.82,0,0,0,1.313-.213l5.1-10.2A.82.82,0,0,0,364.286,50.326Z" transform="translate(-313.258 -44.749)"/></g></svg>