<?xml version="1.0" encoding="UTF-8"?><svg id="uuid-671c0d20-a0e3-48f1-8416-a126859470da" xmlns="http://www.w3.org/2000/svg" viewBox="0 0 75 75"><path d="M9.06,34.19C3.6,36.77,.41,42.82,1.46,48.58c1.29,7.05,6.83,11.62,14.13,11.64,13.53,.03,27.07,.02,40.6,0h4.47c3.12,0,5.87-.89,8.16-2.64,2.55-1.95,4.17-4.56,4.93-8v-4.15c-1.33-5.61-4.7-8.93-10.27-10.15-.82-.18-1.2-.69-1.17-1.55,.04-1.05-.03-2.12-.2-3.19-.79-4.88-3.63-9.36-7.79-12.29-4.17-2.94-9.13-4.07-13.97-3.18-5.72,1.05-10.16,4.24-13.2,9.49-.22,.38-.5,.78-.96,.9-.44,.11-.87-.1-1.25-.34-1.27-.79-2.65-1.21-4.09-1.25-.1,0-.2,0-.31,0-4.66,0-8.66,3.28-9.58,7.91-.24,1.22-.77,1.9-1.89,2.42Zm2.92,.98c.36-.11,.73-.22,.79-.29,.03-.07,.04-.37,.04-.67,0-.2,0-.44,.01-.73,.11-3.22,1.72-5.58,4.67-6.82,2.82-1.19,5.61-.75,8.08,1.26,.22,.18,.43,.39,.63,.6l.17,.18c.29,.3,.59,.6,.78,.74,.11-.21,.26-.64,.41-1.05,2.78-7.62,9.27-11.88,17.36-11.38,7.38,.45,14.14,6.81,15.07,14.19,.21,1.7,.21,3.31,0,4.9-.04,.3-.11,.81-.06,.93,.06,0,.57-.02,.87-.02,3.26-.07,5.91,1.01,7.94,3.21,3.06,3.31,3.79,7.21,2.1,11.28-1.71,4.15-4.96,6.37-9.39,6.43-3.2,.05-6.42,.06-9.63,.06-2.3,0-4.59,0-6.84-.01-2.13,0-4.25-.01-6.38-.01h-.49s-6.91,.01-6.91,.01c-5.33,0-10.67,0-16.01-.01-5.98-.02-10.52-3.87-11.57-9.8-.98-5.51,2.47-11.15,7.84-12.84l.51-.16Z" style="fill:#e96424;"/><g id="uuid-925b9fb6-daf8-463d-9bd1-ab19746e4a40"><g><path d="M41.89,33.08c-.44,.46-.87,.93-1.32,1.38-.53,.52-1.21,.54-1.65,.08-.42-.43-.38-1.11,.11-1.61,1.18-1.2,2.37-2.39,3.57-3.58,.54-.54,1.14-.54,1.68,0,1.2,1.18,2.39,2.38,3.57,3.58,.51,.52,.53,1.21,.07,1.65-.44,.42-1.1,.37-1.61-.12-.65-.63-1.28-1.28-2.01-2-.09,.88-.12,1.67-.24,2.44-.76,4.64-4.06,7.94-8.7,8.79-1.02,.19-2.07,.36-3.05,.7-2.83,.99-4.57,3.02-5.27,5.92-.11,.46-.27,.86-.74,1.03-.81,.3-1.59-.39-1.44-1.25,.69-4.01,4.04-7.38,8.09-8.15,.95-.18,1.91-.33,2.84-.58,3.14-.86,5.12-2.89,5.93-6.04,.18-.7,.24-1.43,.35-2.14-.07-.03-.13-.05-.2-.08Z"/><path d="M30.74,50.82c.01-2.19,1.75-3.94,3.94-3.96,2.17-.02,3.99,1.81,3.99,3.99,0,2.18-1.85,4-4.02,3.96-2.19-.04-3.92-1.81-3.91-3.99Zm5.73,.03c0-1.01-.8-1.82-1.79-1.81-.96,0-1.78,.82-1.79,1.78-.01,.97,.83,1.82,1.82,1.81,.98,0,1.76-.79,1.77-1.78Z"/><path d="M48.06,46.66c.64,.62,1.18,1.12,1.7,1.65,.52,.52,.55,1.13,.1,1.6-.44,.46-1.12,.44-1.64-.08-.52-.52-1.03-1.05-1.67-1.71-.58,.64-1.11,1.25-1.68,1.82-.38,.38-.87,.41-1.33,.13-.45-.28-.58-.73-.43-1.22,.07-.23,.24-.44,.41-.61,.5-.51,1.03-.99,1.64-1.57-.6-.56-1.14-1.05-1.66-1.57-.55-.54-.59-1.17-.14-1.64,.48-.5,1.1-.46,1.68,.11,.51,.51,1,1.03,1.57,1.62,.58-.6,1.1-1.16,1.65-1.69,.49-.48,1.05-.51,1.52-.14,.52,.42,.56,1.11,.06,1.63-.54,.56-1.12,1.07-1.75,1.67Z"/><path d="M29.91,36.01c.54,.47,1.1,.91,1.62,1.41,.54,.51,.58,1.2,.15,1.65-.46,.48-1.12,.45-1.68-.13-.5-.51-.96-1.06-1.46-1.63-.69,.66-1.23,1.2-1.79,1.72-.52,.47-1.13,.49-1.55,.07-.5-.49-.49-1.05,.07-1.62,.53-.54,1.09-1.04,1.71-1.63-.61-.59-1.14-1.09-1.66-1.6-.55-.55-.6-1.16-.15-1.64,.45-.47,1.14-.43,1.69,.12,.51,.51,1,1.03,1.6,1.64,.53-.56,1.03-1.1,1.54-1.61,.56-.57,1.22-.62,1.68-.16,.46,.46,.41,1.12-.15,1.69-.46,.47-.92,.94-1.38,1.42-.03,.03-.04,.07-.06,.1l-.17,.22Z"/></g><g><path d="M43.44,28.95c-.28,0-.57,.14-.84,.4-1.2,1.19-2.39,2.38-3.57,3.58-.49,.5-.53,1.18-.11,1.61,.21,.22,.47,.33,.75,.33,.31,0,.63-.14,.9-.41,.45-.45,.88-.92,1.32-1.38,.07,.03,.13,.05,.2,.08-.11,.72-.17,1.45-.35,2.14-.81,3.15-2.8,5.18-5.93,6.04-.93,.26-1.89,.4-2.84,.58-4.05,.77-7.4,4.14-8.09,8.15-.12,.72,.4,1.32,1.05,1.32,.13,0,.26-.02,.39-.07,.47-.17,.63-.57,.74-1.03,.7-2.91,2.44-4.93,5.27-5.92,.98-.34,2.02-.51,3.05-.7,4.64-.84,7.93-4.15,8.7-8.79,.13-.77,.16-1.55,.24-2.44,.72,.72,1.36,1.37,2.01,2,.27,.27,.59,.4,.9,.4,.26,0,.5-.09,.7-.28,.46-.43,.45-1.13-.07-1.65-1.18-1.2-2.37-2.39-3.57-3.58-.27-.27-.56-.41-.84-.41h0Z" style="fill:#e96424;"/><path d="M34.72,46.86s-.02,0-.03,0c-2.18,.02-3.93,1.77-3.94,3.96-.01,2.19,1.72,3.95,3.91,3.99,.02,0,.05,0,.07,0,2.14,0,3.94-1.8,3.95-3.96,0-2.17-1.8-3.99-3.95-3.99h0Zm-.02,5.77c-.98,0-1.82-.84-1.81-1.81,.01-.96,.83-1.77,1.79-1.78,0,0,0,0,.01,0,.99,0,1.79,.81,1.78,1.81,0,.98-.79,1.77-1.77,1.78,0,0,0,0,0,0h0Z" style="fill:#e96424;"/><path d="M49.64,44.93h0m-.55-1.82c-.29,0-.58,.13-.85,.39-.55,.53-1.07,1.09-1.65,1.69-.57-.59-1.06-1.12-1.57-1.62-.31-.31-.63-.46-.93-.46-.27,0-.52,.12-.74,.35-.45,.46-.41,1.1,.14,1.64,.52,.51,1.06,1,1.66,1.57-.61,.58-1.13,1.06-1.64,1.57-.17,.17-.35,.39-.41,.61-.15,.49-.02,.94,.43,1.22,.2,.13,.41,.19,.62,.19,.26,0,.5-.1,.72-.32,.57-.57,1.1-1.18,1.68-1.82,.64,.66,1.15,1.2,1.67,1.71,.28,.27,.59,.41,.9,.41,.27,0,.54-.11,.75-.33,.44-.46,.41-1.07-.1-1.6-.52-.52-1.05-1.02-1.7-1.65,.64-.6,1.22-1.11,1.75-1.67,.51-.53,.46-1.22-.06-1.63-.21-.17-.43-.25-.67-.25h0Z" style="fill:#e96424;"/><path d="M31.4,34.15h0m-.46-1.87c-.32,0-.66,.16-.97,.47-.51,.52-1.01,1.05-1.54,1.61-.6-.61-1.09-1.13-1.6-1.64-.3-.3-.63-.44-.95-.44-.27,0-.53,.11-.74,.33-.45,.48-.41,1.09,.15,1.64,.52,.52,1.05,1.02,1.66,1.6-.62,.59-1.18,1.09-1.71,1.63-.56,.57-.57,1.13-.07,1.62,.2,.2,.45,.3,.7,.3,.28,0,.58-.12,.85-.37,.57-.52,1.11-1.06,1.79-1.72,.51,.57,.97,1.12,1.46,1.63,.3,.31,.63,.46,.94,.46,.27,0,.52-.11,.74-.33,.43-.45,.39-1.13-.15-1.65-.52-.49-1.08-.94-1.62-1.41,.06-.07,.11-.14,.17-.22,.02-.03,.03-.07,.06-.1,.46-.47,.92-.94,1.38-1.42,.56-.57,.61-1.23,.15-1.69-.21-.21-.46-.31-.72-.31h0Z" style="fill:#e96424;"/></g></g></svg>