<?xml version="1.0" encoding="UTF-8"?><svg id="uuid-f22a3ea9-a5a1-4e8d-ac81-c1578b2b85be" xmlns="http://www.w3.org/2000/svg" viewBox="0 0 75 75"><path d="M58.39,31.49c.55-1.5,.82-3.08,.82-4.7,0-7.62-6.2-13.82-13.82-13.82-4.67,0-8.91,2.28-11.49,6.13-2.11-1.4-4.62-2.17-7.16-2.17-6.88,0-12.45,5.28-12.86,12.1-4.2,2.21-6.9,6.65-6.9,11.41,0,7.1,5.78,12.88,12.89,12.88,.16,0,.31,0,.42,0h2.29c.67,0,1.22-.55,1.22-1.22s-.55-1.22-1.22-1.22h-2.33c-2.84,.09-5.56-.93-7.62-2.91-2.06-1.99-3.19-4.66-3.19-7.52,0-4.1,2.42-7.84,6.15-9.52,.44-.2,.72-.63,.72-1.11,0-5.75,4.69-10.43,10.44-10.43,2.46,0,4.85,.87,6.72,2.45,.28,.24,.65,.34,1.02,.27,.36-.07,.67-.3,.85-.63,1.98-3.73,5.84-6.05,10.06-6.05,6.27,0,11.38,5.1,11.38,11.38,0,1.82-.42,3.56-1.25,5.18-.19,.38-.18,.82,.04,1.18,.21,.36,.59,.59,1.02,.6,4.66,.13,8.32,3.89,8.32,8.56s-3.76,8.47-8.4,8.56h-.05s-6.44,0-6.44,0c-.67,0-1.22,.55-1.22,1.22s.55,1.22,1.22,1.22h6.54s.1,0,.1,0c5.9-.17,10.7-5.1,10.7-11.01,0-5.34-3.79-9.85-8.94-10.82Z" style="fill:#e96424;"/><g><path d="M28.96,50.47c-.39,0-.7,.32-.7,.7v9.32c0,.39,.32,.7,.7,.7s.7-.32,.7-.7v-9.32c0-.39-.32-.7-.7-.7Z" style="fill:#e96424;"/><path d="M28.96,36.13c-.39,0-.7,.32-.7,.71v10.04c0,.39,.32,.71,.7,.71s.7-.32,.7-.71v-10.04c0-.39-.32-.71-.7-.71Z" style="fill:#e96424;"/><path d="M37.57,44.02c-.39,0-.7,.32-.7,.7v16.49c0,.39,.32,.7,.7,.7s.7-.32,.7-.7v-16.49c0-.39-.32-.7-.7-.7Z" style="fill:#e96424;"/><path d="M37.57,36.85c-.39,0-.7,.32-.7,.7v2.87c0,.39,.32,.71,.7,.71s.7-.32,.7-.71v-2.87c0-.39-.32-.7-.7-.7Z" style="fill:#e96424;"/><path d="M46.17,57.64c-.39,0-.7,.32-.7,.7v2.87c0,.39,.32,.7,.7,.7s.7-.32,.7-.7v-2.87c0-.39-.32-.7-.7-.7Z" style="fill:#e96424;"/><path d="M46.17,36.85c-.39,0-.7,.32-.7,.7v16.49c0,.39,.32,.7,.7,.7s.7-.32,.7-.7v-16.49c0-.39-.32-.7-.7-.7Z" style="fill:#e96424;"/></g><path d="M30.37,51.71h-2.81c-.71,0-1.28-.58-1.28-1.28v-2.81c0-.71,.58-1.28,1.28-1.28h2.81c.71,0,1.28,.58,1.28,1.28v2.81c0,.71-.58,1.28-1.28,1.28Z" style="fill:#e96424;"/><path d="M38.97,45.26h-2.81c-.71,0-1.28-.58-1.28-1.28v-2.81c0-.71,.58-1.28,1.28-1.28h2.81c.71,0,1.28,.58,1.28,1.28v2.81c0,.71-.58,1.28-1.28,1.28Z" style="fill:#e96424;"/><path d="M47.58,58.88h-2.81c-.71,0-1.28-.58-1.28-1.28v-2.81c0-.71,.58-1.28,1.28-1.28h2.81c.71,0,1.28,.58,1.28,1.28v2.81c0,.71-.58,1.28-1.28,1.28Z" style="fill:#e96424;"/></svg>