<?xml version="1.0" encoding="UTF-8"?><svg id="uuid-7865c300-c9d4-44fb-a1a3-949a00c56ea9" xmlns="http://www.w3.org/2000/svg" viewBox="0 0 75 75"><path d="M42.12,32.87v-2.27s.24-.11,.24-.11l-.24,.06c-.73-3.09-2.66-5.02-5.76-5.73l-.2-.05v-.21c.03-.58,0-1.17-.1-1.76-.43-2.68-1.99-5.13-4.26-6.73-2.28-1.61-5-2.23-7.66-1.74-3.13,.57-5.56,2.32-7.22,5.19l-.17,.27-.27-.16c-.74-.46-1.54-.7-2.38-.73h-.17c-2.66,0-4.96,1.9-5.49,4.52-.09,.47-.27,.69-.7,.9-3.04,1.44-4.82,4.82-4.23,8.04,.71,3.86,3.86,6.46,7.85,6.47,7.02,.02,14.04,.01,21.07,0h2.38c1.74,0,3.27-.5,4.55-1.48,1.42-1.08,2.34-2.59,2.76-4.49Zm-2.48,.73c-.81,1.95-2.34,3-4.42,3.03-1.68,.02-3.38,.03-5.02,.03-1.23,0-2.42,0-3.56,0-1.19,0-2.38,0-3.57,0v-.25l-.03,.25h-3.83c-2.69,0-5.38,0-8.07,0-2.85-.01-5.02-1.85-5.52-4.68-.46-2.62,1.17-5.3,3.73-6.1l.26-.08c.69-.21,.79-.28,.8-.99v-.36c.06-1.48,.77-2.53,2.12-3.1,1.3-.55,2.54-.35,3.69,.58,.1,.08,.18,.17,.27,.26l.11,.11c.46,.46,.63,.62,.88,.57,.25-.06,.35-.28,.58-.91,1.36-3.74,4.58-5.83,8.52-5.59,3.61,.22,6.91,3.33,7.36,6.94,.11,.84,.11,1.63,0,2.42-.06,.45-.08,.69,.08,.87,.16,.18,.4,.19,.85,.18,.04,0,.08,0,.11,0,1.49,0,2.71,.51,3.64,1.51,1.47,1.59,1.8,3.38,1,5.33Z" style="fill:#e96424;"/><path d="M71.6,54.87v-2.27s.24-.11,.24-.11l-.24,.06c-.72-3.09-2.66-5.02-5.76-5.73l-.2-.05v-.21c.03-.58,0-1.17-.1-1.76-.43-2.68-1.99-5.13-4.26-6.73-2.28-1.61-5-2.23-7.66-1.74-3.13,.57-5.56,2.32-7.22,5.19l-.17,.27-.27-.16c-.74-.45-1.54-.7-2.38-.72-.05,0-.11,0-.16,0-2.67,0-4.97,1.88-5.5,4.53-.09,.47-.27,.69-.7,.9-3.04,1.44-4.82,4.82-4.24,8.04,.71,3.86,3.86,6.46,7.85,6.47,7.02,.02,14.04,0,21.07,0h2.38c1.74,0,3.27-.5,4.55-1.48,1.42-1.08,2.34-2.59,2.76-4.49Zm-2.48,.73c-.81,1.95-2.34,3-4.42,3.03-1.65,.02-3.29,.03-5,.03-1.16,0-2.34,0-3.58,0-1.19,0-2.38,0-3.57,0v-.25l-.03,.25h-3.52c-2.79,0-5.58,0-8.38,0-2.85-.01-5.02-1.85-5.52-4.68-.46-2.58,1.22-5.31,3.73-6.1l.26-.08c.69-.21,.79-.28,.8-.98v-.36c.06-1.49,.77-2.53,2.12-3.1,1.3-.55,2.54-.35,3.68,.58,.09,.08,.18,.16,.26,.25l.12,.12c.46,.46,.65,.62,.88,.56,.25-.06,.35-.28,.58-.91,1.36-3.74,4.54-5.83,8.52-5.59,3.61,.22,6.91,3.33,7.36,6.94,.11,.84,.11,1.63,0,2.42-.06,.45-.08,.69,.08,.88,.16,.18,.41,.19,.85,.18,1.51-.02,2.82,.49,3.76,1.51,1.47,1.59,1.8,3.38,1,5.33Z" style="fill:#e96424;"/><path d="M12.82,43.65h-1.48v5.01c0,1.1,.9,2,2,2h0c1.94,0,3.37,0,4.7,0,1.87,0,3.57,0,6.29,0h.41c-.1,.11-.15,.16-.2,.22-.51,.51-1.02,1.02-1.53,1.53-.33,.33-.33,.8-.02,1.1,.13,.13,.32,.2,.52,.2,.21,0,.42-.07,.57-.23,.99-1,2-1.96,2.99-2.99,.3-.31,.34-.71-.29-1.33-1.02-1.01-1.66-1.64-2.56-2.58-.27-.28-.54-.45-.79-.45-.15,0-.29,.06-.43,.19-.3,.29-.32,.74-.04,1.05,.32,.34,.65,.66,.97,.98,.25,.25,.5,.51,.75,.76,0,.02-.01,.04-.02,.06h-.26c-4.5,0-6.07,0-10.59,0-.55,0-1-.45-1-1v-4.53h0Z" style="fill:#e96424;"/><path d="M48.49,20.17h0m-.45-1.23c-.21,0-.42,.07-.57,.23-.99,1-2,1.96-2.99,2.99-.3,.31-.34,.71,.29,1.33,1.02,1.01,1.66,1.64,2.56,2.58,.27,.28,.54,.45,.79,.45,.15,0,.29-.06,.43-.19,.3-.29,.32-.74,.04-1.05-.32-.34-.65-.66-.97-.98-.25-.25-.5-.51-.75-.76,0-.02,.01-.04,.02-.06h.26c4.5,0,6.07,0,10.59,0,.55,0,1,.45,1,1v4.53h1.48v-5.01c0-1.1-.9-2-2-2h0c-1.92,0-3.34,0-4.66,0-1.89,0-3.59,0-6.33,0h-.41c.1-.11,.15-.16,.2-.22,.51-.51,1.02-1.02,1.53-1.53,.33-.33,.33-.8,.02-1.1-.13-.13-.32-.2-.52-.2h0Z" style="fill:#e96424;"/></svg>