<?xml version="1.0" encoding="UTF-8"?><svg id="uuid-e375da6a-7e99-4537-9824-74a44edcbd77" xmlns="http://www.w3.org/2000/svg" viewBox="0 0 75 75"><path d="M35.48,66.35c-.55-.09-1.11-.17-1.66-.27-.73-.12-1.47-.23-2.19-.39-1.48-.34-2.9-.84-4.29-1.45-1.48-.65-2.9-1.42-4.21-2.38-.74-.54-.73-.56-.12-1.26,.11-.13,.23-.27,.37-.43,4.19,3.11,8.85,4.82,14.11,4.67,3.42-.1,6.6-1.12,9.56-2.78,2.09-1.17,4.39-2.93,4.75-3.53-1.14-.05-2.25-.11-3.41-.16,.03-.51,.06-1.01,.08-1.44,.78,0,1.52-.02,2.26,0,1.16,.03,2.31,.1,3.47,.13,.31,0,.47,.07,.43,.42-.07,.69-.14,1.39-.17,2.09-.02,.32,.07,.64,.06,.96,0,.47-.05,.93-.07,1.4-.02,.35-.03,.7-.04,1.06,0,.24-.09,.36-.34,.33-.38-.03-.76-.06-1.17-.09-.02-.28-.11-.53,.18-.75,.1-.08,.17-.36,.11-.48-.33-.64-.22-1.32-.24-1.99,0-.04-.02-.08-.05-.21-.35,.27-.69,.51-1,.77-2.06,1.71-4.33,3.08-6.8,4.11-1.55,.64-3.17,1.07-4.82,1.38-.68,.13-1.38,.19-2.07,.28h-2.74Z" style="fill:#e96424;"/><path d="M41.32,41.73c.63-.43,1.25-.85,1.86-1.3,.13-.1,.25-.31,.25-.47,0-1.06-.06-2.11-.08-3.17,0-.35,.03-.71,.09-1.05,.05-.32-.09-.48-.34-.63-.53-.33-1.05-.68-1.55-1.05-.1-.07-.17-.3-.13-.4,.41-1.06,.86-2.1,1.27-3.16,.16-.41,.41-.47,.79-.38,.58,.14,1.17,.24,1.75,.38,.33,.08,.4-.18,.54-.33,.55-.61,1.06-1.26,1.63-1.85,.38-.39,.86-.68,1.27-1.05,.12-.11,.22-.34,.19-.49-.1-.59-.24-1.17-.38-1.75-.09-.35,0-.58,.35-.72,1.06-.43,2.12-.88,3.19-1.3,.1-.04,.33,.05,.4,.15,.37,.5,.73,1.02,1.06,1.56,.19,.32,.44,.4,.77,.34,1.31-.25,2.63-.24,3.94,0,.28,.05,.49-.02,.65-.31,.31-.54,.68-1.04,1.02-1.56,.15-.23,.29-.29,.58-.16,.8,.36,1.63,.62,2.42,1,.77,.36,1.06,.95,.81,1.88-.09,.34-.15,.7-.19,1.05,0,.08,.1,.2,.19,.26,1.18,.88,2.22,1.88,3.08,3.08,.07,.1,.31,.15,.46,.13,.68-.1,1.35-.26,2.02-.36,.12-.02,.34,.1,.39,.21,.45,1.04,.88,2.08,1.32,3.13,.11,.27,.16,.48-.19,.68-.56,.31-1.08,.68-1.59,1.06-.13,.1-.21,.34-.2,.51,.03,.82,.14,1.64,.15,2.45,0,.54-.08,1.08-.15,1.61-.04,.31,.02,.51,.31,.68,.56,.33,1.1,.7,1.63,1.08,.08,.06,.13,.29,.09,.4-.29,.77-.6,1.54-.91,2.3-.13,.32-.32,.63-.4,.97-.07,.28-.2,.32-.43,.28-.6-.1-1.22-.17-1.81-.31-.36-.09-.56-.06-.8,.27-.76,1.07-1.66,2.02-2.76,2.75-.39,.26-.35,.59-.28,.95,.1,.54,.21,1.09,.35,1.62,.06,.24,0,.36-.21,.45-1.1,.46-2.19,.92-3.29,1.38-.3,.12-.43-.09-.56-.28-.35-.51-.71-1.03-1.04-1.56-.14-.23-.28-.27-.54-.22-1.38,.29-2.77,.3-4.15,0-.21-.05-.32-.04-.46,.17-.36,.58-.78,1.12-1.15,1.7-.17,.27-.37,.26-.6,.17-1.05-.43-2.1-.86-3.14-1.3-.25-.1-.37-.22-.27-.56,.19-.64,.3-1.31,.42-1.97,.02-.11-.06-.28-.16-.35-1.2-.86-2.24-1.88-3.1-3.09-.07-.1-.25-.18-.36-.16-.69,.11-1.38,.24-2.06,.39-.25,.05-.37,0-.46-.24-.48-1.17-.97-2.33-1.48-3.54Zm3.93-.83s-.06,.06-.1,.1c-.51,.35-1.03,.68-1.53,1.05-.13,.1-.29,.32-.27,.45,.07,.35,.21,.7,.38,1.01,.07,.12,.3,.25,.43,.23,.61-.09,1.2-.23,1.8-.37,.19-.05,.29-.05,.42,.15,1.07,1.64,2.34,3.1,4.08,4.07,.1,.06,.18,.27,.17,.4-.07,.47-.18,.94-.29,1.41-.14,.61-.09,.73,.48,.99,.2,.09,.41,.16,.6,.25,.22,.11,.36,.08,.5-.15,.33-.52,.67-1.02,1.03-1.51,.07-.1,.25-.17,.39-.17,.18,0,.38,.04,.56,.09,1.72,.44,3.43,.29,5.14-.09,.25-.06,.4,0,.55,.23,.37,.58,.77,1.14,1.15,1.72,.43-.19,.81-.39,1.21-.53,.26-.09,.3-.21,.24-.46-.13-.57-.23-1.14-.36-1.71-.05-.24,0-.37,.21-.5,1.64-.97,2.9-2.32,3.9-3.92,.17-.27,.36-.35,.65-.29,.53,.12,1.06,.22,1.58,.34,.3,.07,.47-.01,.56-.31,.08-.26,.19-.52,.31-.77,.13-.26,.08-.42-.17-.58-.58-.36-1.13-.75-1.69-1.13,.12-.61,.29-1.18,.32-1.76,.07-1.42,.07-2.85-.28-4.24-.07-.28,.04-.36,.22-.48,.47-.31,.95-.62,1.41-.95,.11-.08,.27-.25,.24-.32-.16-.45-.36-.89-.57-1.32-.02-.04-.16-.04-.24-.03-.56,.11-1.13,.19-1.67,.34-.33,.09-.49,.02-.68-.25-.49-.68-1-1.36-1.55-1.99-.68-.77-1.49-1.42-2.39-1.93-.22-.12-.28-.28-.21-.54,.15-.57,.25-1.16,.35-1.74,.02-.11-.05-.31-.13-.35-.43-.2-.87-.36-1.33-.54-.38,.57-.73,1.14-1.12,1.68-.09,.13-.28,.29-.43,.29-.33,0-.67-.07-.99-.15-1.59-.4-3.17-.26-4.74,.13-.29,.07-.42,0-.56-.23-.3-.48-.63-.95-.94-1.42-.13-.19-.26-.28-.51-.15-.28,.15-.6,.23-.88,.39-.13,.07-.27,.28-.25,.4,.07,.49,.25,.96,.29,1.45,.02,.26,.25,.57-.17,.83-1.56,1-2.92,2.21-3.86,3.84-.22,.39-.52,.39-.87,.31-.51-.11-1.02-.23-1.54-.3-.12-.02-.32,.13-.38,.25-.15,.28-.21,.6-.35,.88-.14,.27-.04,.39,.18,.53,.52,.34,1.04,.69,1.54,1.05,.08,.05,.14,.2,.13,.3-.05,.43-.12,.87-.21,1.29-.34,1.59-.13,3.14,.26,4.72Z" style="fill:#e96424;"/><path d="M24.87,49.24h1.58v1.57c-.47,0-.94,.03-1.41,0-.41-.04-.53,.15-.59,.51-.08,.44-.14,.91-.34,1.29-.2,.38-.56,.68-.85,1.02-.14,.16-.34,.32-.4,.51-.76,2.52-3.77,3.36-5.87,1.85-.6-.43-1.03-1.05-1.24-1.79-.08-.28-.22-.46-.49-.62-.62-.36-.99-.91-1.06-1.66-.03-.36-.11-.71-.18-1.11-.55,0-1.07-.01-1.58,0-.27,0-.35-.1-.36-.36-.03-1.21-.04-1.21,1.18-1.21,.16,0,.31,0,.53,0-.16-.68-.3-1.29-.45-1.9-.08-.31-.27-.62,.04-.93,.03-.03,0-.16-.03-.19-.69-.64-.81-1.57-1.13-2.38-.58-1.46-1.3-2.85-2.04-4.24-.55-1.03-1.08-2.11-1.38-3.24-.38-1.4-.38-2.86-.11-4.31,.4-2.19,1.39-4.07,2.92-5.65,1.04-1.07,2.27-1.88,3.69-2.43,1.47-.58,2.98-.88,4.55-.75,.99,.08,2,.26,2.95,.57,2.11,.68,3.81,1.98,5.14,3.76,1.03,1.38,1.7,2.93,1.96,4.61,.22,1.43,.17,2.87-.17,4.32-.34,1.43-1.05,2.66-1.74,3.92-.96,1.75-1.77,3.57-2.31,5.5-.24,.87-.49,1.74-.72,2.61-.06,.22-.06,.45-.09,.73Zm-9.4,0c.35,0,.75,0,1.14,0,2.04,0,4.09,0,6.13,0,.36,0,.56-.04,.58-.49,.02-.47,.16-.95,.31-1.41,.4-1.31,.76-2.64,1.27-3.9,.59-1.46,1.28-2.89,2.01-4.3,.63-1.21,1.25-2.4,1.45-3.79,.31-2.09,0-4.05-1.06-5.87-1.77-3.05-4.41-4.64-7.96-4.72-2.07-.04-3.91,.58-5.54,1.81-1.82,1.38-3,3.17-3.51,5.43-.38,1.71-.32,3.37,.32,4.96,.46,1.15,1.17,2.21,1.71,3.33,.6,1.27,1.23,2.54,1.68,3.86,.56,1.63,.97,3.32,1.46,5.07Zm.2,1.6c0,1.18,.13,1.58,1.28,1.58,1.57-.01,3.14,0,4.71,0,.87,0,1.12-.22,1.27-1.09,.07-.38-.04-.52-.45-.52-2.13,.02-4.26,0-6.39,0-.14,0-.28,.02-.42,.03Zm5.54,3.08c-1.19,0-2.31,0-3.44,0-.1,0-.27,.09-.27,.15-.01,.11,.05,.26,.13,.34,.74,.78,1.71,1.02,2.72,.51,.37-.18,.76-.44,.86-1.01Z" style="fill:#e96424;"/><path d="M52.92,15.17v-3.46c.41-.02,.84-.06,1.27-.04,.08,0,.22,.22,.22,.34,.06,.99,.09,1.99,.13,2.99,.03,.83,.06,1.67,.09,2.5,0,.23-.02,.39-.32,.4-1.94,.05-3.87,.12-5.84,.18-.03-.49-.06-.97-.09-1.47,1.13-.07,2.24-.13,3.35-.19,.02-.03,.04-.06,.06-.09-.29-.26-.57-.53-.88-.77-1.66-1.31-3.42-2.48-5.34-3.36-1.78-.82-3.63-1.4-5.57-1.72-1.35-.22-2.69-.29-4.04-.22-1.12,.06-2.26,.18-3.35,.42-1.29,.29-2.55,.71-3.8,1.14-1.59,.55-3.04,1.37-4.44,2.3-.24,.16-.49,.31-.72,.5-.19,.15-.32,.16-.48-.04-.2-.25-.43-.47-.63-.71-.13-.16-.12-.3,.07-.44,1.68-1.18,3.43-2.25,5.37-2.94,1.27-.45,2.54-.96,3.85-1.26,2.64-.6,5.32-.78,8.03-.35,2,.31,3.93,.85,5.78,1.64,1.96,.85,3.79,1.95,5.48,3.26,.57,.44,1.14,.89,1.77,1.39Z" style="fill:#e96424;"/><path d="M7.96,23.88c.37-.43,.69-.8,1.09-1.27,.63,.66,1.18,1.24,1.72,1.84,.05,.05,.04,.23-.01,.29-.24,.27-.49,.53-.77,.76-.08,.07-.32,.05-.4-.02-.34-.34-.62-.72-.95-1.06-.2-.21-.46-.36-.69-.53Z" style="fill:#e96424;"/><path d="M3.99,33.29h2.61v1.55c-.79,0-1.57,0-2.36-.01-.09,0-.23-.16-.24-.25-.03-.42-.01-.84-.01-1.29Z" style="fill:#e96424;"/><path d="M27.68,43.44c.29-.27,.58-.54,.86-.81,.16-.16,.28-.16,.44,0,.47,.48,.96,.94,1.43,1.44,.07,.07,.05,.28,0,.39-.07,.14-.22,.23-.34,.34-.59,.58-.57,.57-1.16,.02-.43-.4-.9-.76-1.35-1.14,.04-.08,.08-.16,.11-.23Z" style="fill:#e96424;"/><path d="M29.46,22.75c.41,.38,.77,.71,1.17,1.08-.61,.59-1.16,1.14-1.73,1.66-.06,.06-.27,.04-.34-.02-.99-.84-.98-.84-.06-1.74,.33-.32,.64-.65,.96-.98Z" style="fill:#e96424;"/><path d="M10.93,43.44c-.68,.68-1.27,1.29-1.96,1.98-.32-.4-.63-.78-1.03-1.28,.51-.47,1.07-1.01,1.66-1.52,.08-.07,.34-.05,.43,.02,.31,.23,.58,.52,.89,.8Z" style="fill:#e96424;"/><path d="M34.48,33.29c0,.46,.01,.91-.01,1.36,0,.07-.18,.19-.27,.19-.73,.02-1.47,0-2.25,0v-1.56h2.53Z" style="fill:#e96424;"/><path d="M18.57,18.82c.41,0,.82-.02,1.22,.01,.09,0,.24,.18,.24,.27,.02,.68,.02,1.35,0,2.03,0,.1-.2,.27-.32,.28-.36,.04-.73,.01-1.14,.01v-2.61Z" style="fill:#e96424;"/><path d="M56.21,29.98c4.44,.18,7.79,3.19,7.82,7.78,.03,4.47-3.35,7.68-7.52,7.82-4.8,.16-8.13-3.59-8.12-7.82,.01-4.4,3.51-7.79,7.82-7.78Zm0,14.09c3.51-.05,6.24-2.82,6.28-6.25,.04-3.29-2.69-6.35-6.28-6.31-3.43,.04-6.26,2.77-6.26,6.29,0,3.45,2.82,6.28,6.26,6.28Z" style="fill:#e96424;"/><path d="M13.81,31.97c-.47-.27-.89-.5-1.3-.73,1.34-2.78,4.23-4.55,6.99-4.39,.02,.37,.04,.74,.06,1.12,.01,.25-.09,.35-.36,.37-2.31,.17-4,1.33-5.17,3.3-.07,.11-.14,.21-.22,.34Z" style="fill:#e96424;"/></svg>