<svg xmlns="http://www.w3.org/2000/svg" xmlns:xlink="http://www.w3.org/1999/xlink" width="18px" height="13px" viewBox="0 0 18 13" version="1.1">
    <title>Group</title>
    <g id="Symbols" stroke="none" stroke-width="1" fill="none" fill-rule="evenodd">
        <g id="Button/KnockoutOutline/150" transform="translate(-17.000000, -12.000000)" fill="#FFFFFF">
            <g id="Group" transform="translate(17.000000, 12.000000)">
                <path d="M5.77777778,1.408867 C5.77777778,0.784482759 5.40096618,0 3.83091787,0 L1.41304348,0 L0.722222222,3.25 L3.25,3.25 C5.22826087,3.23399015 5.77777778,2.28940887 5.77777778,1.408867" id="Fill-1"/>
                <path d="M12.2777778,1.408867 C12.2777778,0.784482759 11.9009662,0 10.3309179,0 L7.91304348,0 L7.22222222,3.25 L9.73429952,3.25 C11.7282609,3.23399015 12.2777778,2.28940887 12.2777778,1.408867" id="Fill-3"/>
                <path d="M5.05555556,6.11028603 C5.05555556,5.48281078 4.67874396,4.69444444 3.10869565,4.69444444 L0.690821256,4.69444444 L1.41664458e-12,7.94444444 L2.51207729,7.94444444 C4.49033816,7.94444444 5.05555556,6.99518702 5.05555556,6.11028603" id="Fill-5"/>
                <path d="M11.1944444,6.10331144 C11.1944444,5.4789272 10.8176329,4.69444444 9.24758454,4.69444444 L6.82971014,4.69444444 L6.13888889,7.94444444 L8.66666667,7.94444444 C10.6292271,7.92843459 11.1944444,6.98385331 11.1944444,6.10331144" id="Fill-7"/>
                <path d="M17.9217915,3.98255516 C17.9217915,3.37898373 17.5649288,2.6206504 16.0780007,2.6206504 L13.7879827,2.6206504 L13.133883,5.76231706 L15.512968,5.76231706 C17.3863487,5.76231706 17.9217915,4.83374563 17.9217915,3.98255516" id="Fill-9"/>
                <path d="M16.9722222,8.99220033 C16.9722222,8.36797619 16.5954106,7.58333333 15.0253623,7.58333333 L12.6073309,7.58333333 L11.9166667,10.8333333 L14.428744,10.8333333 C16.4068478,10.8333333 16.9722222,9.8727422 16.9722222,8.99220033" id="Fill-12"/>
                <path d="M10.4262626,10.8591579 C10.4262626,10.2555865 10.0585859,9.49725317 8.52659933,9.49725317 L6.16734007,9.49725317 L5.49326599,12.6389198 L7.94444444,12.6389198 C9.87474747,12.6232889 10.4262626,11.7103484 10.4262626,10.8591579" id="Fill-14"/>
            </g>
        </g>
    </g>
</svg>