<?xml version="1.0" encoding="UTF-8"?><svg id="uuid-5a14b1eb-c3eb-42d7-b946-c1de029128d1" xmlns="http://www.w3.org/2000/svg" viewBox="0 0 75 75"><path d="M9.34,66.93c-.7,0-1.26-.57-1.26-1.26s.57-1.26,1.26-1.26H26.23c.34,0,.62-.28,.62-.62v-3.76c0-.34-.28-.62-.62-.62H9.34c-.7,0-1.26-.57-1.26-1.26v-11.27c0-.7,.57-1.26,1.26-1.26H26.23c.34,0,.62-.28,.62-.62v-3.76c0-.34-.28-.62-.62-.62H9.34c-.7,0-1.26-.57-1.26-1.26v-11.27c0-.7,.57-1.26,1.26-1.26H26.23c.34,0,.62-.28,.62-.62v-3.76c0-.34-.28-.62-.62-.62H9.34c-.7,0-1.26-.57-1.26-1.26V9.34c0-.7,.57-1.26,1.26-1.26H48.77c.7,0,1.26,.57,1.26,1.26v11.27c0,.7-.57,1.26-1.26,1.26H29.99c-.34,0-.62,.28-.62,.62v3.76c0,.34,.28,.62,.62,.62h9.39c.7,0,1.26,.57,1.26,1.26s-.57,1.26-1.26,1.26H11.21c-.34,0-.62,.28-.62,.62v7.51c0,.34,.28,.62,.62,.62H31.87c.7,0,1.26,.57,1.26,1.26s-.57,1.26-1.26,1.26h-1.88c-.34,0-.62,.28-.62,.62v3.76c0,.34,.28,.62,.62,.62h1.88c.7,0,1.26,.57,1.26,1.26s-.57,1.26-1.26,1.26H11.21c-.34,0-.62,.28-.62,.62v7.51c0,.34,.28,.62,.62,.62H31.87c.7,0,1.26,.57,1.26,1.26s-.57,1.26-1.26,1.26h-1.88c-.34,0-.62,.28-.62,.62v3.76c0,.34,.28,.62,.62,.62h5.63c.7,0,1.26,.57,1.26,1.26s-.57,1.26-1.26,1.26H9.34Zm1.88-56.33c-.34,0-.62,.28-.62,.62v7.51c0,.34,.28,.62,.62,.62H46.89c.34,0,.62-.28,.62-.62v-7.51c0-.34-.28-.62-.62-.62H11.21Z" style="fill:#e96424;"/><path d="M15.58,52.52h0c0-.7,.56-1.26,1.26-1.26h0c.7,0,1.26,.56,1.26,1.26h0c0,.7-.56,1.26-1.26,1.26h0c-.7,0-1.26-.56-1.26-1.26Z" style="fill:#e96424;"/><path d="M15.58,14.97h0c0-.7,.56-1.26,1.26-1.26h0c.7,0,1.26,.56,1.26,1.26h0c0,.7-.56,1.26-1.26,1.26h0c-.7,0-1.26-.56-1.26-1.26Z" style="fill:#e96424;"/><path d="M20.63,14.97h0c0-.7,.56-1.26,1.26-1.26h0c.7,0,1.26,.56,1.26,1.26h0c0,.7-.56,1.26-1.26,1.26h0c-.7,0-1.26-.56-1.26-1.26Z" style="fill:#e96424;"/><path d="M25.68,14.97h0c0-.7,.56-1.26,1.26-1.26h0c.7,0,1.26,.56,1.26,1.26h0c0,.7-.56,1.26-1.26,1.26h0c-.7,0-1.26-.56-1.26-1.26Z" style="fill:#e96424;"/><path d="M20.63,33.75h0c0-.7,.56-1.26,1.26-1.26h0c.7,0,1.26,.56,1.26,1.26h0c0,.7-.56,1.26-1.26,1.26h0c-.7,0-1.26-.56-1.26-1.26Z" style="fill:#e96424;"/><path d="M25.68,33.75h0c0-.7,.56-1.26,1.26-1.26h0c.7,0,1.26,.56,1.26,1.26h0c0,.7-.56,1.26-1.26,1.26h0c-.7,0-1.26-.56-1.26-1.26Z" style="fill:#e96424;"/><path d="M52.52,59.42c-.7,0-1.26-.57-1.26-1.26v-2.22c0-.26-.16-.49-.41-.58-2-.71-3.35-2.6-3.35-4.71,0-2.77,2.25-5.02,5.02-5.02s5.02,2.25,5.02,5.02c0,2.1-1.34,3.99-3.35,4.71-.25,.09-.41,.32-.41,.58v2.22c0,.7-.57,1.26-1.26,1.26Zm0-11.27c-1.38,0-2.49,1.12-2.49,2.49s1.12,2.49,2.49,2.49,2.49-1.12,2.49-2.49-1.12-2.49-2.49-2.49Z" style="fill:#e96424;"/><path d="M52.52,66.93c-7.94,0-14.4-6.46-14.4-14.4v-13.14c0-.7,.57-1.26,1.26-1.26h3.76c.34,0,.62-.28,.62-.62v-1.88c0-4.84,3.94-8.77,8.77-8.77s8.77,3.94,8.77,8.77v1.88c0,.34,.28,.62,.62,.62h3.76c.7,0,1.26,.57,1.26,1.26v13.14c0,7.94-6.46,14.4-14.4,14.4Zm-11.27-26.29c-.34,0-.62,.28-.62,.62v11.27c0,6.55,5.33,11.88,11.88,11.88s11.88-5.33,11.88-11.88v-11.27c0-.34-.28-.62-.62-.62h-22.53Zm11.27-11.27c-3.45,0-6.25,2.8-6.25,6.25v1.88c0,.34,.28,.62,.62,.62h11.27c.34,0,.62-.28,.62-.62v-1.88c0-3.45-2.8-6.25-6.25-6.25Z" style="fill:#e96424;"/><path d="M15.58,33.75h0c0-.7,.56-1.26,1.26-1.26h0c.7,0,1.26,.56,1.26,1.26h0c0,.7-.56,1.26-1.26,1.26h0c-.7,0-1.26-.56-1.26-1.26Z" style="fill:#e96424;"/><path d="M20.63,52.52h0c0-.7,.56-1.26,1.26-1.26h0c.7,0,1.26,.56,1.26,1.26h0c0,.7-.56,1.26-1.26,1.26h0c-.7,0-1.26-.56-1.26-1.26Z" style="fill:#e96424;"/><path d="M25.68,52.52h0c0-.7,.56-1.26,1.26-1.26h0c.7,0,1.26,.56,1.26,1.26h0c0,.7-.56,1.26-1.26,1.26h0c-.7,0-1.26-.56-1.26-1.26Z" style="fill:#e96424;"/></svg>