<?xml version="1.0" encoding="UTF-8"?><svg id="uuid-71a6aea6-cd3b-4947-b86c-f344ff04fbdf" xmlns="http://www.w3.org/2000/svg" viewBox="0 0 75 75"><path d="M13.21,46.71c-1.6,0-2.9-1.3-2.9-2.9v-10.41c0-1.6,1.3-2.9,2.9-2.9H61.79c1.6,0,2.9,1.3,2.9,2.9v10.41c0,1.6-1.3,2.9-2.9,2.9H13.21Zm0-13.88c-.31,0-.57,.25-.57,.57v10.41c0,.31,.25,.57,.57,.57H61.78c.31,0,.57-.25,.57-.57v-10.41c0-.15-.05-.3-.16-.4-.11-.11-.25-.17-.4-.17H13.21Z" style="fill:#e96424;"/><path d="M17.69,38.6h0c0-.64,.52-1.17,1.17-1.17H56.15c.64,0,1.17,.52,1.17,1.17h0c0,.64-.52,1.17-1.17,1.17H18.85c-.64,0-1.17-.52-1.17-1.17Z" style="fill:#e96424;"/><path d="M13.21,67.52c-1.6,0-2.9-1.3-2.9-2.9v-10.41c0-1.6,1.3-2.9,2.9-2.9H61.79c1.6,0,2.9,1.3,2.9,2.9v10.41c0,1.6-1.3,2.9-2.9,2.9H13.21Zm0-13.88c-.31,0-.57,.25-.57,.57v10.41c0,.31,.25,.57,.57,.57H61.78c.31,0,.57-.25,.57-.57v-10.41c0-.15-.05-.3-.16-.4-.11-.11-.25-.17-.4-.17H13.21Z" style="fill:#e96424;"/><path d="M17.69,59.42h0c0-.64,.52-1.17,1.17-1.17h0c.64,0,1.17,.52,1.17,1.17h0c0,.64-.52,1.17-1.17,1.17h0c-.64,0-1.17-.52-1.17-1.17Z" style="fill:#e96424;"/><path d="M22.35,59.42h0c0-.64,.52-1.17,1.17-1.17h0c.64,0,1.17,.52,1.17,1.17h0c0,.64-.52,1.17-1.17,1.17h0c-.64,0-1.17-.52-1.17-1.17Z" style="fill:#e96424;"/><path d="M27.01,59.42h0c0-.64,.52-1.17,1.17-1.17h0c.64,0,1.17,.52,1.17,1.17h0c0,.64-.52,1.17-1.17,1.17h0c-.64,0-1.17-.52-1.17-1.17Z" style="fill:#e96424;"/><path d="M31.67,59.42h0c0-.64,.52-1.17,1.17-1.17h0c.64,0,1.17,.52,1.17,1.17h0c0,.64-.52,1.17-1.17,1.17h0c-.64,0-1.17-.52-1.17-1.17Z" style="fill:#e96424;"/><path d="M36.33,59.42h0c0-.64,.52-1.17,1.17-1.17h0c.64,0,1.17,.52,1.17,1.17h0c0,.64-.52,1.17-1.17,1.17h0c-.64,0-1.17-.52-1.17-1.17Z" style="fill:#e96424;"/><path d="M41,59.42h0c0-.64,.52-1.17,1.17-1.17h0c.64,0,1.17,.52,1.17,1.17h0c0,.64-.52,1.17-1.17,1.17h0c-.64,0-1.17-.52-1.17-1.17Z" style="fill:#e96424;"/><rect x="18.52" y="21.35" width="2.33" height="2.33" style="fill:#e96424;"/><rect x="11.58" y="21.35" width="2.33" height="2.33" style="fill:#e96424;"/><rect x="18.52" y="14.41" width="2.33" height="2.33" style="fill:#e96424;"/><rect x="18.52" y="7.48" width="2.33" height="2.33" style="fill:#e96424;"/><rect x="25.46" y="14.41" width="2.33" height="9.27" style="fill:#e96424;"/><rect x="25.46" y="7.48" width="2.33" height="2.33" style="fill:#e96424;"/><rect x="11.58" y="7.48" width="2.33" height="9.27" style="fill:#e96424;"/><rect x="32.4" y="21.35" width="2.33" height="2.33" style="fill:#e96424;"/><rect x="32.4" y="7.48" width="2.33" height="9.27" style="fill:#e96424;"/><rect x="39.34" y="21.35" width="2.33" height="2.33" style="fill:#e96424;"/><rect x="39.34" y="14.41" width="2.33" height="2.33" style="fill:#e96424;"/><rect x="39.34" y="7.48" width="2.33" height="2.33" style="fill:#e96424;"/><rect x="60.16" y="21.35" width="2.33" height="2.33" style="fill:#e96424;"/><rect x="60.16" y="14.41" width="2.33" height="2.33" style="fill:#e96424;"/><rect x="60.16" y="7.48" width="2.33" height="2.33" style="fill:#e96424;"/><rect x="46.28" y="21.35" width="2.33" height="2.33" style="fill:#e96424;"/><rect x="46.28" y="7.48" width="2.33" height="9.27" style="fill:#e96424;"/><rect x="53.22" y="14.41" width="2.33" height="9.27" style="fill:#e96424;"/><rect x="53.22" y="7.48" width="2.33" height="2.33" style="fill:#e96424;"/></svg>