<svg xmlns="http://www.w3.org/2000/svg" width="51.952" height="51.905" viewBox="0 0 51.952 51.905"><defs><style>.a{fill:#f96c0d;}</style></defs><g transform="translate(0 -0.234)"><path class="a" d="M51.68,45.874a10.354,10.354,0,0,0-4.059-4.7,18.6,18.6,0,0,0-4.782-2.482A3.683,3.683,0,0,0,38.58,33.41a14.86,14.86,0,0,0-2.509-11.18V14.7a.761.761,0,1,0-1.522,0V20.41a15,15,0,0,0-2.01-1.715A14.9,14.9,0,0,0,9.107,32.569a14.991,14.991,0,0,0,.432,2.215H4.106A2.586,2.586,0,0,1,1.522,32.2V4.339A2.586,2.586,0,0,1,4.106,1.756h27.86a2.586,2.586,0,0,1,2.583,2.583V11.66a.761.761,0,1,0,1.522,0V4.339A4.11,4.11,0,0,0,31.966.234H4.106A4.11,4.11,0,0,0,0,4.339V32.2a4.11,4.11,0,0,0,4.105,4.105h5.94a14.834,14.834,0,0,0,3.968,5.673.761.761,0,0,0,1.009-1.139A13.376,13.376,0,1,1,36.729,34.63c-.05.061-.1.124-.144.188l-4.759,6.69c-.047.065-.09.132-.131.2a13.387,13.387,0,0,1-14.327.8.761.761,0,0,0-.745,1.327,14.911,14.911,0,0,0,14.53.019,3.684,3.684,0,0,0,3.669,3.479,3.725,3.725,0,0,0,.621-.052,3.657,3.657,0,0,0,2.092-1.132,18.594,18.594,0,0,0,3.913,3.7c2.4,1.709,4.29,2.289,5.745,2.289a4.625,4.625,0,0,0,3.86-1.991,4.555,4.555,0,0,0,.627-4.273Zm-16.491-.1a2.163,2.163,0,0,1-2.123-3.387l4.759-6.69a2.149,2.149,0,0,1,1.4-.879,2.193,2.193,0,0,1,.364-.031,2.164,2.164,0,0,1,1.758,3.418L36.592,44.9a2.149,2.149,0,0,1-1.4.879Zm14.624,3.488a3.037,3.037,0,0,1-2.6,1.348,9.455,9.455,0,0,1-4.879-2,16.617,16.617,0,0,1-3.849-3.741L41.942,40a16.623,16.623,0,0,1,4.8,2.408C48.71,43.814,51.731,46.57,49.813,49.266Z" transform="translate(0 0)"/><path class="a" d="M140.152,217.2a10.914,10.914,0,0,0,1.815-.153,10.729,10.729,0,1,0-1.815.153Zm-7.518-16.143a9.254,9.254,0,1,1,2.177,12.905,9.249,9.249,0,0,1-2.177-12.905Z" transform="translate(-116.272 -175.583)"/><path class="a" d="M214.489,237.192a2.383,2.383,0,0,0,2.381-2.381v-4.96a2.381,2.381,0,1,0-4.761,0v4.96A2.383,2.383,0,0,0,214.489,237.192Zm-.859-7.341a.859.859,0,0,1,1.717,0v4.96a.859.859,0,1,1-1.717,0Z" transform="translate(-190.586 -204.18)"/><path class="a" d="M214.489,333.99a2.381,2.381,0,1,0-2.381-2.381A2.383,2.383,0,0,0,214.489,333.99Zm0-3.239a.859.859,0,1,1-.859.859A.86.86,0,0,1,214.489,330.751Z" transform="translate(-190.586 -295.612)"/><path class="a" d="M43.789,33a.761.761,0,0,0-1.076,0l-5.466,5.466a.761.761,0,1,0,1.076,1.076l5.466-5.466A.761.761,0,0,0,43.789,33Z" transform="translate(-33.266 -29.237)"/><path class="a" d="M56.989,42.722a.758.758,0,0,0,.538-.223l8.427-8.427A.761.761,0,0,0,64.878,33l-8.427,8.427a.761.761,0,0,0,.538,1.3Z" transform="translate(-50.523 -29.238)"/><path class="a" d="M264.184,80.881l-5.466,5.466a.761.761,0,1,0,1.076,1.076l5.466-5.466a.761.761,0,0,0-1.076-1.076Z" transform="translate(-232.266 -72.264)"/></g></svg>