<?xml version="1.0" encoding="UTF-8"?><svg id="uuid-e57127e6-62f9-4dbf-a99e-4a378f1d1493" xmlns="http://www.w3.org/2000/svg" viewBox="0 0 75 75"><path d="M29.8,28.9c.28,.74,.53,1.4,.79,2.04,.61,1.51,1.23,3.02,1.84,4.52,.14,.33,.28,.67,.44,.99,.23,.49,.07,.89-.3,1.22-.36,.33-.8,.31-1.16,.07-1.09-.75-2.16-1.52-3.21-2.33-2.65-2.03-5.29-4.07-7.9-6.16-.39-.31-.73-.41-1.18-.41-3.39,0-6.78,0-10.17,0-1.96,0-3.7-1.4-4.03-3.28-.1-.54-.17-1.09-.17-1.63-.01-4.82-.01-9.64-.01-14.46,0-1.4,.25-2.73,1.32-3.74,.76-.73,1.69-1.17,2.75-1.17,7.95-.01,15.9-.01,23.85,0,1.9,0,3.41,1.18,4.01,2.96,.14,.4,.15,.86,.15,1.3,0,5.24,.01,10.48,0,15.72,0,1.86-.84,3.22-2.54,3.97-.45,.2-.98,.28-1.48,.31-.8,.05-1.61,.01-2.42,.02-.17,0-.34,.02-.59,.04Zm-.78,4.51c.05-.03,.11-.07,.16-.1-.04-.23-.05-.47-.13-.68-.5-1.27-1.01-2.53-1.52-3.79-.6-1.51-.23-2.05,1.42-2.05,1.19,0,2.38-.02,3.57,.01,1.29,.04,2.24-1.05,2.23-2.19-.05-5.2-.02-10.41-.02-15.62,0-1.55-.83-2.37-2.4-2.37-7.68,0-15.36,.01-23.04-.01-1.43,0-2.45,.86-2.44,2.42,0,.86,0,1.72,0,2.58,0,4.22-.01,8.43,.02,12.65,0,.53,.11,1.1,.35,1.56,.38,.72,1.09,.96,1.9,.96,3.56,0,7.11-.02,10.67,.02,.42,0,.89,.18,1.25,.41,.59,.37,1.12,.85,1.67,1.29,1.41,1.11,2.82,2.23,4.24,3.34,.68,.53,1.38,1.04,2.07,1.57Z" style="fill:#e96424;"/><path d="M50.72,70.55c-6.12,0-12.24-.02-18.36,.02-.91,0-1.46-.68-1.46-1.45,.02-3.96-.04-7.92,.03-11.87,.06-3.37,1.55-6.08,4.22-8.12,1.03-.79,2.11-1.5,3.41-1.82,.59-.15,1.15-.41,1.73-.61,.52-.17,.97-.04,1.36,.34,1.36,1.31,2.9,2.35,4.68,2.97,1.95,.68,3.95,.92,6.02,.51,2.57-.5,4.74-1.7,6.58-3.52,.54-.53,1.19-.38,1.81-.28,2.73,.42,5.05,1.61,6.87,3.7,1.08,1.24,1.86,2.66,2.22,4.27,.2,.88,.31,1.8,.36,2.7,.1,1.84,.13,3.69,.2,5.54,.07,2.05,.14,4.1,.24,6.14,.04,.93-.44,1.49-1.37,1.49-6.18,0-12.35,0-18.53,0Zm0-2.06s0-.01,0-.02c.91,0,1.83,0,2.74,0,4.8,0,9.6,0,14.4,.02,.48,0,.67-.1,.64-.65-.16-3.67-.3-7.34-.42-11.02-.04-1.38-.46-2.65-1.15-3.82-1.35-2.31-3.44-3.62-6.01-4.2-.4-.09-.8-.15-1.19,.26-.49,.52-1.11,.93-1.71,1.33-1.67,1.09-3.49,1.83-5.47,2.16-2.32,.39-4.59,.17-6.8-.58-1.86-.64-3.5-1.66-4.99-2.93-.29-.25-.51-.3-.82-.17-1.29,.53-2.56,1.08-3.66,1.97-2.02,1.65-3.24,3.73-3.28,6.37-.05,3.57,0,7.15-.01,10.72,0,.4,.11,.55,.53,.55,5.73-.01,11.47,0,17.2,0Z" style="fill:#e96424;"/><path d="M62.59,34.94c.03,6.41-5.32,11.74-11.83,11.72-6.53-.02-11.78-5.25-11.83-11.83-.04-6.48,5.3-11.73,11.58-11.85,6.73-.14,12.21,5.42,12.08,11.96Zm-2.07-.14c.04-5.54-4.49-9.83-9.87-9.77-5.15,.05-9.95,4.27-9.62,10.45,.26,4.76,4.26,9.14,9.86,9.11,5.27-.03,9.74-4.46,9.62-9.78Z" style="fill:#e96424;"/><path d="M23.2,16.52c.07,1.45-1.09,2.45-2.38,2.42-1.4-.03-2.4-.85-2.39-2.47,0-1.42,1-2.45,2.39-2.45,1.3,0,2.47,1.12,2.38,2.5Z" style="fill:#e96424;"/><path d="M25.95,16.48c0-1.46,.99-2.45,2.42-2.45,1.33,0,2.38,1.16,2.35,2.55-.03,1.34-1.06,2.38-2.36,2.38-1.44,0-2.43-1.02-2.41-2.47Z" style="fill:#e96424;"/><path d="M10.95,16.5c-.04-1.49,.94-2.44,2.37-2.47,1.23-.03,2.32,1,2.34,2.41,.02,1.66-1.1,2.5-2.33,2.49-1.2,0-2.42-.66-2.38-2.44Z" style="fill:#e96424;"/></svg>