<svg xmlns="http://www.w3.org/2000/svg" width="47.188" height="46.544" viewBox="0 0 47.188 46.544"><defs><style>.a{fill:#f96c0d;}</style></defs><g transform="translate(0 -3.495)"><path class="a" d="M78.893,108.06a.922.922,0,0,0-.858-.586h0a.922.922,0,0,0-.858.586l-2.721,6.954a.922.922,0,1,0,1.717.672l.462-1.179h2.8l.461,1.179a.922.922,0,0,0,1.717-.671Zm-1.539,4.6.68-1.737.679,1.737Z" transform="translate(-67.535 -94.396)"/><path class="a" d="M169.416,116.272a.922.922,0,0,0,.922-.922V108.4a.922.922,0,1,0-1.843,0v6.954A.922.922,0,0,0,169.416,116.272Z" transform="translate(-152.965 -94.396)"/><path class="a" d="M43.787,24.879a3.153,3.153,0,0,0-3.01,2.23H38.771l-.764-3.3a.932.932,0,0,0-.9-.714H35.277a14.465,14.465,0,0,0,.69-3.822h5.065a3.151,3.151,0,1,0,0-1.843H35.964a16,16,0,0,0-.659-3.822h1.8a.932.932,0,0,0,.9-.714l.764-3.3h2.006a3.149,3.149,0,1,0,0-1.843H38.038a.921.921,0,0,0-.885.668c0,.014-.009.03-.013.047l-.764,3.3h-1.77a14.052,14.052,0,0,0-2.538-3.77.922.922,0,1,0-1.343,1.262,12.187,12.187,0,0,1,1.818,2.507H29.609a.922.922,0,0,0,0,1.843h3.755a13.942,13.942,0,0,1,.754,3.822H28.424a.922.922,0,0,0,0,1.843h5.7a12.381,12.381,0,0,1-.8,3.822H29.609a.922.922,0,0,0,0,1.843h2.817a30.745,30.745,0,0,1-1.911,2.814,17.168,17.168,0,0,0-3.539,6.944h-10.9A13.3,13.3,0,0,0,14.541,30.7a1.858,1.858,0,0,0,1.384-1.793v-.265a10.974,10.974,0,0,0,2.124-.882l.189.189a1.858,1.858,0,0,0,2.624,0l1.85-1.851a1.858,1.858,0,0,0,0-2.624l-.189-.189a10.991,10.991,0,0,0,.882-2.126h.264a1.858,1.858,0,0,0,1.856-1.856V16.689a1.858,1.858,0,0,0-1.856-1.856H23.4a10.993,10.993,0,0,0-.882-2.126l.189-.189a1.859,1.859,0,0,0,0-2.624l-1.85-1.851a1.858,1.858,0,0,0-2.624,0l-.189.189a10.971,10.971,0,0,0-2.124-.882V7.084a1.85,1.85,0,0,0-.057-.45A12.325,12.325,0,0,1,21.515,5.34h.025a12.118,12.118,0,0,1,2.695.268.922.922,0,1,0,.386-1.8A13.935,13.935,0,0,0,21.528,3.5a14.182,14.182,0,0,0-7.043,1.78,1.851,1.851,0,0,0-.416-.049H11.454A1.858,1.858,0,0,0,9.6,7.084v.265a10.971,10.971,0,0,0-2.124.882l-.189-.189a1.858,1.858,0,0,0-2.624,0L2.812,9.893a1.859,1.859,0,0,0,0,2.624L3,12.707a10.993,10.993,0,0,0-.882,2.126H1.856A1.858,1.858,0,0,0,0,16.689v2.617a1.858,1.858,0,0,0,1.856,1.856h.264A10.991,10.991,0,0,0,3,23.288l-.189.189a1.858,1.858,0,0,0,0,2.624l1.85,1.851a1.858,1.858,0,0,0,2.624,0l.189-.189a10.974,10.974,0,0,0,2.124.882v.265a1.858,1.858,0,0,0,1.856,1.856h.962a12.19,12.19,0,0,1,1.893,4.49,2.955,2.955,0,0,0-.407,4.434,2.956,2.956,0,0,0,1.43,4.91v1.842a3.6,3.6,0,0,0,3.594,3.6h5.2a3.6,3.6,0,0,0,3.6-3.6V44.6a2.957,2.957,0,0,0,1.428-4.91,2.956,2.956,0,0,0-.408-4.436A15.235,15.235,0,0,1,32,28.839a26.285,26.285,0,0,0,2.519-3.905h1.857l.764,3.3a.931.931,0,0,0,.9.714h2.739a3.149,3.149,0,1,0,3.01-4.073Zm.254-7.839a1.307,1.307,0,1,1-1.3,1.308A1.308,1.308,0,0,1,44.041,17.04Zm-.254-9.683a1.306,1.306,0,1,1-1.3,1.306A1.308,1.308,0,0,1,43.787,7.357ZM14.082,27.935v.976a.017.017,0,0,1-.012.013H11.454a.017.017,0,0,1-.012-.013v-.976a.922.922,0,0,0-.719-.9,9.156,9.156,0,0,1-2.9-1.206.921.921,0,0,0-1.146.127l-.693.693a.013.013,0,0,1-.017,0L4.116,24.8a.017.017,0,0,1,0-.018l.693-.693a.922.922,0,0,0,.126-1.145,9.173,9.173,0,0,1-1.2-2.9.922.922,0,0,0-.9-.719H1.856a.017.017,0,0,1-.012-.013V16.689a.017.017,0,0,1,.012-.013h.975a.922.922,0,0,0,.9-.719,9.174,9.174,0,0,1,1.2-2.9.922.922,0,0,0-.126-1.145l-.693-.693a.017.017,0,0,1,0-.018l1.85-1.851a.013.013,0,0,1,.017,0l.693.693a.922.922,0,0,0,1.146.127,9.158,9.158,0,0,1,2.9-1.206.922.922,0,0,0,.719-.9V7.084a.017.017,0,0,1,.012-.013h2.615a.017.017,0,0,1,.012.013V8.06a.922.922,0,0,0,.719.9,9.154,9.154,0,0,1,2.9,1.206.922.922,0,0,0,1.146-.127l.693-.693a.013.013,0,0,1,.017,0l1.85,1.851a.017.017,0,0,1,0,.018l-.693.693a.922.922,0,0,0-.126,1.145,9.174,9.174,0,0,1,1.2,2.9.922.922,0,0,0,.9.719h.975a.017.017,0,0,1,.012.013v2.617a.017.017,0,0,1-.012.013h-.975a.922.922,0,0,0-.9.719,9.173,9.173,0,0,1-1.2,2.9.922.922,0,0,0,.126,1.145l.693.693a.017.017,0,0,1,0,.018l-1.85,1.851a.013.013,0,0,1-.017,0l-.693-.693A.922.922,0,0,0,17.7,25.83a9.156,9.156,0,0,1-2.9,1.206.922.922,0,0,0-.719.9Zm11.8,18.509A1.755,1.755,0,0,1,24.127,48.2h-5.2a1.753,1.753,0,0,1-1.75-1.752V44.689h8.7v1.755Zm1.129-3.6H16.046a1.116,1.116,0,1,1,0-2.232H27.01a1.116,1.116,0,0,1,0,2.232Zm0-4.076H16.046a1.117,1.117,0,1,1,0-2.235H27.01a1.117,1.117,0,0,1,0,2.235Zm16.777-9.434a1.307,1.307,0,1,1,1.307-1.306A1.306,1.306,0,0,1,43.787,29.336Z"/><path class="a" d="M296.372,23.733l.005,0a.918.918,0,0,0,1.234-.414.923.923,0,1,0-1.239.411Z" transform="translate(-268.594 -16.788)"/></g></svg>