<?xml version="1.0" encoding="UTF-8"?><svg id="uuid-77306c4a-102d-4e9c-a608-2c205302fca8" xmlns="http://www.w3.org/2000/svg" viewBox="0 0 75 75"><path d="M41.09,6.95c-.48,0-.93,0-1.37,0-1.75,0-3.5,0-5.25,0-.47,0-.72,.04-.82,.63-.15,.93-.47,1.83-.76,2.73-.22,.71-.41,1.46-.77,2.1-.84,1.5-2.2,2.31-3.87,2.65-1.42,.28-2.69-.15-3.9-.82-1.12-.62-2.22-1.29-3.42-2-.98,1.01-1.97,2.03-2.96,3.04-.61,.63-1.21,1.27-1.85,1.86-.24,.23-.23,.4-.08,.65,.68,1.17,1.38,2.32,2,3.51,.57,1.08,.74,2.24,.51,3.48-.26,1.41-.92,2.52-2.02,3.39-.64,.51-1.36,.85-2.18,1.03-.86,.19-1.7,.46-2.55,.7-.09,.03-.18,.06-.27,.09q-1.04,.32-1.04,1.39c0,1.85,0,3.69,0,5.54,0,.17,0,.34,0,.55h-2.13c0-.48,0-.97,0-1.45,0-1.86,.03-3.72,0-5.58-.02-1.36,.84-2.15,2.06-2.4,.94-.19,1.85-.51,2.78-.74,.75-.19,1.5-.38,2.1-.91,1.16-1.03,1.6-2.65,.8-4.11-.67-1.22-1.39-2.42-2.09-3.63-.57-.99-.47-2,.33-2.81,1.67-1.68,3.34-3.36,5.02-5.03,.88-.87,1.95-.87,3.19-.12,1.2,.72,2.38,1.5,3.66,2.03,1.68,.7,3.71-.16,4.3-2.04,.44-1.41,.76-2.86,1.17-4.28,.22-.77,1.04-1.57,1.96-1.56,2.53,.02,5.06,0,7.59,0,.88,0,1.68,.64,1.9,1.49,.38,1.43,.72,2.87,1.17,4.27,.51,1.55,1.97,2.47,3.59,2.3,.89-.09,1.58-.58,2.31-.98,.91-.5,1.76-1.1,2.69-1.56,.84-.42,1.76-.38,2.54,.38,1.47,1.44,2.9,2.93,4.35,4.39,.48,.49,.99,.93,1.25,1.62,.27,.7,.08,1.28-.23,1.86-.69,1.29-1.47,2.54-2.11,3.86-.82,1.69,.08,3.86,1.82,4.42,1.36,.43,2.76,.75,4.12,1.16,1.19,.36,1.86,.78,1.93,2.3,.1,2.32,.02,4.64,.01,6.97,0,.04-.03,.09-.05,.15h-2.18v-7.24c-.98-.26-1.91-.55-2.86-.76-1.87-.41-3.52-1.14-4.52-2.89-.55-.97-.72-2.01-.69-3.13,.04-1.3,.66-2.34,1.27-3.4,.46-.8,.97-1.57,1.43-2.37,.06-.11,.04-.36-.04-.44-1.59-1.59-3.2-3.17-4.8-4.76-.19-.19-.27-.18-.5-.05-1.33,.77-2.64,1.57-4.02,2.24-1.38,.67-2.81,.6-4.22,0-1.98-.85-3-2.41-3.42-4.47-.22-1.08-.58-2.13-.89-3.25Z" style="fill:#e96424;"/><path d="M48.99,68.19c-.31-.77-.56-1.39-.83-2.05,.57-.3,1.08-.63,1.64-.85,.61-.24,.83-.61,.79-1.26-.09-1.41,0-2.84-.2-4.23-.32-2.26-1.78-3.76-3.68-4.84-.95-.54-1.98-.92-2.99-1.35-.42-.18-.86-.2-1.3,0-1.14,.53-2.35,.78-3.59,.95-2.24,.3-4.36-.14-6.43-.98-.29-.12-.69-.13-.99-.04-1.92,.62-3.73,1.45-5.17,2.92-1.25,1.28-1.84,2.82-1.85,4.6-.01,1.11,0,2.23,0,3.34,0,.3,.06,.51,.36,.65,.62,.3,1.23,.63,1.84,.96,.07,.04,.12,.09,.2,.14-.27,.65-.54,1.29-.84,2.02-1.09-.62-2.14-1.19-3.17-1.81-.35-.21-.53-.54-.52-1,.02-1.48,.02-2.96,0-4.44-.02-2.47,.94-4.53,2.68-6.22,1.65-1.6,3.65-2.59,5.85-3.21,.3-.08,.6-.2,.9-.27,.58-.14,1.08,.12,1.58,.35,1.42,.66,2.92,.92,4.47,.88,1.59-.04,3.1-.42,4.54-1.13,.31-.15,.76-.17,1.1-.08,2.69,.75,5.2,1.85,7.13,3.97,1.07,1.18,1.75,2.59,2.08,4.14,.12,.54,.11,1.1,.12,1.66,.01,1.38,0,2.77,0,4.15,0,.59-.2,1.03-.72,1.32-.98,.55-1.95,1.1-2.99,1.68Z" style="fill:#e96424;"/><path d="M37.51,33.35c5.12,.12,8.6,4.15,8.46,8.68-.15,4.99-4.05,8.5-8.86,8.3-4.8-.2-8.19-3.96-8.14-8.54,.06-5.11,4.12-8.44,8.54-8.45Zm-6.39,8.48c-.01,3.49,2.82,6.37,6.35,6.35,3.55-.02,6.32-2.79,6.32-6.31,0-3.6-2.81-6.31-6.28-6.36-3.52-.05-6.38,2.84-6.4,6.32Z" style="fill:#e96424;"/><path d="M51.78,31.65c-.67,.1-1.32,.2-2.02,.3-.1-.34-.23-.68-.3-1.03-.36-1.67-1.13-3.15-2.14-4.51-1.06-1.43-2.4-2.56-3.96-3.4-1.18-.64-2.43-1.05-3.77-1.3-1.54-.28-3.08-.28-4.58,.06-1.16,.26-2.31,.7-3.38,1.24-2.17,1.08-3.8,2.78-4.99,4.89-.65,1.14-1.1,2.36-1.33,3.66-.06,.35-.19,.44-.55,.35-.36-.09-.75-.1-1.13-.14-.54-.06-.57-.13-.46-.66,.36-1.69,.96-3.28,1.86-4.76,1.14-1.87,2.6-3.45,4.48-4.59,1.08-.65,2.21-1.26,3.4-1.67,1.79-.61,3.65-.8,5.56-.67,1.97,.13,3.82,.64,5.56,1.51,2.34,1.18,4.21,2.89,5.65,5.09,.97,1.48,1.57,3.1,2.01,4.8,.06,.24,.05,.5,.08,.84Z" style="fill:#e96424;"/><path d="M46.92,47.64c1.32-1.09,2.81-1.64,4.35-2.11,.57-.17,1.07,.16,1.57,.37,1.44,.59,2.92,.66,4.42,.27,.54-.14,1.05-.42,1.59-.59,.26-.08,.58-.12,.84-.05,1.9,.55,3.69,1.3,5.09,2.77,1.04,1.09,1.63,2.37,1.74,3.86,.08,1.03,.03,2.06,.1,3.09,.06,.96-.39,1.58-1.19,1.96-.99,.46-1.98,.95-3.02,1.26-1.2,.36-2.45,.56-3.69,.77-.87,.15-1.76,.21-2.65,.29-.61,.05-.61,.02-.61-.57,0-.51,0-1.02,0-1.58,.47-.04,.92-.12,1.37-.12,1.32,0,2.6-.25,3.88-.54,1.16-.26,2.25-.66,3.3-1.19,.24-.12,.34-.28,.33-.56-.02-.78-.02-1.56,0-2.34,.03-1.68-.87-2.82-2.19-3.67-.66-.43-1.42-.72-2.14-1.06-.37-.17-.74-.14-1.14,.01-1.59,.62-3.24,.85-4.93,.49-.7-.15-1.38-.4-2.08-.59-.62-.17-1.15,.15-1.66,.38-.58,.26-1.12,.63-1.69,.93-.11,.06-.35,.03-.43-.05-.4-.45-.77-.93-1.18-1.44Z" style="fill:#e96424;"/><path d="M28,47.63c-.41,.52-.81,1.04-1.24,1.53-.05,.05-.26,0-.37-.05-.84-.41-1.66-.86-2.52-1.24-.25-.11-.62-.11-.87-.01-1.7,.67-3.44,.92-5.24,.51-.61-.14-1.2-.35-1.81-.49-.27-.06-.59-.13-.83-.05-1.37,.48-2.68,1.07-3.63,2.24-.62,.77-.96,1.65-.98,2.64-.01,.75-.02,1.5,0,2.24,0,.17,.12,.43,.26,.49,.7,.34,1.4,.72,2.14,.92,1.3,.35,2.63,.64,3.97,.84,.8,.12,1.64,.02,2.5,.02v2.38c-1.2-.15-2.32-.28-3.45-.42-.53-.07-1.07-.15-1.6-.26-1.34-.28-2.69-.58-3.91-1.23-.46-.24-.9-.51-1.35-.76-.49-.27-.72-.67-.7-1.24,.02-.99,.01-1.97,0-2.96-.02-2.29,1.03-4.03,2.82-5.37,1.2-.9,2.58-1.41,3.99-1.84,.59-.18,1.09,.19,1.62,.35,.67,.21,1.36,.39,2.06,.47,1.38,.15,2.7-.13,3.94-.78,.22-.11,.54-.12,.79-.05,1.57,.45,3.09,1.02,4.4,2.11Z" style="fill:#e96424;"/><path d="M19.41,45.51c-3.55,.04-6.3-2.85-6.31-6.29,0-3.39,2.8-6.52,6.73-6.3,3.12,.17,5.9,2.72,5.93,6.3,.03,3.46-2.83,6.38-6.35,6.3Zm4.18-6.32c0-2.17-1.83-4.15-4.19-4.11-2.31,.04-4.13,1.89-4.11,4.14,.02,2.39,1.85,4.17,4.18,4.16,2.35-.02,4.14-1.9,4.12-4.18Z" style="fill:#e96424;"/><path d="M61.76,39.21c.12,3.56-2.91,6.13-5.8,6.31-4.15,.25-6.7-3.04-6.81-5.99-.14-3.87,2.91-6.44,5.95-6.63,3.74-.23,6.81,2.95,6.65,6.31Zm-6.27-4.13c-2.31-.04-4.18,1.87-4.16,4.15,.01,2.29,1.82,4.15,4.13,4.14,2.39,0,4.15-1.8,4.17-4.13,.02-2.31-1.82-4.19-4.14-4.16Z" style="fill:#e96424;"/><path d="M27.81,62.15c.72-.04,1.41-.08,2.17-.12,0,.21,0,.38,0,.54,.06,1.41,.13,2.82,.19,4.23,.01,.29,.16,.42,.43,.47,1.18,.18,2.36,.46,3.55,.54,1.6,.1,3.2,.08,4.8,.06,.96-.01,1.93-.11,2.89-.21,.84-.09,1.69-.23,2.52-.4,.16-.03,.37-.31,.38-.48,.07-1.06,.08-2.12,.12-3.19,.02-.43,.04-.86,.11-1.28,.02-.11,.22-.26,.33-.26,.6,.02,1.2,.07,1.85,.12-.04,.72-.09,1.44-.12,2.17-.06,1.19-.12,2.38-.16,3.57-.02,.6-.23,.97-.81,1.12-1.13,.28-2.26,.56-3.41,.72-2.12,.3-4.25,.53-6.4,.38-1.59-.11-3.18-.33-4.76-.55-.89-.12-1.76-.35-2.63-.53-.51-.11-.73-.48-.78-.94-.07-.63-.08-1.27-.11-1.9-.06-1.33-.11-2.66-.16-4.04Z" style="fill:#e96424;"/></svg>