<?xml version="1.0" encoding="UTF-8"?><svg id="uuid-7d6a754f-b0c8-4e66-ab9d-25006baffc47" xmlns="http://www.w3.org/2000/svg" viewBox="0 0 75 75"><path d="M17.85,49.44c-1.29,0-2.35-1.05-2.35-2.35v-8.42c0-1.29,1.05-2.35,2.35-2.35H57.15c1.29,0,2.35,1.05,2.35,2.35v8.42c0,1.29-1.05,2.35-2.35,2.35H17.85Zm0-11.23c-.25,0-.46,.21-.46,.46v8.42c0,.25,.21,.46,.46,.46H57.15c.25,0,.46-.21,.46-.46v-8.42c0-.12-.04-.24-.13-.33-.09-.09-.2-.13-.33-.13H17.85Z" style="fill:#e96424;"/><path d="M21.47,42.89h0c0-.52,.42-.94,.94-.94h30.18c.52,0,.94,.42,.94,.94h0c0,.52-.42,.94-.94,.94H22.41c-.52,0-.94-.42-.94-.94Z" style="fill:#e96424;"/><path d="M17.85,66.29c-1.29,0-2.35-1.05-2.35-2.35v-8.42c0-1.29,1.05-2.35,2.35-2.35H57.15c1.29,0,2.35,1.05,2.35,2.35v8.42c0,1.29-1.05,2.35-2.35,2.35H17.85Zm0-11.23c-.25,0-.46,.21-.46,.46v8.42c0,.25,.21,.46,.46,.46H57.15c.25,0,.46-.21,.46-.46v-8.42c0-.12-.04-.24-.13-.33-.09-.09-.2-.14-.33-.14H17.85Z" style="fill:#e96424;"/><path d="M21.47,59.73h0c0-.52,.42-.94,.94-.94h0c.52,0,.94,.42,.94,.94h0c0,.52-.42,.94-.94,.94h0c-.52,0-.94-.42-.94-.94Z" style="fill:#e96424;"/><path d="M25.24,59.73h0c0-.52,.42-.94,.94-.94h0c.52,0,.94,.42,.94,.94h0c0,.52-.42,.94-.94,.94h0c-.52,0-.94-.42-.94-.94Z" style="fill:#e96424;"/><path d="M29.01,59.73h0c0-.52,.42-.94,.94-.94h0c.52,0,.94,.42,.94,.94h0c0,.52-.42,.94-.94,.94h0c-.52,0-.94-.42-.94-.94Z" style="fill:#e96424;"/><path d="M32.78,59.73h0c0-.52,.42-.94,.94-.94h0c.52,0,.94,.42,.94,.94h0c0,.52-.42,.94-.94,.94h0c-.52,0-.94-.42-.94-.94Z" style="fill:#e96424;"/><path d="M36.56,59.73h0c0-.52,.42-.94,.94-.94h0c.52,0,.94,.42,.94,.94h0c0,.52-.42,.94-.94,.94h0c-.52,0-.94-.42-.94-.94Z" style="fill:#e96424;"/><path d="M40.33,59.73h0c0-.52,.42-.94,.94-.94h0c.52,0,.94,.42,.94,.94h0c0,.52-.42,.94-.94,.94h0c-.52,0-.94-.42-.94-.94Z" style="fill:#e96424;"/><path d="M49.87,8.71H25.13c-1.44,0-2.61,1.17-2.61,2.61v21.98c0,.52,.42,.94,.94,.94h0c.52,0,.94-.42,.94-.94V11.32c0-.4,.33-.72,.72-.72h24.74c.4,0,.72,.33,.72,.72v21.22c0,.52,.42,.94,.94,.94s.94-.42,.94-.94V11.32c0-1.44-1.17-2.61-2.61-2.61Z" style="fill:#e96424;"/><path d="M34.69,16.21c-.52,0-.94-.42-.94-.94s.42-.94,.94-.94h5.61c.52,0,.94,.42,.94,.94s-.42,.94-.94,.94h-5.61Z" style="fill:#e96424;"/><path d="M30.48,21.83c-.52,0-.94-.42-.94-.94s.42-.94,.94-.94h14.04c.52,0,.94,.42,.94,.94s-.42,.94-.94,.94h-14.04Z" style="fill:#e96424;"/><path d="M30.48,27.44c-.52,0-.94-.42-.94-.94s.42-.94,.94-.94h8.42c.52,0,.94,.42,.94,.94s-.42,.94-.94,.94h-8.42Z" style="fill:#e96424;"/><path d="M30.48,33.06c-.52,0-.94-.42-.94-.94s.42-.94,.94-.94h2.81c.52,0,.94,.42,.94,.94s-.42,.94-.94,.94h-2.81Z" style="fill:#e96424;"/></svg>