<?xml version="1.0" encoding="UTF-8"?><svg id="uuid-eef63543-e6ee-410c-ae9b-62ab5fa91144" xmlns="http://www.w3.org/2000/svg" viewBox="0 0 75 75"><path d="M37.13,41.93c-2.73,0-4.95-2.22-4.95-4.95s2.22-4.95,4.95-4.95,4.95,2.22,4.95,4.95-2.22,4.95-4.95,4.95Zm0-7.9c-1.63,0-2.95,1.32-2.95,2.95s1.32,2.95,2.95,2.95,2.95-1.32,2.95-2.95-1.32-2.95-2.95-2.95Z" style="fill:#e96424;"/><path d="M40.66,53.55c-.38,0-.73-.21-.9-.57l-1.53-3.21c-.94,.08-1.89,.05-2.83-.08l-1.7,3.13c-.25,.46-.81,.65-1.29,.44l-4.2-1.87c-.48-.21-.71-.76-.54-1.25l1.19-3.35c-.73-.61-1.38-1.3-1.95-2.05l-3.41,1.01c-.5,.15-1.03-.11-1.22-.6l-1.65-4.29c-.19-.49,.03-1.04,.5-1.26l3.21-1.53c-.08-.94-.06-1.89,.08-2.83l-3.13-1.7c-.46-.25-.65-.81-.44-1.29l1.87-4.2c.21-.48,.75-.71,1.25-.54l3.35,1.19c.61-.73,1.3-1.38,2.06-1.96l-1.01-3.41c-.15-.5,.11-1.03,.6-1.22l4.29-1.65c.48-.19,1.04,.03,1.26,.5l1.53,3.21c.94-.08,1.89-.05,2.83,.08l1.7-3.13c.25-.46,.81-.65,1.29-.44l4.2,1.87c.48,.21,.71,.76,.54,1.25l-1.19,3.35c.73,.61,1.38,1.3,1.96,2.06l3.41-1.01c.5-.15,1.03,.11,1.22,.6l1.65,4.29c.19,.49-.03,1.04-.5,1.26l-3.21,1.53c.08,.94,.05,1.89-.08,2.84l3.13,1.7c.46,.25,.65,.81,.44,1.29l-1.87,4.2c-.21,.48-.76,.71-1.25,.54l-3.35-1.19c-.61,.73-1.3,1.38-2.05,1.96l1.01,3.41c.15,.5-.11,1.03-.6,1.22l-4.29,1.65c-.12,.04-.24,.07-.36,.07Zm-1.84-5.85c.38,0,.73,.22,.9,.57l1.44,3.02,2.57-.99-.95-3.2c-.12-.42,.04-.87,.4-1.12,1.01-.68,1.9-1.52,2.63-2.5,.26-.35,.72-.49,1.13-.34l3.15,1.12,1.12-2.51-2.94-1.6c-.39-.21-.59-.64-.5-1.07,.24-1.2,.27-2.43,.1-3.63-.06-.43,.16-.86,.56-1.04l3.02-1.44-.99-2.57-3.21,.95c-.42,.12-.87-.04-1.12-.4-.68-1.01-1.52-1.9-2.5-2.63-.35-.26-.49-.72-.34-1.13l1.12-3.15-2.51-1.12-1.6,2.94c-.21,.39-.65,.59-1.07,.5-1.21-.24-2.43-.27-3.63-.1-.44,.06-.86-.16-1.04-.56l-1.44-3.02-2.57,.99,.95,3.21c.12,.42-.04,.87-.4,1.12-1.01,.68-1.9,1.52-2.63,2.5-.26,.35-.72,.49-1.13,.34l-3.15-1.12-1.12,2.51,2.94,1.6c.38,.21,.59,.64,.5,1.07-.24,1.21-.27,2.43-.1,3.63,.06,.43-.16,.86-.56,1.04l-3.02,1.44,.99,2.57,3.21-.95c.42-.12,.87,.04,1.12,.4,.68,1.01,1.52,1.9,2.5,2.63,.35,.26,.49,.72,.34,1.13l-1.12,3.15,2.51,1.12,1.6-2.94c.21-.39,.64-.59,1.07-.5,1.21,.24,2.43,.27,3.63,.1,.05,0,.1,0,.14,0Z" style="fill:#e96424;"/><path d="M51.62,18.22c-3.46,0-6.27-2.81-6.27-6.27s2.81-6.27,6.27-6.27,6.27,2.81,6.27,6.27-2.81,6.27-6.27,6.27Zm0-10.53c-2.35,0-4.27,1.91-4.27,4.27s1.91,4.27,4.27,4.27,4.27-1.91,4.27-4.27-1.91-4.27-4.27-4.27Z" style="fill:#e96424;"/><path d="M38.14,18.54h-2v-6.58c0-.55,.45-1,1-1h9.22v2h-8.22v5.58Z" style="fill:#e96424;"/><path d="M59.52,61.68c-.26,0-.51-.1-.71-.29l-6.58-6.58c-.19-.19-.29-.44-.29-.71s.11-.52,.29-.71l6.58-6.58c.39-.39,1.02-.39,1.41,0l6.58,6.58c.19,.19,.29,.44,.29,.71s-.11,.52-.29,.71l-6.58,6.58c-.2,.2-.45,.29-.71,.29Zm-5.17-7.58l5.17,5.17,5.17-5.17-5.17-5.17-5.17,5.17Z" style="fill:#e96424;"/><path d="M23.97,66.95c-.18,0-.37-.05-.53-.15l-10.53-6.58c-.29-.18-.47-.5-.47-.85s.18-.67,.47-.85l10.53-6.58c.31-.19,.7-.2,1.01-.03,.32,.18,.52,.51,.52,.88v13.17c0,.36-.2,.7-.52,.88-.15,.08-.32,.12-.48,.12Zm-8.65-7.58l7.65,4.78v-9.56l-7.65,4.78Z" style="fill:#e96424;"/><path d="M20.02,26.13H9.48c-.55,0-1-.45-1-1V14.59c0-.55,.45-1,1-1h10.53c.55,0,1,.45,1,1v10.53c0,.55-.45,1-1,1Zm-9.53-2h8.53V15.59H10.48v8.53Z" style="fill:#e96424;"/><path d="M60.52,47.51h-2v-9.53h-4.27v-2h5.27c.55,0,1,.45,1,1v10.53Z" style="fill:#e96424;"/><path d="M20.02,37.98h-5.27c-.55,0-1-.45-1-1v-11.85h2v10.85h4.27v2Z" style="fill:#e96424;"/><path d="M37.14,61.68h-13.17v-2h12.17v-4.27h2v5.27c0,.55-.45,1-1,1Z" style="fill:#e96424;"/></svg>