<?xml version="1.0" encoding="UTF-8"?><svg id="uuid-b07190ce-c76d-463a-ae09-6b016e338183" xmlns="http://www.w3.org/2000/svg" viewBox="0 0 75 75"><g><path d="M50.12,50.28h0m4.88,.89h4.71c0,2.21,0,4.42,0,6.64h-1.68s-1.57,0-1.57,0h-1.57s-.18,0-.18,0h-1.42s-1.42,0-1.42,0h-1.74c0-2.21,0-4.42,0-6.64h4.88m0-1.4c-1.9,0-3.8,0-5.7,0-.48,0-.58,.09-.58,.57,0,2.77,0,5.54,0,8.31,0,.45,.11,.56,.57,.56,.86,0,1.71,0,2.57,0,.95,0,1.9,0,2.85,0h.18c1.05,0,2.1,0,3.14,0,.83,0,1.66,0,2.48,0,.49,0,.59-.09,.59-.59,0-2.75,0-5.5,0-8.25,0-.5-.09-.59-.58-.59-1.84,0-3.68,0-5.52,0h0Z" style="fill:#ea6423;"/><path d="M51.62,50.88c-.13,0-.42-.02-.63-.24-.23-.24-.22-.56-.21-.66,.01-.25,0-.51,0-.76,0-.48-.02-.97,.08-1.48,.36-1.9,2.03-3.29,3.97-3.31,.02,0,.04,0,.05,0,2.09,0,3.74,1.36,4.11,3.41,.1,.57,.08,1.13,.07,1.68,0,.22-.01,.44-.01,.66,0,.25-.1,.41-.19,.5-.2,.2-.47,.2-.58,.2h-3.36s-.88,0-.88,0c-.79,0-1.58,0-2.37,0,0,0-.02,0-.03,0Zm3.26-5.41s-.03,0-.04,0c-1.44,.02-2.68,1.05-2.95,2.46-.08,.4-.07,.82-.06,1.26,0,.21,0,.42,0,.63,.75,0,1.47,0,2.2,0h2.61s1.36,0,1.36,0c0-.12,0-.23,0-.35,.02-.51,.03-1-.05-1.46-.28-1.55-1.49-2.55-3.08-2.55Z" style="fill:#ea6423;"/></g><g><path d="M21.48,7.36h-2.54s-2.54,0-2.54,0h-4.88c-2.17,0-3.37,1.19-3.37,3.35,0,5.06,0,10.13,0,15.19v6.17s0,6.13,0,6.13c0,5.08,0,10.15,0,15.23,0,2.09,1.23,3.34,3.3,3.34,5.3,0,10.6,0,15.9,0,4.93,0,9.86,0,14.79,0-.23-1.04-.35-2.11-.36-3.23-.02-3.63,0-7.26,0-10.89,0-.84,.24-1.17,1.02-1.43,1.16-.39,2.29-.84,3.4-1.37,.02-.01,.15-.08,.34-.18,0-5.89,0-11.79,.01-17.68,0-.24-.03-.29-.18-.44-4.76-4.73-9.46-9.43-13.98-13.98-.18-.18-.26-.21-.51-.21v0c-3.47,0-6.93,.01-10.4,.01Z" style="fill:none;"/><path d="M46.54,53.43v-8.85c0-1.14,0-2.27,0-3.41-1.23,.6-2.37,1.13-2.9,1.3-.27,.09-.37,.22-.37,.51,.02,3.78-.03,7.55,.04,11.33,.02,.84,.13,1.64,.32,2.43,1.85-.15,2.91-1.33,2.91-3.31Z" style="fill:none;"/><path d="M48.54,53.43c0,2.84-1.65,4.83-4.25,5.25,.44,.96,1.01,1.87,1.74,2.71,2.47,2.87,5.45,5.05,8.89,6.62,.24,.11,.46,.16,.73,.03,3.59-1.65,6.7-3.92,9.21-6.98,1.58-1.93,2.41-4.2,2.46-6.68,.07-3.81,.03-7.61,.04-11.42,0-.28-.11-.39-.36-.48-2.24-.75-4.33-1.82-6.37-3-3.47-2-6.97-2.03-10.48-.1-.14,.08-.28,.17-.43,.21-.34,.17-.74,.37-1.17,.59,0,4.42,0,8.83,0,13.25Z" style="fill:none;"/><path d="M43.27,42.99c0-.29,.1-.42,.37-.51,.53-.17,1.67-.7,2.9-1.3,0-.5,0-1.01,0-1.51-.19,.1-.32,.17-.34,.18-1.1,.53-2.24,.99-3.4,1.37-.78,.26-1.02,.59-1.02,1.43,0,3.63-.02,7.26,0,10.89,0,1.12,.13,2.19,.36,3.23,.36,0,.73,0,1.09,0,.14,0,.26-.02,.39-.03-.19-.78-.3-1.59-.32-2.43-.07-3.77-.02-7.55-.04-11.33Z" style="fill:#ea6423;"/><path d="M48.84,39.04c.07,.34,.31,.52,.64,.58,.09,.01,.16,0,.24-.02,.39-.19,.71-.36,.92-.46,.45-.22,.69-.51,.51-.9-.18-.39-.64-.65-1.1-.46-.28,.14-.55,.29-.82,.45-.31,.19-.46,.46-.38,.81Z" style="fill:#ea6423;"/><path d="M49.72,39.6c-.08,.02-.15,.03-.24,.02-.33-.05-.57-.24-.64-.58-.07-.36,.07-.63,.38-.81,.27-.16,.54-.31,.82-.45,0,0,0,0,0,0-.06,.03-.73,.39-1.49,.8,0,.54,0,1.07,0,1.61,.43-.21,.83-.42,1.17-.59Z" style="fill:#ea6423;"/><path d="M68.84,48.75c0-2.32,0-4.24,0-6.16,0-.73-.22-1.09-.85-1.3-2.46-.82-4.74-1.99-6.98-3.27-2.52-1.45-5.23-1.83-8.07-1.26-1.02,.21-1.97,.55-2.89,1.02,.46-.18,.92,.07,1.1,.46,.18,.39-.05,.68-.51,.9-.21,.1-.53,.26-.92,.46,.15-.04,.29-.13,.43-.21,3.51-1.93,7.01-1.91,10.48,.1,2.04,1.18,4.13,2.24,6.37,3,.25,.08,.36,.19,.36,.48-.02,3.81,.03,7.62-.04,11.42-.05,2.48-.88,4.75-2.46,6.68-2.5,3.06-5.62,5.34-9.21,6.98-.27,.12-.48,.08-.73-.03-3.43-1.58-6.42-3.76-8.89-6.62-.72-.84-1.3-1.75-1.74-2.71-.34,.05-.69,.09-1.05,.09-.16,0-.32,0-.48,0,.52,1.32,1.26,2.56,2.26,3.7,2.67,3.05,5.87,5.35,9.56,7.01,.51,.23,.97,.23,1.48,0,3.52-1.58,6.59-3.77,9.2-6.61,2.14-2.33,3.31-5.07,3.52-8.23,.14-2.1,.01-4.19,.06-5.89Z" style="fill:#ea6423;"/><g><path d="M21.48,5.36c-1.69,0-3.39,0-5.08,0s-3.25,0-4.88,0c-3.26,0-5.37,2.1-5.37,5.35,0,7.12,0,14.24,0,21.36s0,14.24,0,21.36c0,3.2,2.11,5.34,5.3,5.34,5.3,0,10.6,0,15.9,0s10.27,0,15.41,0c-.26-.65-.46-1.31-.61-2-4.93,0-9.86,0-14.79,0-5.3,0-10.6,0-15.9,0-2.06,0-3.3-1.25-3.3-3.34,0-5.08,0-10.15,0-15.23v-6.13s0-6.17,0-6.17c0-5.06,0-10.13,0-15.19,0-2.16,1.2-3.35,3.37-3.35h4.88s2.54,0,2.54,0h2.54c3.47,0,6.93,0,10.4-.01v-2h0c-3.46,0-6.93,.01-10.39,.01Z" style="fill:#ea6423;"/><path d="M47.78,20.13c-4.67-4.64-9.33-9.3-13.97-13.97-.55-.56-1.15-.8-1.93-.8v2c.25,0,.33,.04,.51,.21,4.52,4.55,9.22,9.25,13.98,13.98,.15,.15,.18,.2,.18,.44-.01,5.89,0,11.79-.01,17.68,.45-.24,1.27-.69,2-1.09,0-5.53,0-11.06,0-16.59,0-.76-.23-1.33-.77-1.86Z" style="fill:#ea6423;"/></g><path d="M46.54,41.18c.67-.33,1.37-.67,2-.99,0-.54,0-1.07,0-1.61-.74,.4-1.55,.84-2,1.09,0,.5,0,1.01,0,1.51Z" style="fill:#ea6423;"/><path d="M44.29,58.68c-.28-.62-.51-1.27-.67-1.94-.13,.01-.25,.03-.39,.03-.36,0-.73,0-1.09,0,.15,.69,.36,1.35,.61,2,.16,0,.32,0,.48,0,.37,0,.72-.04,1.05-.09Z" style="fill:#ea6423;"/></g><path d="M35.12,10.6l5.31,5.31,3.18,3.18h-1.96c-2.15,0-4.33,0-6.53,0,0-2.86,0-5.71,0-8.49m-2-4.83c0,4.55,0,9.44,0,14.32,0,.71,.33,.99,1.02,.99h0c2.52,0,5.04,0,7.51,0,2.32,0,4.6,0,6.79,0-5.07-5.07-10.26-10.25-15.32-15.31h0Z" style="fill:#ea6423;"/><g><rect x="19.94" y="28.43" width="16.88" height="2.22" rx=".49" ry=".49" style="fill:#ea6423;"/><rect x="19.94" y="37.88" width="16.88" height="2.22" rx=".49" ry=".49" style="fill:#ea6423;"/><rect x="19.94" y="47.33" width="16.88" height="2.22" rx=".49" ry=".49" style="fill:#ea6423;"/><rect x="15.71" y="33.16" width="16.88" height="2.22" rx=".49" ry=".49" style="fill:#ea6423;"/><rect x="15.71" y="42.6" width="16.88" height="2.22" rx=".49" ry=".49" style="fill:#ea6423;"/></g></svg>