<?xml version="1.0" encoding="UTF-8"?><svg id="uuid-a34c888b-91ae-4323-bdb3-e727aff31505" xmlns="http://www.w3.org/2000/svg" viewBox="0 0 75 75"><path d="M53.83,12.56h-2.9c0-.71-.57-1.28-1.27-1.28h-7.21c-.57-2.25-2.59-3.84-4.95-3.84s-4.38,1.59-4.95,3.84h-7.21c-.7,0-1.27,.57-1.27,1.27h0s-2.9,.01-2.9,.01c-2.63,0-4.77,2.14-4.77,4.77V62.78c0,2.63,2.14,4.77,4.77,4.77H53.83c2.63,0,4.77-2.14,4.77-4.77V17.34c0-2.63-2.14-4.77-4.77-4.77Zm-27.21,1.27h0s7.05-.01,7.05-.01c.7,0,1.27-.57,1.27-1.27,0-1.42,1.15-2.57,2.57-2.57s2.57,1.15,2.57,2.57c0,.7,.57,1.27,1.27,1.27h7.05v4.29H26.61v-4.28Zm-1.27,6.81h24.31c.7,0,1.27-.57,1.27-1.27v-4.28h2.9c1.23,0,2.24,1,2.24,2.24V62.78c0,1.23-1,2.24-2.24,2.24H21.17c-1.23,0-2.24-1-2.24-2.24V17.34c0-1.23,1-2.24,2.24-2.24h2.9v4.28c0,.7,.57,1.27,1.27,1.27Z" style="fill:#ea6423;"/><path d="M26.26,32.3c-.2,0-.39-.08-.54-.22l-2.26-2.26c-.3-.3-.3-.79,0-1.09,.3-.3,.79-.3,1.09,0l1.72,1.72,4.79-4.79c.3-.3,.79-.3,1.09,0s.3,.79,0,1.09l-5.33,5.33c-.15,.15-.35,.22-.54,.22h0Z" style="fill:#ea6423;"/><path d="M34.95,30.16c-.42,0-.77-.34-.77-.77s.34-.77,.76-.77h0c.42,0,.77,.34,.77,.77s-.34,.77-.77,.77h0Z" style="fill:#ea6423;"/><path d="M38.02,30.16c-.42,0-.78-.34-.78-.77s.33-.77,.76-.77h.02c.42,0,.77,.34,.77,.77s-.34,.77-.77,.77h0Zm3.07,0c-.42,0-.78-.34-.78-.77s.33-.77,.76-.77h.02c.42,0,.77,.34,.77,.77s-.34,.77-.77,.77h0Zm3.07,0c-.42,0-.78-.34-.78-.77s.33-.77,.76-.77h.02c.42,0,.77,.34,.77,.77s-.34,.77-.77,.77h0Zm3.07,0c-.42,0-.78-.34-.78-.77s.33-.77,.76-.77h.02c.42,0,.77,.34,.77,.77s-.34,.77-.77,.77h0Z" style="fill:#ea6423;"/><path d="M50.3,30.16c-.42,0-.77-.34-.77-.77s.34-.77,.76-.77h0c.42,0,.77,.34,.77,.77s-.34,.77-.77,.77h0Z" style="fill:#ea6423;"/><path d="M26.26,43.6c-.2,0-.39-.07-.54-.22l-2.26-2.26c-.3-.3-.3-.79,0-1.09,.3-.3,.79-.3,1.09,0l1.72,1.72,4.79-4.79c.3-.3,.79-.3,1.09,0,.3,.3,.3,.79,0,1.09l-5.33,5.33c-.15,.15-.35,.22-.54,.22h0Z" style="fill:#ea6423;"/><path d="M34.95,41.47c-.42,0-.77-.34-.77-.77s.34-.77,.76-.77h0c.42,0,.77,.34,.77,.77s-.34,.77-.77,.77h0Z" style="fill:#ea6423;"/><path d="M38.02,41.47c-.42,0-.78-.34-.78-.77s.33-.77,.76-.77h.02c.42,0,.77,.34,.77,.77s-.34,.77-.77,.77h0Zm3.07,0c-.42,0-.78-.34-.78-.77s.33-.77,.76-.77h.02c.42,0,.77,.34,.77,.77s-.34,.77-.77,.77h0Zm3.07,0c-.42,0-.78-.34-.78-.77s.33-.77,.76-.77h.02c.42,0,.77,.34,.77,.77s-.34,.77-.77,.77h0Zm3.07,0c-.42,0-.78-.34-.78-.77s.33-.77,.76-.77h.02c.42,0,.77,.34,.77,.77s-.34,.77-.77,.77h0Z" style="fill:#ea6423;"/><path d="M50.3,41.47c-.42,0-.77-.34-.77-.77s.34-.77,.76-.77h0c.42,0,.77,.34,.77,.77s-.34,.77-.77,.77h0Z" style="fill:#ea6423;"/><path d="M34.95,52.77c-.42,0-.77-.34-.77-.77s.34-.77,.76-.77h0c.42,0,.77,.34,.77,.77s-.34,.77-.77,.77h0Z" style="fill:#ea6423;"/><path d="M38.02,52.77c-.42,0-.78-.34-.78-.77s.33-.77,.76-.77h.02c.42,0,.77,.34,.77,.77s-.34,.77-.77,.77h0Zm3.07,0c-.42,0-.78-.34-.78-.77s.33-.77,.76-.77h.02c.42,0,.77,.34,.77,.77s-.34,.77-.77,.77h0Zm3.07,0c-.42,0-.78-.34-.78-.77s.33-.77,.76-.77h.02c.42,0,.77,.34,.77,.77s-.34,.77-.77,.77h0Zm3.07,0c-.42,0-.78-.34-.78-.77s.33-.77,.76-.77h.02c.42,0,.77,.34,.77,.77s-.34,.77-.77,.77h0Z" style="fill:#ea6423;"/><path d="M50.3,52.77c-.42,0-.77-.34-.77-.77s.34-.77,.76-.77h0c.42,0,.77,.34,.77,.77s-.34,.77-.77,.77h0Z" style="fill:#ea6423;"/></svg>