<?xml version="1.0" encoding="UTF-8"?> <svg xmlns="http://www.w3.org/2000/svg" id="Layer_2" data-name="Layer 2" viewBox="0 0 1364 428"><defs><style>.cls-1,.cls-5,.cls-6,.cls-7{fill:none;}.cls-1,.cls-5,.cls-8{stroke:#88cde6;}.cls-1{stroke-linecap:round;stroke-linejoin:round;}.cls-1,.cls-6,.cls-7{stroke-width:4px;}.cls-2{fill:#08abe1;}.cls-3{fill:#0085b9;}.cls-4{fill:#cbe9f4;}.cls-5,.cls-6,.cls-7,.cls-8{stroke-miterlimit:10;}.cls-5{stroke-width:4.79px;}.cls-6{stroke:#0085b9;}.cls-7{stroke:#08abe1;}.cls-8{fill:#88cde6;stroke-width:2.93px;}</style></defs><polyline class="cls-1" points="964.11 347.55 964.11 356.58 890.19 356.58 890.19 347.55"></polyline><path class="cls-1" d="M1110.89,293.11V65.1a9.26,9.26,0,0,0-9.19-9.33H752.58a9.24,9.24,0,0,0-9.17,9.33v228"></path><polyline class="cls-1" points="1006.15 293.11 1110.89 293.11 1157.13 347.53 964.11 347.53"></polyline><polyline class="cls-1" points="890.19 347.53 697.16 347.53 743.38 293.11 1006.15 293.11"></polyline><path class="cls-1" d="M706.33,347.55h-9.16V370.5a9.16,9.16,0,0,0,9.16,9.14H1148a9.16,9.16,0,0,0,9.17-9.14V347.55H1148"></path><path class="cls-2" d="M940.22,126.46,907,154.3a38.29,38.29,0,0,1-62.74,43.77l-36.41,21a80.9,80.9,0,1,0,132.33-92.62Z"></path><path class="cls-3" d="M836.41,174.81a38.29,38.29,0,0,1,24.18-35.59l-13.75-37.81a71.21,71.21,0,0,0-10.54,5.12,81,81,0,0,0-30.8,108.41l36.12-20.85A38.18,38.18,0,0,1,836.41,174.81Z"></path><path class="cls-4" d="M874.71,136.52a38.18,38.18,0,0,1,29.51,13.89l32.93-27.62a80,80,0,0,0-85.81-23l13.8,37.94A38.72,38.72,0,0,1,874.71,136.52Z"></path><path class="cls-5" d="M871.71,174.14l-79.85-23.7a83.33,83.33,0,0,1,25.52-39.79C847.72,146.23,871.71,174.14,871.71,174.14Z"></path><rect class="cls-6" x="990.83" y="117.24" width="81" height="15.88"></rect><rect class="cls-6" x="990.83" y="150.6" width="81" height="15.88"></rect><rect class="cls-6" x="990.83" y="187.13" width="81" height="15.88"></rect><path class="cls-7" d="M456.77,306.16l14.92-25.37-22.58-20.22a109.89,109.89,0,0,0,4.44-16.11l29.81-5.81.22-29.22-29.75-6.26a112,112,0,0,0-4.22-16.24l23-19.94L458.14,141.5,429.25,151a110.21,110.21,0,0,0-11.67-11.89l9.95-28.76-25.3-14.88-20.3,22.65a110.51,110.51,0,0,0-16.09-4.43l-5.72-29.86-29.33-.29-6.25,29.83a111.73,111.73,0,0,0-16.2,4.2l-19.94-23L263,109l9.42,28.94a110.93,110.93,0,0,0-11.88,11.66l-28.75-10L216.88,165l22.63,20.23a111.72,111.72,0,0,0-4.42,16.06l-29.86,5.79L205,236.4l29.79,6.23a112.06,112.06,0,0,0,4.2,16.2l-23,19.94,14.49,25.51,28.88-9.52A109.73,109.73,0,0,0,271,306.67l-10,28.79,25.31,14.89,20.33-22.7a111.85,111.85,0,0,0,16.07,4.42L328.48,362l29.3.25L364,332.42a112,112,0,0,0,16.25-4.2l19.91,23,25.46-14.45-9.43-28.84a111.21,111.21,0,0,0,11.95-11.72Zm-147-24.67a68,68,0,1,1,93.06-24.12A68,68,0,0,1,309.79,281.49Z"></path><path class="cls-7" d="M642,208.65l11.42-14.53-12.35-14.49a69.36,69.36,0,0,0,4.11-9.66l19-1.11,2.6-18.17-18-6.4a70.8,70.8,0,0,0-1.27-10.46l16-10.48-6.88-17.09-18.78,3.5a69.26,69.26,0,0,0-6.27-8.38l8.61-17.07-14.5-11.39-14.54,12.4a69.12,69.12,0,0,0-9.64-4.11l-1.06-19.07L582.26,59.5l-6.39,18a70.36,70.36,0,0,0-10.44,1.26L555,62.82,537.9,69.64l3.43,18.81A68.81,68.81,0,0,0,533,94.71L515.9,86.1l-11.39,14.56,12.39,14.5a69,69,0,0,0-4.1,9.63l-19.08,1.09-2.61,18.21,18,6.38a69.35,69.35,0,0,0,1.25,10.44l-16,10.47,6.89,17.1L520,185a69.29,69.29,0,0,0,6.28,8.4l-8.62,17.08,14.5,11.39,14.57-12.42a70.21,70.21,0,0,0,9.63,4.11l1.06,19.08,18.22,2.61,6.38-18A70.88,70.88,0,0,0,592.52,216L603,232,620,225.1l-3.45-18.75a68.81,68.81,0,0,0,8.42-6.29Zm-78.67-41.38A25.3,25.3,0,1,1,598.85,163,25.29,25.29,0,0,1,563.32,167.27Z"></path><path class="cls-8" d="M362.15,240.6a13.62,13.62,0,0,0-1.6-6.95,15.08,15.08,0,0,0-5.39-5.06,60.6,60.6,0,0,0-11.22-4.88,47.5,47.5,0,0,1-10.95-5,15.82,15.82,0,0,1-5.2-5.67,16.79,16.79,0,0,1-1.69-7.87q0-7.53,4.95-12.1T344,188.24v-8.66h2.55v8.66q8.5.45,13.14,5.66t4.63,14.19h-2.5c0-5.25-1.49-9.46-4.47-12.66s-7-4.79-12.19-4.79-9,1.34-12,4a13.29,13.29,0,0,0-4.51,10.41,14.55,14.55,0,0,0,1.5,7.18,14.1,14.1,0,0,0,5,4.79,51.17,51.17,0,0,0,9.83,4.32,82.28,82.28,0,0,1,9.72,3.87,21.22,21.22,0,0,1,5.6,3.91,14.55,14.55,0,0,1,3.31,4.95,17.25,17.25,0,0,1,1.09,6.43,15.71,15.71,0,0,1-4.79,11.92c-3.19,3-7.48,4.71-12.84,5v8.7h-2.55v-8.65q-9.81-.37-15.18-5.58t-5.37-14.32h2.5c0,5.44,1.71,9.71,5.11,12.78s8.05,4.62,13.91,4.62a17.48,17.48,0,0,0,12-4.16A13.12,13.12,0,0,0,362.15,240.6Z"></path></svg> 