<svg xmlns="http://www.w3.org/2000/svg" width="62" height="62" viewBox="0 0 62 62"><defs><style>.a{fill:#f96c0d;}</style></defs><g transform="translate(-1 -0.905)"><path class="a" d="M55,36.9H52v-3a5.006,5.006,0,0,0-5-5H42v-3a1,1,0,0,0-1-1H33V22.763a4,4,0,1,0-2,0V24.9H23a1,1,0,0,0-1,1v3H17a5.006,5.006,0,0,0-5,5v3H9a3,3,0,0,0-3,3v12a3,3,0,0,0,3,3h3v3a5.006,5.006,0,0,0,5,5H47a5.006,5.006,0,0,0,5-5v-3h3a3,3,0,0,0,3-3v-12A3,3,0,0,0,55,36.9Zm-25-18a2,2,0,1,1,2,2A2,2,0,0,1,30,18.9ZM9,52.9a1,1,0,0,1-1-1v-12a1,1,0,0,1,1-1h3v14Zm15-26H40v2H24Zm26,31a3,3,0,0,1-3,3H17a3,3,0,0,1-3-3v-24a3,3,0,0,1,3-3H47a3,3,0,0,1,3,3Zm6-6a1,1,0,0,1-1,1H52v-14h3a1,1,0,0,1,1,1Z"/><path class="a" d="M41,46.9H23a1,1,0,0,0-1,1v1a10,10,0,0,0,20,0v-1A1,1,0,0,0,41,46.9Zm-9,10a8.009,8.009,0,0,1-8-8H40A8.009,8.009,0,0,1,32,56.9Z"/><path class="a" d="M26,40.9a4,4,0,1,0-4,4A4,4,0,0,0,26,40.9Zm-6,0a2,2,0,1,1,2,2A2,2,0,0,1,20,40.9Z"/><path class="a" d="M42,36.9a4,4,0,1,0,4,4A4,4,0,0,0,42,36.9Zm0,6a2,2,0,1,1,2-2A2,2,0,0,1,42,42.9Z"/><path class="a" d="M16.293,22.612A1,1,0,0,0,18,21.9v-3h6a3,3,0,0,0,3-3V3.9a3,3,0,0,0-3-3H4a3,3,0,0,0-3,3v12a3,3,0,0,0,3,3h8.586ZM3,15.9V3.9a1,1,0,0,1,1-1H24a1,1,0,0,1,1,1v12a1,1,0,0,1-1,1H17a1,1,0,0,0-1,1v1.586L13.707,17.2A1,1,0,0,0,13,16.905H4a1,1,0,0,1-1-1Z"/><path class="a" d="M60,4.905H40a3,3,0,0,0-3,3v12a3,3,0,0,0,3,3h6v3a1,1,0,0,0,1.707.707l3.707-3.707H60a3,3,0,0,0,3-3v-12a3,3,0,0,0-3-3Zm1,15a1,1,0,0,1-1,1H51a1,1,0,0,0-.707.293L48,23.491V21.9a1,1,0,0,0-1-1H40a1,1,0,0,1-1-1V7.9a1,1,0,0,1,1-1H60a1,1,0,0,1,1,1Z"/><path class="a" d="M5,4.905H23v2H5Z"/><path class="a" d="M5,12.9H23v2H5Z"/><path class="a" d="M7,8.9H21v2H7Z"/><path class="a" d="M41,8.9H59v2H41Z"/><path class="a" d="M41,16.905H59v2H41Z"/><path class="a" d="M43,12.9H57v2H43Z"/></g></svg>