<?xml version="1.0" encoding="UTF-8"?><svg id="uuid-6eb415f6-861a-42c7-b063-f338d4cc58ac" xmlns="http://www.w3.org/2000/svg" viewBox="0 0 75 75"><path d="M57.17,20.54c-2.29-2.32-4.59-4.63-6.9-6.92-.86-.85-1.7-.85-2.55,0-2.31,2.29-4.61,4.6-6.9,6.92-.74,.75-.83,1.77-.21,2.41,.29,.31,.66,.47,1.06,.48,.5,.03,.99-.22,1.42-.65,.86-.84,2.53-2.63,2.54-2.65l.05-.04,1.32-1.09-.11,1.67c-.02,.14-.34,2.87-.69,4.24-1.61,6.28-5.59,10.33-11.82,12.05-1.41,.39-2.86,.65-4.27,.91l-1.26,.23c-7.68,1.45-13.95,7.77-15.25,15.35-.11,.63,.1,1.24,.57,1.62,.44,.36,1.01,.46,1.56,.25,.66-.24,.92-.81,1.12-1.64,1.42-5.89,4.95-9.87,10.51-11.81,1.74-.61,3.58-.94,5.36-1.26l.61-.11c8.83-1.61,14.97-7.81,16.41-16.58,.16-.98,.24-1.99,.33-3.05,.04-.53,.08-1.07,.14-1.63l.1-1.05,1.96,1.96c.92,.92,1.79,1.79,2.67,2.65,.78,.76,1.75,.85,2.41,.22,.31-.29,.48-.66,.49-1.07,0-.49-.21-.99-.63-1.41Z" style="fill:#ea6423;"/><path d="M24.93,54.79c-.02,3.97,3.08,7.14,7.06,7.22,1.86,.06,3.68-.69,5.07-2.05,1.41-1.37,2.18-3.19,2.19-5.11s-.76-3.74-2.15-5.12c-1.38-1.37-3.21-2.09-5.05-2.1-3.97,.04-7.1,3.18-7.12,7.16Zm7.11-3.95c1.1,.01,2.06,.4,2.8,1.15,.76,.76,1.18,1.78,1.17,2.86-.01,2.16-1.77,3.92-3.92,3.94h-.02c-1.04,0-2.07-.44-2.83-1.2-.75-.76-1.18-1.78-1.16-2.8,.03-2.12,1.84-3.92,3.96-3.94Z" style="fill:#ea6423;"/><path d="M49.43,52.89c.5,.31,1.26,.54,1.96-.17,.76-.76,1.47-1.55,2.22-2.38,.33-.37,.67-.74,1.01-1.12l.36-.39,1.5,1.55c.74,.77,1.41,1.46,2.09,2.14,.42,.42,.92,.65,1.39,.65,0,0,.01,0,.02,0,.4,0,.76-.17,1.06-.49,.68-.71,.61-1.58-.2-2.39-.68-.69-1.39-1.36-2.16-2.1l-1.49-1.43,.38-.36c.39-.37,.76-.71,1.13-1.05,.79-.73,1.54-1.43,2.24-2.16,.38-.4,.58-.87,.55-1.32-.03-.42-.24-.8-.61-1.11-.71-.57-1.52-.49-2.27,.24-.73,.71-1.43,1.44-2.16,2.2l-1.38,1.43-1.35-1.41c-.71-.74-1.36-1.42-2.04-2.1-.49-.49-.99-.74-1.45-.74h0c-.38,0-.74,.18-1.07,.52-.68,.7-.58,1.63,.27,2.46,.68,.67,1.38,1.33,2.13,2.02l1.46,1.37-1.36,1.29c-.77,.73-1.48,1.4-2.17,2.1-.36,.37-.59,.7-.68,.98-.16,.54-.19,1.29,.62,1.78Z" style="fill:#ea6423;"/><path d="M16.37,31.6c.74-.68,1.47-1.38,2.27-2.17l1.56-1.51,.35,.39c.31,.35,.61,.69,.91,1.03,.65,.74,1.26,1.44,1.91,2.11,.47,.48,.97,.74,1.46,.74h0c.39,0,.75-.17,1.06-.49,.29-.3,.44-.67,.43-1.07-.01-.49-.26-.99-.7-1.41-.68-.65-1.43-1.28-2.15-1.88-.33-.27-.65-.55-.97-.82l-.37-.31,.63-.79s.06-.14,.15-.23l2.66-2.73c.88-.91,1-1.87,.3-2.57-.3-.3-.65-.46-1.03-.46h0c-.5,0-1.02,.26-1.51,.76-.68,.69-1.35,1.4-2.04,2.13l-1.29,1.37-1.38-1.43c-.72-.75-1.39-1.43-2.06-2.11-.46-.46-.99-.71-1.48-.71h-.02c-.39,0-.75,.17-1.04,.48-.93,.98-.23,1.97,.28,2.47,.68,.67,1.37,1.33,2.11,2.04l1.47,1.41-.38,.36c-.37,.35-.74,.69-1.09,1.02-.77,.72-1.5,1.4-2.2,2.11-.45,.45-.68,.89-.7,1.29-.01,.38,.17,.76,.56,1.14,.64,.63,1.53,.57,2.32-.15Z" style="fill:#ea6423;"/></svg>