<?xml version="1.0" encoding="UTF-8"?> <!-- Generator: Adobe Illustrator 25.4.1, SVG Export Plug-In . SVG Version: 6.00 Build 0) --> <svg xmlns="http://www.w3.org/2000/svg" xmlns:xlink="http://www.w3.org/1999/xlink" version="1.1" id="Layer_2" x="0px" y="0px" viewBox="0 0 1364 428" style="enable-background:new 0 0 1364 428;" xml:space="preserve"> <style type="text/css"> .st0{fill:#E5F4FA;} .st1{fill:none;stroke:#0085B9;stroke-width:3;stroke-miterlimit:10;} .st2{fill-rule:evenodd;clip-rule:evenodd;fill:#E5F4FA;} .st3{opacity:0.19;fill:#E5F4FA;stroke:#F1F1F2;stroke-width:1.4819;stroke-miterlimit:10;} .st4{fill:#88CDE6;} .st5{opacity:0.6;fill:#88CDE6;} .st6{opacity:0.3;fill:#88CDE6;} .st7{fill:none;stroke:#88CDE6;stroke-width:3.2269;stroke-miterlimit:10;} .st8{fill:none;stroke:#88CDE6;stroke-width:3.2269;stroke-miterlimit:10;stroke-dasharray:9.2542,9.2542;} .st9{fill:none;stroke:#88CDE6;stroke-width:3.2269;stroke-miterlimit:10;stroke-dasharray:9.4925,9.4925;} .st10{fill:none;stroke:#88CDE6;stroke-width:2;stroke-miterlimit:10;} .st11{fill:#0085B9;} .st12{fill:none;stroke:#0085B9;stroke-width:2;stroke-miterlimit:10;} .st13{fill:none;stroke:#88CDE6;stroke-width:3.2269;stroke-miterlimit:10;stroke-dasharray:9.6808;} .st14{fill:none;stroke:#88CDE6;stroke-linecap:round;stroke-miterlimit:10;} .st15{fill:none;stroke:#88CDE6;stroke-width:2;stroke-linecap:round;stroke-miterlimit:10;} .st16{clip-path:url(#SVGID_00000070812669786472252270000007967277825610232498_);fill:#E5F4FA;} .st17{fill:none;stroke:#88CDE6;stroke-width:3;stroke-miterlimit:10;} .st18{fill:none;stroke:#88CDE6;stroke-width:9.4787;stroke-linecap:round;stroke-miterlimit:10;} .st19{fill:#FFFFFF;stroke:#0085B9;stroke-width:3;stroke-miterlimit:10;} .st20{fill:#FFFFFF;stroke:#88CDE6;stroke-width:3;stroke-miterlimit:10;} .st21{fill:#FFFFFF;} .st22{fill:none;stroke:#88CDE6;stroke-width:3;stroke-linecap:round;stroke-linejoin:round;stroke-miterlimit:10;} .st23{fill:none;stroke:#0085B9;stroke-width:3;stroke-linecap:round;stroke-miterlimit:10;} .st24{fill:none;stroke:#88CDE6;stroke-width:3;stroke-linecap:round;stroke-miterlimit:10;} .st25{fill:#CAE9F5;} .st26{clip-path:url(#SVGID_00000145015925929938865430000000942652341159984806_);} .st27{fill:#D65A38;} .st28{clip-path:url(#SVGID_00000007404414047747062210000011828121113449264029_);fill:#E5F4FA;} .st29{clip-path:url(#SVGID_00000015334853699376223390000009357430071212936576_);} .st30{fill:none;stroke:#0085B9;stroke-width:5;stroke-linecap:round;stroke-linejoin:round;stroke-miterlimit:10;} .st31{fill-rule:evenodd;clip-rule:evenodd;fill:#88CDE6;} .st32{fill:none;stroke:#88CDE6;stroke-width:3.2269;stroke-miterlimit:10;stroke-dasharray:9.7803,9.7803;} .st33{fill:none;stroke:#88CDE6;stroke-width:3.2269;stroke-miterlimit:10;stroke-dasharray:9.5451,9.5451;} .st34{fill:none;stroke:#88CDE6;stroke-width:3.2269;stroke-miterlimit:10;stroke-dasharray:9.6756,9.6756;} .st35{fill:none;stroke:#88CDE6;stroke-width:3.2269;stroke-miterlimit:10;stroke-dasharray:9.2733,9.2733;} .st36{fill:none;stroke:#88CDE6;stroke-width:3.2269;stroke-miterlimit:10;stroke-dasharray:9.4681,9.4681;} .st37{fill:none;stroke:#0085B9;stroke-width:4.1692;stroke-linecap:round;stroke-linejoin:round;stroke-miterlimit:10;} .st38{fill:none;stroke:#88CDE6;stroke-width:16;stroke-linecap:round;stroke-miterlimit:10;} </style> <path class="st3" d="M575.7,312.7c-37.8,0-68.6-30.8-68.6-68.6c0-35.2,26.4-64.2,60.3-68.2c7.1-27.6,32.4-48.2,62-48.2 c7.3,0,14.5,1.3,21.4,3.7c14.8-15.4,35.3-24.3,57-24.3c32.5,0,61.2,19.8,73.1,49.2c28.3,5.2,50.2,29.1,52.3,58.2 c16.3,9.1,27,26.6,27,45.8c0,28.9-23.5,52.4-52.4,52.4H575.7z"></path> <g> <circle class="st4" cx="820.8" cy="49.5" r="6.4"></circle> <circle class="st5" cx="801.5" cy="49.5" r="6.4"></circle> <circle class="st6" cx="782.2" cy="49.5" r="6.4"></circle> </g> <g> <circle class="st4" cx="942.8" cy="187.6" r="6.4"></circle> <circle class="st5" cx="923.5" cy="187.6" r="6.4"></circle> <circle class="st6" cx="904.3" cy="187.6" r="6.4"></circle> </g> <g> <circle class="st4" cx="403.2" cy="187.6" r="6.4"></circle> <circle class="st5" cx="422.5" cy="187.6" r="6.4"></circle> <circle class="st6" cx="441.7" cy="187.6" r="6.4"></circle> </g> <g> <circle class="st4" cx="567" cy="49.5" r="6.4"></circle> <circle class="st5" cx="586.3" cy="49.5" r="6.4"></circle> <circle class="st6" cx="605.6" cy="49.5" r="6.4"></circle> </g> <g> <g> <line class="st7" x1="711.3" y1="158.9" x2="711.3" y2="154.1"></line> <path class="st8" d="M711.3,144.8V82.8c0-8.5,6.9-15.3,15.3-15.3h94.4"></path> <line class="st7" x1="825.6" y1="67.5" x2="830.4" y2="67.5"></line> </g> </g> <g> <g> <line class="st7" x1="679.4" y1="158.9" x2="679.4" y2="154.1"></line> <path class="st9" d="M679.4,144.6V82.8c0-8.5-6.9-15.3-15.3-15.3h-99.3"></path> <line class="st7" x1="560.1" y1="67.5" x2="555.3" y2="67.5"></line> </g> </g> <g> <circle class="st4" cx="569.9" cy="371.7" r="6.4"></circle> <circle class="st5" cx="589.2" cy="371.7" r="6.4"></circle> <circle class="st6" cx="608.5" cy="371.7" r="6.4"></circle> </g> <g> <circle class="st4" cx="823.7" cy="371.7" r="6.4"></circle> <circle class="st5" cx="804.4" cy="371.7" r="6.4"></circle> <circle class="st6" cx="785.1" cy="371.7" r="6.4"></circle> </g> <g> <g> <line class="st7" x1="679.4" y1="301.1" x2="679.4" y2="305.9"></line> <path class="st8" d="M679.4,315.2v62.1c0,8.5-6.9,15.3-15.3,15.3h-94.4"></path> <line class="st7" x1="565.1" y1="392.5" x2="560.3" y2="392.5"></line> </g> </g> <g> <g> <line class="st7" x1="711.3" y1="301.1" x2="711.3" y2="305.9"></line> <path class="st8" d="M711.3,315.2v62.1c0,8.5,6.9,15.3,15.3,15.3h94.4"></path> <line class="st7" x1="825.6" y1="392.5" x2="830.4" y2="392.5"></line> </g> </g> <g> <polygon class="st10" points="443,346.8 429.1,368.9 429.1,385.8 466.4,385.8 466.4,346.8 "></polygon> <rect x="428" y="374.7" class="st11" width="2.2" height="6.4"></rect> <rect x="454.7" y="374.7" class="st11" width="6.4" height="2.2"></rect> <polygon class="st10" points="445.4,351.1 433.4,370.1 461.1,370.1 461.1,351.1 "></polygon> <g> <rect x="470.8" y="330" class="st12" width="73.8" height="55.8"></rect> </g> <rect x="427.7" y="385.8" class="st12" width="116.9" height="6.5"></rect> <g> <g> <path class="st11" d="M456.7,392.3c0,5.6-4.5,10-10,10c-5.6,0-10.1-4.5-10.1-10c0-5.6,4.5-10.1,10.1-10.1 C452.2,382.2,456.7,386.7,456.7,392.3z"></path> <path class="st4" d="M451.9,392.3c0,2.9-2.3,5.2-5.2,5.2c-2.9,0-5.2-2.3-5.2-5.2c0-2.9,2.3-5.2,5.2-5.2 C449.6,387.1,451.9,389.4,451.9,392.3z"></path> <path class="st11" d="M448.7,392.3c0,1.1-0.9,2-2,2c-1.1,0-2-0.9-2-2c0-1.1,0.9-2,2-2C447.8,390.3,448.7,391.2,448.7,392.3z"></path> </g> <g> <path class="st11" d="M538.1,392.3c0,5.6-4.5,10-10.1,10c-5.5,0-10.1-4.5-10.1-10c0-5.6,4.5-10.1,10.1-10.1 C533.6,382.2,538.1,386.7,538.1,392.3z"></path> <path class="st4" d="M533.2,392.3c0,2.9-2.3,5.2-5.2,5.2c-2.9,0-5.2-2.3-5.2-5.2c0-2.9,2.3-5.2,5.2-5.2 C530.9,387.1,533.2,389.4,533.2,392.3z"></path> <path class="st11" d="M530,392.3c0,1.1-0.9,2-2,2c-1.1,0-2-0.9-2-2c0-1.1,0.9-2,2-2C529.1,390.3,530,391.2,530,392.3z"></path> </g> <g> <path class="st11" d="M514.7,392.3c0,5.6-4.5,10-10.1,10c-5.5,0-10-4.5-10-10c0-5.6,4.5-10.1,10-10.1 C510.2,382.2,514.7,386.7,514.7,392.3z"></path> <path class="st4" d="M509.9,392.3c0,2.9-2.3,5.2-5.2,5.2c-2.9,0-5.2-2.3-5.2-5.2c0-2.9,2.3-5.2,5.2-5.2 C507.5,387.1,509.9,389.4,509.9,392.3z"></path> <path class="st11" d="M506.7,392.3c0,1.1-0.9,2-2,2c-1.1,0-2-0.9-2-2c0-1.1,0.9-2,2-2C505.8,390.3,506.7,391.2,506.7,392.3z"></path> </g> </g> </g> <rect x="843.6" y="39.6" class="st12" width="95.4" height="52.6"></rect> <polyline class="st12" points="900.2,65.8 938.2,92.1 844.7,92.1 882,65.6 "></polyline> <polygon class="st12" points="844.7,39.6 891.4,72 938.2,39.6 "></polygon> <g> <path class="st12" d="M343,144.3c-18.9,0-34.3,15.4-34.3,34.3c0,7.9,2.9,15,7.1,20.9c27.2,38.1,27.2,38.1,27.2,38.1s0,0,27.2-38.1 c4.2-5.9,7.1-13,7.1-20.9C377.3,159.7,361.9,144.3,343,144.3z"></path> <path class="st10" d="M355.7,178.6c0,7-5.7,12.7-12.7,12.7c-7,0-12.7-5.7-12.7-12.7c0-7,5.7-12.7,12.7-12.7 C350,165.9,355.7,171.6,355.7,178.6z"></path> </g> <g> <g> <rect x="901.2" y="342.2" class="st12" width="65.7" height="65.7"></rect> <g> <rect x="927.1" y="342.2" class="st11" width="13.9" height="16.7"></rect> <g> <polygon class="st11" points="927.1,360.7 927.1,357.2 928.8,358.9 "></polygon> <rect x="929.3" y="357.7" transform="matrix(0.7084 -0.7058 0.7058 0.7084 17.9791 761.4177)" class="st11" width="2.5" height="2.5"></rect> <polygon class="st11" points="934,360.7 932.3,358.9 934,357.2 935.8,358.9 "></polygon> <polygon class="st11" points="937.5,360.7 935.8,358.9 937.5,357.2 939.3,358.9 "></polygon> <polygon class="st11" points="941,360.7 939.3,358.9 941,357.2 "></polygon> </g> </g> <g> <rect x="907" y="389.7" class="st12" width="22.1" height="12.5"></rect> </g> </g> <g> <rect x="847.9" y="327.3" class="st12" width="47.2" height="80.7"></rect> <g> <rect x="864.3" y="327.3" class="st11" width="13.9" height="16.7"></rect> <g> <polygon class="st11" points="864.3,345.7 864.3,342.2 866.1,344 "></polygon> <rect x="866.6" y="342.8" transform="matrix(0.7084 -0.7058 0.7058 0.7084 10.2427 712.7747)" class="st11" width="2.5" height="2.5"></rect> <polygon class="st11" points="871.3,345.7 869.6,344 871.3,342.2 873,344 "></polygon> <polygon class="st11" points="874.8,345.7 873,344 874.8,342.2 876.5,344 "></polygon> <polygon class="st11" points="878.3,345.7 876.5,344 878.3,342.2 "></polygon> </g> </g> <g> <rect x="852.7" y="394.2" class="st12" width="12.7" height="9"></rect> </g> </g> </g> <path class="st12" d="M539,94.1h-63.8c-2,0-3.6-1.6-3.6-3.6V28.9c0-2,1.6-3.6,3.6-3.6H539c2,0,3.6,1.6,3.6,3.6v61.6 C542.6,92.5,541,94.1,539,94.1z"></path> <path class="st12" d="M542.6,38.1h-71v-9.2c0-1.9,1.6-3.5,3.5-3.5h64c1.9,0,3.5,1.6,3.5,3.5V38.1z"></path> <g> <path class="st4" d="M489.4,33.5h-0.4c-2.3,0-4.2-1.9-4.2-4.2V17c0-2.3,1.9-4.2,4.2-4.2h0.4c2.3,0,4.2,1.9,4.2,4.2v12.3 C493.6,31.6,491.7,33.5,489.4,33.5z"></path> <path class="st4" d="M525.2,33.5h-0.4c-2.3,0-4.2-1.9-4.2-4.2V17c0-2.3,1.9-4.2,4.2-4.2h0.4c2.3,0,4.2,1.9,4.2,4.2v12.3 C529.5,31.6,527.6,33.5,525.2,33.5z"></path> </g> <g> <path class="st4" d="M498.4,80h-5V55.7l-7.4,2.5V54l11.8-4.3h0.6V80z"></path> <path class="st4" d="M528,57.7c0,1.5-0.4,2.8-1.1,4c-0.8,1.2-1.8,2.1-3.1,2.7c1.6,0.7,2.8,1.7,3.6,3s1.3,2.7,1.3,4.3 c0,2.7-0.9,4.8-2.7,6.3c-1.8,1.6-4.2,2.3-7.2,2.3c-3,0-5.4-0.8-7.2-2.3s-2.7-3.7-2.7-6.3c0-1.6,0.4-3.1,1.3-4.4 c0.9-1.3,2.1-2.3,3.6-3c-1.3-0.7-2.3-1.6-3.1-2.7c-0.8-1.2-1.1-2.5-1.1-4c0-2.6,0.8-4.6,2.5-6.1c1.7-1.5,3.9-2.3,6.7-2.3 c2.8,0,5.1,0.8,6.8,2.3C527.2,53.1,528,55.1,528,57.7z M523.6,71.5c0-1.5-0.4-2.7-1.3-3.6c-0.9-0.9-2.1-1.4-3.5-1.4 s-2.6,0.5-3.5,1.4c-0.9,0.9-1.3,2.1-1.3,3.6c0,1.5,0.4,2.7,1.3,3.6c0.9,0.9,2.1,1.3,3.6,1.3c1.5,0,2.7-0.4,3.6-1.3 C523.2,74.2,523.6,73,523.6,71.5z M523,57.9c0-1.3-0.4-2.4-1.1-3.3c-0.8-0.9-1.8-1.3-3.1-1.3c-1.3,0-2.3,0.4-3.1,1.2 c-0.7,0.8-1.1,1.9-1.1,3.3c0,1.4,0.4,2.5,1.1,3.3c0.8,0.8,1.8,1.2,3.1,1.2c1.3,0,2.3-0.4,3.1-1.2S523,59.3,523,57.9z"></path> </g> <g> <g> <path class="st12" d="M969.4,156c0-2,1.7-3.7,3.7-3.7h60.9c2,0,3.7,1.7,3.7,3.7v91.7c0,2-1.7,3.7-3.7,3.7h-60.9 c-2,0-3.7-1.7-3.7-3.7V156z"></path> <path class="st11" d="M999.8,247.3c-0.9,0-1.7-0.7-1.7-1.7v-0.4c0-0.9,0.7-1.7,1.7-1.7h7.5c0.9,0,1.7,0.7,1.7,1.7v0.4 c0,0.9-0.7,1.7-1.7,1.7H999.8z"></path> <path class="st11" d="M1003.6,158.8c-0.9,0-1.7-0.8-1.7-1.7c0-0.9,0.8-1.7,1.7-1.7c0.9,0,1.7,0.8,1.7,1.7 C1005.3,158,1004.5,158.8,1003.6,158.8z"></path> <path class="st11" d="M1003.6,157.8c-0.4,0-0.7-0.3-0.7-0.7c0-0.4,0.3-0.7,0.7-0.7c0.4,0,0.7,0.3,0.7,0.7 C1004.3,157.5,1004,157.8,1003.6,157.8z"></path> <rect x="973.3" y="161.9" class="st12" width="60.6" height="77.5"></rect> </g> </g> <line class="st13" x1="809.5" y1="205.3" x2="957.3" y2="205.3"></line> <line class="st13" x1="382.3" y1="205.3" x2="530.1" y2="205.3"></line> <path class="st0" d="M575.7,297.9h232.1c20.7,0,37.6-16.9,37.6-37.6c0-17-11.2-31.5-27.1-36.1c0.2-1.7,0.3-3.4,0.3-5 c0-27-21.8-48.9-48.8-49.2c-7.2-28.2-32.4-48.2-62-48.2c-21.3,0-40.9,10.5-52.8,27.8c-7.7-4.7-16.5-7.2-25.5-7.2 c-26.7,0-48.5,21.4-49.1,48c-31.7-2.9-58.4,22.4-58.4,53.6C521.9,273.8,546.1,297.9,575.7,297.9z"></path> <g> <circle class="st4" cx="933.5" cy="43.7" r="13.8"></circle> <g> <path class="st11" d="M932,51.9c0-0.4,0.1-0.8,0.4-1c0.3-0.3,0.6-0.4,1.1-0.4c0.5,0,0.9,0.1,1.1,0.4c0.3,0.3,0.4,0.6,0.4,1.1 c0,0.4-0.1,0.8-0.4,1c-0.3,0.3-0.6,0.4-1.1,0.4s-0.9-0.1-1.1-0.4C932.1,52.7,932,52.3,932,51.9z M934.6,47.5l-2.3,0l-1.5-14.4 l5.5,0L934.6,47.5z"></path> </g> </g> <g> <circle class="st11" cx="963.3" cy="361.8" r="11.7"></circle> <g> <path class="st0" d="M965.4,363.3c-0.8,0.8-1.6,1.2-2.6,1.2c-1.2,0-2.1-0.4-2.8-1.2c-0.7-0.8-1.1-1.9-1.1-3.3 c0-0.9,0.2-1.7,0.5-2.4c0.4-0.7,0.9-1.3,1.5-1.7c0.7-0.4,1.4-0.6,2.3-0.6c1.4,0,2.4,0.5,3.2,1.5c0.8,1,1.2,2.4,1.2,4.1v0.6 c0,2.4-0.6,4.3-1.7,5.6c-1.1,1.3-2.7,1.9-4.9,2h-0.3v-1.9h0.3c1.3,0,2.4-0.3,3.1-1C965,365.6,965.4,364.6,965.4,363.3z M963.3,362.8c0.5,0,0.9-0.1,1.3-0.4c0.4-0.3,0.7-0.6,0.9-1.1v-0.9c0-1-0.2-1.8-0.6-2.4c-0.4-0.6-0.9-0.9-1.6-0.9 c-0.7,0-1.2,0.3-1.6,0.8c-0.4,0.5-0.6,1.2-0.6,2c0,0.8,0.2,1.5,0.6,2.1S962.6,362.8,963.3,362.8z"></path> </g> </g> <line class="st14" x1="982" y1="174.7" x2="990.9" y2="174.7"></line> <line class="st14" x1="982" y1="178.7" x2="990.9" y2="178.7"></line> <line class="st15" x1="982" y1="226.7" x2="990.9" y2="226.7"></line> <line class="st15" x1="982" y1="189.7" x2="1024.3" y2="189.7"></line> <line class="st15" x1="982" y1="196.2" x2="1024.3" y2="196.2"></line> <line class="st15" x1="982" y1="202.7" x2="1024.3" y2="202.7"></line> <line class="st15" x1="982" y1="209.1" x2="1024.3" y2="209.1"></line> <line class="st15" x1="981.3" y1="215.6" x2="1023.6" y2="215.6"></line> </svg> 