<?xml version="1.0" encoding="UTF-8"?>
<svg width="63px" height="75px" viewBox="0 0 63 75" version="1.1" xmlns="http://www.w3.org/2000/svg" xmlns:xlink="http://www.w3.org/1999/xlink">
    <!-- Generator: Sketch 63.1 (92452) - https://sketch.com -->
    <title>strategicservices-ia1-icon3</title>
    <desc>Created with Sketch.</desc>
    <g id="/services/strategic-services" stroke="none" stroke-width="1" fill="none" fill-rule="evenodd">
        <g id="Desktop" transform="translate(-1299.000000, -7390.000000)" fill="#000000" fill-rule="nonzero">
            <g id="I/IA1" transform="translate(0.000000, 6708.000000)">
                <g id="Timeline" transform="translate(320.000000, 682.000000)">
                    <g id="strategicservices-ia1-icon3" transform="translate(979.000000, 0.000000)">
                        <path d="M19.364625,37.9586033 L19.3599,37.9586033 L14.176575,43.1024605 L12.141675,41.0836684 C11.5227,40.4727182 10.525725,40.4727182 9.9099,41.0836684 C9.294075,41.6946186 9.297225,42.6852643 9.91305,43.2962145 L13.06305,46.4181545 C13.35915,46.7150357 13.75605,46.8759766 14.176575,46.8759766 C14.5971,46.8759766 14.994,46.7150357 15.2901,46.4181545 L21.588525,40.1695869 C22.20435,39.5570741 22.20435,38.5711161 21.588525,37.9586033 C20.9727,37.3476531 19.9773,37.3476531 19.364625,37.9586033 L19.364625,37.9586033 Z M29.926575,24.9989583 L48.825,24.9989583 C49.695975,24.9989583 50.4,24.3020688 50.4,23.4379883 C50.4,22.5754703 49.695975,21.8770183 48.825,21.8770183 L29.926575,21.8770183 C29.0556,21.8770183 28.35,22.5754703 28.35,23.4379883 C28.35,24.3020688 29.0556,24.9989583 29.926575,24.9989583 L29.926575,24.9989583 Z M19.3599,22.3348403 L19.3599,22.3317152 L14.176575,27.4755724 L12.1401,25.4583429 C11.524275,24.8489552 10.5273,24.8489552 9.91305,25.4583429 C9.297225,26.0692931 9.297225,27.0583762 9.91305,27.6693264 L13.0599,30.792829 C13.35915,31.0881477 13.7529,31.2506511 14.176575,31.2506511 C14.595525,31.2506511 14.992425,31.0881477 15.288525,30.792829 L21.5901,24.5426988 C22.20435,23.9317486 22.20435,22.9426655 21.5901,22.3348403 C20.974275,21.7238901 19.975725,21.7238901 19.3599,22.3348403 L19.3599,22.3348403 Z M19.36305,53.5839288 L14.176575,58.727786 L12.141675,56.7089939 C11.524275,56.0964812 10.52415,56.0964812 9.9099,56.7089939 C9.294075,57.3199442 9.297225,58.3090273 9.914625,58.92154 L13.0599,62.0434801 C13.35915,62.3372362 13.754475,62.498177 14.176575,62.498177 C14.5971,62.498177 14.99085,62.3372362 15.2901,62.0434801 L21.5901,55.7933499 C22.202775,55.1839622 22.202775,54.1933165 21.5901,53.5839288 C20.974275,52.9745411 19.9773,52.9745411 19.36305,53.5839288 L19.36305,53.5839288 Z M29.926575,28.1255859 C29.0556,28.1255859 28.35,28.8256005 28.35,29.6881185 C28.35,30.552199 29.0556,31.2490885 29.926575,31.2490885 L42.525,31.2490885 C43.39755,31.2490885 44.101575,30.552199 44.101575,29.6881185 C44.101575,28.8256005 43.39755,28.1255859 42.525,28.1255859 L29.926575,28.1255859 Z M42.525,59.376237 L29.926575,59.376237 C29.0556,59.376237 28.351575,60.0746891 28.351575,60.9387696 C28.351575,61.8028501 29.0556,62.4997396 29.926575,62.4997396 L42.525,62.4997396 C43.395975,62.4997396 44.1,61.8028501 44.1,60.9387696 C44.1,60.0746891 43.395975,59.376237 42.525,59.376237 L42.525,59.376237 Z M29.926575,46.8759766 L42.526575,46.8759766 C43.395975,46.8759766 44.1,46.1775245 44.1,45.313444 C44.1,44.4509261 43.395975,43.7509115 42.526575,43.7509115 L29.926575,43.7509115 C29.054025,43.7509115 28.351575,44.4509261 28.351575,45.313444 C28.351575,46.1775245 29.054025,46.8759766 29.926575,46.8759766 L29.926575,46.8759766 Z M48.825,53.1276693 L29.926575,53.1276693 C29.0556,53.1276693 28.351575,53.8245588 28.351575,54.6886393 C28.351575,55.5527198 29.0556,56.2496094 29.926575,56.2496094 L48.825,56.2496094 C49.6944,56.2496094 50.40315,55.5527198 50.40315,54.6886393 C50.40315,53.8245588 49.6944,53.1276693 48.825,53.1276693 L48.825,53.1276693 Z M29.926575,40.6242838 L48.823425,40.6242838 C49.69755,40.6242838 50.4,39.9273943 50.4,39.0648764 C50.4,38.1992333 49.69755,37.5023438 48.823425,37.5023438 L29.926575,37.5023438 C29.057175,37.5023438 28.35,38.1992333 28.35,39.0648764 C28.35,39.9273943 29.057175,40.6242838 29.926575,40.6242838 L29.926575,40.6242838 Z M58.276575,0 L17.325,0 C16.910775,0 16.507575,0.1640659 16.21305,0.4562595 L0.461475,16.081585 C0.168525,16.3737786 0,16.773787 0,17.1894206 L0,70.3139649 C0,72.9015188 2.11365,75 4.726575,75 L58.276575,75 C60.887925,75 63,72.9015188 63,70.3139649 L63,4.6875977 C63,2.0984812 60.8832,0 58.276575,0 L58.276575,0 Z M15.751575,5.3329236 L15.751575,14.0643555 C15.748425,14.9221859 15.0444,15.6222005 14.176575,15.6253255 L5.378625,15.6253255 L15.751575,5.3329236 Z M59.85315,70.3139649 C59.848425,71.1733578 59.1444,71.8749349 58.276575,71.87806 L4.726575,71.87806 C3.85875,71.8749349 3.15,71.1733578 3.15,70.3139649 L3.15,18.7488281 L14.176575,18.7488281 C16.78635,18.745703 18.89685,16.6503469 18.9,14.0643555 L18.9,3.1235026 L58.276575,3.1235026 C59.1444,3.1266276 59.848425,3.8235172 59.85315,4.6875977 L59.85315,70.3139649 L59.85315,70.3139649 Z" id="Fill-56"></path>
                        <path d="M15.751575,5.3329236 L15.751575,14.0643555 C15.748425,14.9221859 15.0444,15.6222005 14.176575,15.6253255 L5.378625,15.6253255 L15.751575,5.3329236 Z" id="Path" fill-opacity="0.25"></path>
                    </g>
                </g>
            </g>
        </g>
    </g>
</svg>