<?xml version="1.0" encoding="UTF-8"?>
<svg width="63px" height="75px" viewBox="0 0 63 75" version="1.1" xmlns="http://www.w3.org/2000/svg" xmlns:xlink="http://www.w3.org/1999/xlink">
    <!-- Generator: Sketch 63.1 (92452) - https://sketch.com -->
    <title>strategicservices-ia1-icon4</title>
    <desc>Created with Sketch.</desc>
    <g id="/services/strategic-services" stroke="none" stroke-width="1" fill="none" fill-rule="evenodd">
        <g id="Desktop" transform="translate(-1629.000000, -7390.000000)" fill="#000000" fill-rule="nonzero">
            <g id="I/IA1" transform="translate(0.000000, 6708.000000)">
                <g id="Timeline" transform="translate(320.000000, 682.000000)">
                    <g id="strategicservices-ia1-icon4" transform="translate(1309.000000, 0.000000)">
                        <path d="M4.71254237,65.3908451 C3.8440678,65.3873239 3.14288136,64.6866197 3.13932203,63.834507 L3.13932203,18.7535211 L14.1411864,18.7535211 C16.7466102,18.75 18.8572881,16.6690141 18.8572881,14.0915493 L18.8572881,3.21126761 L51.8557627,3.21126761 C52.720678,3.21126761 53.4254237,3.9084507 53.4254237,4.76760563 L53.4254237,7.86619718 C53.4254237,7.86971831 53.4254237,7.86971831 53.4254237,7.87323944 C53.4254237,7.87323944 53.4254237,7.87676056 53.4254237,7.88028169 L53.4254237,63.834507 C53.4218644,64.6901408 52.720678,65.3873239 51.8557627,65.3908451 L4.71254237,65.3908451 Z M58.1415254,6.32042254 L56.5647458,6.32042254 L56.5647458,4.76760563 C56.5647458,2.19014085 54.4576271,0.105633803 51.8557627,0.105633803 L17.2840678,0.105633803 C16.8676271,0.105633803 16.4654237,0.267605634 16.17,0.559859155 L0.459152542,16.1021127 C0.167288136,16.3908451 0,16.7887324 0,17.2007042 L0,63.834507 C0,66.4119718 2.10711864,68.4964789 4.71254237,68.4964789 L6.28220339,68.4964789 L6.28220339,70.0528169 C6.28576271,72.6267606 8.39288136,74.7147887 10.9983051,74.7147887 L58.1379661,74.7147887 C60.7433898,74.7112676 62.850513,72.6232394 62.850513,70.0528169 L62.850513,10.9823944 C62.8540678,8.4084507 60.7398305,6.32042254 58.1415254,6.32042254 Z M32.9984746,43.6267606 L10.9983051,43.6267606 C10.1262712,43.6267606 9.42864407,44.3204225 9.42864407,45.1795775 C9.42864407,46.0387324 10.1298305,46.7323944 10.9983051,46.7323944 L32.9984746,46.7323944 C33.8669492,46.7323944 34.5681356,46.0387324 34.5681356,45.1795775 C34.5681356,44.3204225 33.8669492,43.6267606 32.9984746,43.6267606 Z M45.5664407,37.4084507 L10.9983051,37.4084507 C10.1262712,37.4084507 9.42508475,38.1021127 9.42508475,38.9612676 C9.42508475,39.8204225 10.1262712,40.5140845 10.9983051,40.5140845 L45.5664407,40.5140845 C46.4349153,40.5140845 47.139661,39.8204225 47.139661,38.9612676 C47.139661,38.1021127 46.4384746,37.4084507 45.5664407,37.4084507 Z M45.5664407,31.1901408 L10.9983051,31.1901408 C10.1262712,31.1901408 9.42508475,31.8838028 9.42508475,32.7429577 C9.42508475,33.6021127 10.1262712,34.2957746 10.9983051,34.2957746 L45.5664407,34.2957746 C46.4349153,34.2957746 47.139661,33.6021127 47.139661,32.7429577 C47.139661,31.8873239 46.4384746,31.1901408 45.5664407,31.1901408 Z M45.5664407,24.971831 L10.9983051,24.971831 C10.1262712,24.971831 9.42508475,25.665493 9.42508475,26.5246479 C9.42508475,27.3838028 10.1262712,28.0809859 10.9983051,28.0809859 L45.5664407,28.0809859 C46.4349153,28.0809859 47.139661,27.3838028 47.139661,26.5246479 C47.139661,25.665493 46.4384746,24.971831 45.5664407,24.971831 Z" id="Shape" opacity="0.25"></path>
                        <path d="M59.7111864,70.0528169 C59.7111864,70.9049296 59.0064407,71.6056338 58.1415254,71.6056338 L10.9983051,71.6056338 C10.1298305,71.6056338 9.42864407,70.9049296 9.42508475,70.0528169 L9.42508475,68.4964789 L51.8522034,68.4964789 C54.4540678,68.4964789 56.5611864,66.4119718 56.5611864,63.834507 L56.5611864,9.42605634 L58.1379661,9.42605634 C59.0028814,9.42957746 59.7076271,10.1197183 59.7076271,10.9823944 L59.7076271,70.0528169 L59.7111864,70.0528169 Z M4.71254237,65.3908451 C3.8440678,65.3873239 3.14288136,64.6866197 3.13932203,63.834507 L3.13932203,18.7535211 L14.1411864,18.7535211 C16.7466102,18.75 18.8572881,16.6690141 18.8572881,14.0915493 L18.8572881,3.21126761 L51.8557627,3.21126761 C52.720678,3.21126761 53.4254237,3.9084507 53.4254237,4.76760563 L53.4254237,7.86619718 C53.4254237,7.86971831 53.4254237,7.86971831 53.4254237,7.87323944 C53.4254237,7.87323944 53.4254237,7.87676056 53.4254237,7.88028169 L53.4254237,63.834507 C53.4218644,64.6901408 52.720678,65.3873239 51.8557627,65.3908451 L4.71254237,65.3908451 Z M15.7144068,5.40492958 L15.7144068,14.0880282 C15.7108475,14.943662 15.0061017,15.6408451 14.1411864,15.6443662 L5.36389831,15.6443662 L15.7144068,5.40492958 Z M58.1415254,6.32042254 L56.5647458,6.32042254 L56.5647458,4.76760563 C56.5647458,2.19014085 54.4576271,0.105633803 51.8557627,0.105633803 L17.2840678,0.105633803 C16.8676271,0.105633803 16.4654237,0.267605634 16.17,0.559859155 L0.459152542,16.1021127 C0.167288136,16.3908451 0,16.7887324 0,17.2007042 L0,63.834507 C0,66.4119718 2.10711864,68.4964789 4.71254237,68.4964789 L6.28220339,68.4964789 L6.28220339,70.0528169 C6.28576271,72.6267606 8.39288136,74.7147887 10.9983051,74.7147887 L58.1379661,74.7147887 C60.7433898,74.7112676 62.850513,72.6232394 62.850513,70.0528169 L62.850513,10.9823944 C62.8540678,8.4084507 60.7398305,6.32042254 58.1415254,6.32042254 Z M32.9984746,43.6267606 L10.9983051,43.6267606 C10.1262712,43.6267606 9.42864407,44.3204225 9.42864407,45.1795775 C9.42864407,46.0387324 10.1298305,46.7323944 10.9983051,46.7323944 L32.9984746,46.7323944 C33.8669492,46.7323944 34.5681356,46.0387324 34.5681356,45.1795775 C34.5681356,44.3204225 33.8669492,43.6267606 32.9984746,43.6267606 Z M45.5664407,37.4084507 L10.9983051,37.4084507 C10.1262712,37.4084507 9.42508475,38.1021127 9.42508475,38.9612676 C9.42508475,39.8204225 10.1262712,40.5140845 10.9983051,40.5140845 L45.5664407,40.5140845 C46.4349153,40.5140845 47.139661,39.8204225 47.139661,38.9612676 C47.139661,38.1021127 46.4384746,37.4084507 45.5664407,37.4084507 Z M45.5664407,31.1901408 L10.9983051,31.1901408 C10.1262712,31.1901408 9.42508475,31.8838028 9.42508475,32.7429577 C9.42508475,33.6021127 10.1262712,34.2957746 10.9983051,34.2957746 L45.5664407,34.2957746 C46.4349153,34.2957746 47.139661,33.6021127 47.139661,32.7429577 C47.139661,31.8873239 46.4384746,31.1901408 45.5664407,31.1901408 Z M45.5664407,24.971831 L10.9983051,24.971831 C10.1262712,24.971831 9.42508475,25.665493 9.42508475,26.5246479 C9.42508475,27.3838028 10.1262712,28.0809859 10.9983051,28.0809859 L45.5664407,28.0809859 C46.4349153,28.0809859 47.139661,27.3838028 47.139661,26.5246479 C47.139661,25.665493 46.4384746,24.971831 45.5664407,24.971831 Z" id="Shape"></path>
                    </g>
                </g>
            </g>
        </g>
    </g>
</svg>