<?xml version="1.0" encoding="UTF-8"?>
<svg width="75px" height="69px" viewBox="0 0 75 69" version="1.1" xmlns="http://www.w3.org/2000/svg" xmlns:xlink="http://www.w3.org/1999/xlink">
    <!-- Generator: Sketch 63.1 (92452) - https://sketch.com -->
    <title>strategicservices-ia1-icon2</title>
    <desc>Created with Sketch.</desc>
    <g id="/services/strategic-services" stroke="none" stroke-width="1" fill="none" fill-rule="evenodd">
        <g id="Desktop" transform="translate(-647.000000, -7396.000000)" fill="#000000" fill-rule="nonzero">
            <g id="I/IA1" transform="translate(0.000000, 6708.000000)">
                <g id="Timeline" transform="translate(320.000000, 682.000000)">
                    <g id="strategicservices-ia1-icon2" transform="translate(327.000000, 6.000000)">
                        <path d="M30.2884615,17.2485625 L44.7100962,17.2485625 C45.5076923,17.2485625 46.1538462,16.606 46.1538462,15.8125 C46.1538462,15.016125 45.5076923,14.375 44.7100962,14.375 L30.2884615,14.375 C29.4894231,14.375 28.8447115,15.016125 28.8447115,15.8125 C28.8447115,16.606 29.4894231,17.2485625 30.2884615,17.2485625 L30.2884615,17.2485625 Z M30.2870192,20.125 C29.4894231,20.125 28.8461538,20.7675625 28.8461538,21.5625 C28.8461538,22.3574375 29.4894231,22.9985625 30.2870192,22.9985625 L38.9423077,22.9985625 C39.7384615,22.9985625 40.3817308,22.3574375 40.3817308,21.5625 C40.3817308,20.7675625 39.7384615,20.125 38.9423077,20.125 L30.2870192,20.125 Z M30.2884615,31.625 L44.7100962,31.625 C45.5076923,31.625 46.1538462,30.981 46.1538462,30.1875 C46.1538462,29.394 45.5076923,28.7485625 44.7100962,28.7499976 L30.2884615,28.7499976 C29.4894231,28.7485625 28.8447115,29.394 28.8447115,30.1875 C28.8447115,30.981 29.4894231,31.625 30.2884615,31.625 L30.2884615,31.625 Z M30.2870192,34.4999976 C29.4894231,34.4985625 28.8461538,35.144 28.8461538,35.9375 C28.8461538,36.7295625 29.4894231,37.375 30.2870192,37.375 L38.9423077,37.375 C39.7384615,37.375 40.3817308,36.7295625 40.3817308,35.9375 C40.3817308,35.144 39.7384615,34.4985625 38.9423077,34.4999976 L30.2870192,34.4999976 Z M30.2884615,46 L44.7100962,46 C45.5076923,46 46.1538462,45.3545625 46.1538462,44.5625 C46.1538462,43.7675625 45.5076923,43.125 44.7100962,43.125 L30.2884615,43.125 C29.4894231,43.125 28.8447115,43.7675625 28.8447115,44.5625 C28.8447115,45.3545625 29.4894231,46 30.2884615,46 L30.2884615,46 Z M38.9423077,48.875 L30.2870192,48.875 C29.4894231,48.875 28.8461538,49.516125 28.8461538,50.3125 C28.8461538,51.106 29.4894231,51.75 30.2870192,51.75 L38.9423077,51.75 C39.7384615,51.75 40.3817308,51.106 40.3817308,50.3125 C40.3817308,49.516125 39.7384615,48.875 38.9423077,48.875 L38.9423077,48.875 Z M14.8456731,17.66975 C14.2788462,18.23325 14.2788462,19.14175 14.8456731,19.70525 L17.7274038,22.577375 C18,22.8505 18.3634615,22.9985625 18.7485577,22.9985625 C19.1350962,22.9985625 19.4956731,22.8505 19.7697115,22.577375 L25.5389423,16.83025 C26.1,16.2653125 26.1,15.35825 25.5389423,14.797625 C24.9735577,14.2326875 24.0605769,14.2326875 23.4995192,14.797625 L23.4966346,14.79475 L18.7485577,19.527 L16.8836538,17.66975 C16.3197115,17.109125 15.4081731,17.109125 14.8456731,17.66975 L14.8456731,17.66975 Z M23.4995192,29.1711875 L23.4966346,29.1711875 L18.7485577,33.9034375 L16.8836538,32.0461875 C16.3197115,31.4826875 15.4081731,31.4826875 14.8456731,32.0461875 C14.2788462,32.6068125 14.2788462,33.5181875 14.8456731,34.0788125 L17.7274038,36.9538125 C18,37.2240625 18.3634615,37.372125 18.7485577,37.372125 C19.1350962,37.372125 19.4956731,37.2240625 19.7697115,36.9538125 L25.5389423,31.2038125 C26.1,30.6431875 26.1,29.7318125 25.5389423,29.1711875 C24.9735577,28.6105625 24.0605769,28.6105625 23.4995192,29.1711875 L23.4995192,29.1711875 Z M23.4995192,43.54475 L23.4966346,43.54475 L18.7485577,48.2784375 L16.8836538,46.41975 C16.3197115,45.859125 15.4081731,45.859125 14.8456731,46.41975 C14.2788462,46.980375 14.2788462,47.89175 14.8456731,48.45525 L17.7274038,51.3288125 C18,51.6019375 18.3634615,51.75 18.7485577,51.75 C19.1350962,51.75 19.4956731,51.597625 19.7697115,51.3288125 L25.5389423,45.577375 C26.1,45.01675 26.1,44.105375 25.5389423,43.54475 C24.9735577,42.984125 24.0605769,42.984125 23.4995192,43.54475 L23.4995192,43.54475 Z M75,23 C75,20.2414375 73.0471154,17.9414375 70.4495192,17.3836875 C69.8927885,15.642875 68.2759615,14.375 66.3447115,14.375 L64.9038462,14.375 C62.5110577,14.375 60.5769231,16.304125 60.5769231,18.6875 L60.5769231,58.9375 L60.6865385,59.4895 L64.2908654,68.1145 C64.5144231,68.6506875 65.0379808,69 65.6235577,69 C66.20625,69 66.7298077,68.6506875 66.9533654,68.1145 L70.5605769,59.4895 L70.6716346,58.9375 L70.6716346,20.524625 C71.5283654,21.0234375 72.1139423,21.939125 72.1153846,23 L72.1153846,33.0625 C72.1153846,33.8574375 72.7600962,34.5 73.55625,34.5 C74.3524038,34.5 75,33.8574375 75,33.0625 L75,23 Z M67.7884615,58.6485625 L65.6235577,63.825 L63.4600962,58.6485625 L63.4600962,37.3735625 L67.7884615,37.3735625 L67.7884615,58.6485625 Z M67.7884615,34.5 L63.4600962,34.5 L63.4600962,18.6875 C63.4629808,17.894 64.10625,17.2514375 64.9038462,17.2485625 L66.3447115,17.2514375 C67.1394231,17.2514375 67.7841346,17.894 67.7884615,18.6875 L67.7884615,34.5 Z M68.8067308,11.077375 C69.0764423,10.81 69.2307692,10.439125 69.2307692,10.0625 L69.2307692,7.1875 C69.2278846,3.217125 66.0014423,0.002875 62.0177885,0 L15.8639423,0 C11.8802885,0 8.6524038,3.217125 8.6538462,7.1875 L8.6538462,57.5 L1.4408654,57.5 C1.0615385,57.5 0.6894231,57.6509375 0.4225962,57.91975 C0.1528846,58.187125 0,58.5565625 0,58.9375 L0,61.8125 C0,65.7814375 3.2235577,68.9985625 7.2100962,68.9985625 L50.4807692,68.9985625 C54.4644231,68.9985625 57.6908654,65.7814375 57.6908654,61.8125 L57.6908654,11.4985625 L67.7884615,11.4985625 C68.1677885,11.5 68.5384615,11.34475 68.8067308,11.077375 L68.8067308,11.077375 Z M7.2100962,66.125 C4.8230769,66.11925 2.8875,64.1915625 2.8817308,61.8125 L2.8817308,60.3735625 L43.2677885,60.3735625 L43.2677885,61.8125 C43.2677885,63.4296875 43.8043269,64.92325 44.7100962,66.125 L7.2100962,66.125 Z M54.8076923,7.1875 L54.8076923,61.8125 C54.8019231,64.1915625 52.8677885,66.11925 50.4807692,66.125 C48.0908654,66.11925 46.1581731,64.1915625 46.1509615,61.8125 L46.1538462,58.9375 C46.1538462,58.5565625 45.9995192,58.187125 45.7298077,57.91975 C45.4615385,57.6509375 45.0908654,57.5 44.7115385,57.5 L11.5370192,57.5 L11.5370192,7.1875 C11.5427885,4.807 13.4754808,2.877875 15.8639423,2.8735625 L56.2817308,2.875 C55.3701923,4.079625 54.8076923,5.5616875 54.8076923,7.1875 L54.8076923,7.1875 Z M66.3447115,8.6264375 L57.6908654,8.6264375 L57.6908654,7.1875 C57.69375,4.807 59.6264423,2.883625 62.0105769,2.875 L62.0192308,2.875 C64.40625,2.8793125 66.3389423,4.8055625 66.3447115,7.1875 L66.3447115,8.6264375 L66.3447115,8.6264375 Z" id="Fill-21"></path>
                        <path d="M66.3447115,8.6264375 L57.6908654,8.6264375 L57.6908654,7.1875 C57.69375,4.807 59.6264423,2.883625 62.0105769,2.875 L62.0192308,2.875 C64.40625,2.8793125 66.3389423,4.8055625 66.3447115,7.1875 L66.3447115,8.6264375 L66.3447115,8.6264375 Z" id="Path" fill-opacity="0.25"></path>
                        <path d="M7.2100962,66.125 C4.8230769,66.11925 2.8875,64.1915625 2.8817308,61.8125 L2.8817308,60.3735625 L43.2677885,60.3735625 L43.2677885,61.8125 C43.2677885,63.4296875 43.8043269,64.92325 44.7100962,66.125 L7.2100962,66.125 Z" id="Path" fill-opacity="0.25"></path>
                    </g>
                </g>
            </g>
        </g>
    </g>
</svg>