<?xml version="1.0" encoding="UTF-8"?><svg id="uuid-0ac51c96-9cbe-49f2-a82f-0de2e8fa1d92" xmlns="http://www.w3.org/2000/svg" viewBox="0 0 75 75"><path d="M58.49,25.63l.47,.1c.64,.13,1.06,.02,1.46-.39,1.34-1.38,2.73-2.76,4.07-4.09,.51-.5,1.01-1.01,1.52-1.51l1.01-1.02c.88-.89,1.79-1.8,2.7-2.69,.31-.31,.39-.69,.23-1.07-.1-.23-.44-.45-.69-.5-.66-.15-1.33-.27-1.99-.38-.36-.06-.71-.12-1.06-.19-.58-.11-1.16-.22-1.73-.33-.66-.13-1.32-.26-1.98-.38-.59-.11-.71-.24-.79-.82-.07-.55-.17-1.13-.28-1.71-.12-.62-.26-1.24-.39-1.86-.11-.5-.21-1.01-.32-1.51l-.02-.08c-.09-.46-.19-.93-.24-1.41-.05-.45-.23-.74-.56-.87-.37-.16-.71-.07-1.05,.27-2.77,2.78-5.78,5.8-9.48,9.48-.22,.22-.3,.41-.26,.65l.1,.65c.13,.85,.27,1.72,.42,2.57,.14,.77,.29,1.53,.44,2.29,.13,.66,.26,1.32,.38,1.98,.03,.15,0,.37-.12,.5-.32,.37-.66,.73-.98,1.08l-.41,.44-.56-.46c-.33-.26-.62-.51-.92-.75-1.7-1.43-3.65-2.62-5.95-3.63-1.76-.77-3.37-1.29-4.93-1.58-.24-.04-.48-.09-.73-.15-.59-.12-1.2-.25-1.8-.29-1.59-.1-3.13-.13-4.57-.09-1.11,.03-2.2,.15-3.25,.35-1.36,.27-2.51,.58-3.53,.96-1.31,.49-2.69,1.09-4.33,1.9-1.34,.66-2.66,1.56-4.16,2.85-1.37,1.18-2.5,2.18-3.42,3.44-.16,.21-.32,.42-.48,.63-.42,.55-.86,1.13-1.21,1.73l-.02,.04c-.74,1.25-1.51,2.53-2.08,3.88-.65,1.55-1.11,3.17-1.43,4.41-.37,1.43-.58,3.01-.63,4.83-.07,2.48,.11,4.68,.56,6.72,.15,.69,.37,1.38,.58,2.04,.12,.37,.24,.74,.34,1.12,.45,1.55,1.2,2.92,2.13,4.53,.96,1.66,2.15,3.23,3.65,4.79,1.48,1.54,2.97,2.77,4.55,3.76,1.14,.71,2.41,1.38,4,2.11,.95,.44,1.99,.81,3.2,1.15,1.72,.48,3.45,.79,5.13,.9,.24,.02,.48,.05,.71,.08,.1,.02,.21,.03,.31,.04h1.83s.07-.02,.12-.03c.1-.02,.2-.04,.31-.06,.29-.03,.58-.06,.87-.08,.58-.05,1.19-.1,1.77-.2,.71-.12,1.42-.29,2.12-.46,.24-.06,.48-.11,.71-.17,1.63-.38,3.25-.98,4.95-1.85,1.82-.92,3.5-2.03,5.01-3.3,1.92-1.61,3.42-3.25,4.59-5.01,.95-1.42,1.75-2.92,2.42-4.2,.4-.78,.76-1.68,1.08-2.75,.31-1.02,.57-2.1,.79-3.32,.17-.94,.38-2.17,.45-3.4,.08-1.41,.11-3.08-.21-4.72-.09-.45-.17-.91-.25-1.37-.16-.9-.32-1.83-.56-2.72-.25-.93-.64-1.85-1.01-2.74l-.17-.41c-.61-1.46-1.36-2.81-2.21-4.02-.18-.26-.42-.42-.68-.47-.21-.04-.42,.02-.61,.15-.42,.3-.47,.79-.14,1.28,.93,1.38,1.71,2.87,2.34,4.43,.67,1.67,1.18,3.45,1.5,5.27,.43,2.47,.45,4.98,.05,7.46-.2,1.25-.5,2.56-.9,3.89-.29,.96-.69,1.96-1.2,2.99-.61,1.22-1.26,2.36-1.94,3.39-.99,1.51-2.24,2.93-3.82,4.36-1.61,1.46-3.41,2.69-5.34,3.66-1.59,.8-3.26,1.42-4.97,1.85-1.6,.39-2.94,.61-4.23,.69-2.33,.14-4.11,.06-5.76-.26-1.33-.25-2.7-.61-4.08-1.06-1.73-.56-3.46-1.41-5.28-2.6-1.81-1.18-3.47-2.63-4.94-4.3-1.96-2.22-3.33-4.43-4.22-6.76-.51-1.35-.91-2.75-1.25-3.96-.43-1.54-.61-3.23-.6-5.47,0-1.93,.2-3.7,.58-5.38,.4-1.76,1.02-3.51,1.89-5.35,.81-1.71,1.88-3.34,3.27-4.99,1.9-2.26,4.21-4.15,6.85-5.63,2.03-1.13,4.26-1.96,6.62-2.47,1.69-.36,3.41-.55,5.11-.56h.09c2.49,0,4.87,.36,7.07,1.07,1.21,.39,2.5,.92,4.06,1.65,1.59,.75,3.17,1.82,4.98,3.36,.16,.14,.24,.26,.25,.4,0,.17-.12,.32-.25,.44-1.35,1.32-2.38,2.34-3.34,3.33-.27,.28-.49,.29-.78,.03-1.7-1.47-3.6-2.58-5.65-3.31-2.43-.87-5-1.22-7.62-1.06-1.94,.12-3.83,.55-5.77,1.33-2.21,.88-4.18,2.17-5.87,3.83-3,2.95-4.83,6.49-5.43,10.51-.27,1.78-.31,3.28-.13,4.7,.03,.25,.06,.5,.08,.75,.07,.72,.15,1.46,.38,2.14,.49,1.4,1.1,2.83,1.89,4.37,.87,1.71,2.15,3.29,3.92,4.83,2.31,2.01,4.94,3.37,7.82,4.04l.18,.04c.68,.16,1.39,.33,2.08,.37,.65,.04,1.32,.03,1.96,.02,.52,0,1.05-.01,1.57,0,.1,0,.19,0,.29,0,1.92,0,3.7-.63,5.35-1.31,1.16-.48,2.26-1.17,3.32-1.84l.14-.09c1.51-.94,2.91-2.28,4.29-4.08,1.05-1.38,1.9-2.97,2.59-4.86,.66-1.8,1.02-3.67,1.07-5.56,.06-2.13-.13-3.89-.6-5.53-.39-1.36-.92-2.69-1.59-3.97-.19-.36-.44-.52-.76-.48-.37,.03-.63,.18-.77,.42-.14,.26-.12,.61,.07,.98,.58,1.14,1.22,2.52,1.48,4.04l.03,.15c.18,1.04,.36,2.12,.44,3.18,.1,1.54-.06,3.04-.49,4.44l-.1,.32c-.3,.97-.6,1.97-1.01,2.92-.53,1.23-1.32,2.46-2.44,3.76-1.3,1.52-2.79,2.75-4.42,3.66-1.9,1.06-3.97,1.76-6.15,2.08-2.07,.3-4.13,.18-6.32-.37-2.11-.53-4.04-1.43-5.75-2.69-3.1-2.3-5.18-5.22-6.19-8.69-.28-.96-.58-2.1-.67-3.27-.2-2.55,.03-4.77,.71-6.78,.55-1.63,1.16-2.91,1.91-4.04,1.38-2.06,3.11-3.77,5.15-5.06,1.91-1.21,3.97-2,6.12-2.35,1.57-.26,3.05-.3,4.55-.14,1.42,.16,2.69,.43,3.86,.83,1.83,.63,3.59,1.64,5.24,3.01,.09,.08,.2,.18,.21,.32,0,.14-.1,.27-.19,.36-1.41,1.4-2.79,2.79-3.84,3.85-.28,.28-.51,.18-.7,.03-1.43-1.08-2.91-1.72-4.53-1.95-.96-.14-1.83-.25-2.75-.13-1.74,.24-3.08,.66-4.21,1.35-2.57,1.55-4.16,3.65-4.87,6.41-.45,1.75-.45,3.48,0,5.3,.59,2.37,1.88,4.29,3.84,5.7,2.54,1.84,5.35,2.45,8.34,1.81,2.03-.43,3.77-1.35,5.17-2.74,1.91-1.89,2.93-4.14,3.05-6.69,.03-.63,.06-1.29-.02-1.93-.07-.6-.22-1.27-.46-2.08-.11-.38-.54-.55-1.06-.43-.25,.06-.55,.44-.52,.75,.04,.33,.11,.67,.18,1,.03,.15,.06,.3,.09,.45,.38,1.97,.07,3.85-.91,5.57-1.53,2.69-3.79,4.22-6.74,4.53-1.77,.19-3.4-.1-4.83-.86-2.85-1.5-4.46-3.87-4.78-7.04-.25-2.5,.58-4.83,2.4-6.74,1.6-1.67,3.58-2.57,5.89-2.67,.13,0,.26,0,.39,0,1.81,0,3.51,.54,5.06,1.61,.1,.07,.22,.17,.23,.31,0,.1-.04,.2-.15,.31-.51,.5-1.01,1.01-1.51,1.51-.73,.73-1.46,1.46-2.19,2.19-.12,.12-.37,.19-.53,.15-.85-.23-1.56-.17-2.23,.16-1.07,.53-1.74,2-1.4,3.09,.25,.8,.81,1.45,1.53,1.79,.69,.32,1.48,.32,2.21,0,1.32-.58,1.92-1.92,1.5-3.35-.09-.31,0-.48,.14-.63,1.41-1.41,2.81-2.81,4.22-4.22l3.36-3.35c1.51-1.51,3.03-3.02,4.54-4.53,.69-.69,1.37-1.37,2.05-2.06,1.21-1.21,2.41-2.42,3.63-3.63,.14-.14,.41-.2,.6-.17,.67,.09,1.36,.21,2.13,.35,1.42,.28,2.83,.56,4.25,.85Zm-6.06-2.93c-.1-.03-.21-.14-.23-.24-.18-.85-.35-1.7-.51-2.52-.05-.24-.09-.49-.13-.73-.05-.28-.09-.55-.15-.82-.07-.37-.15-.73-.23-1.1-.08-.34-.15-.68-.22-1.02-.07-.33-.08-.72,.31-1.1,1.59-1.57,3.2-3.17,4.76-4.72,.83-.83,1.66-1.65,2.49-2.48,.08-.08,.18-.12,.27-.17,.04-.02,.08-.04,.12-.06l.11-.06,.03,.12s.02,.08,.03,.12c.02,.09,.05,.17,.07,.26l.11,.52c.12,.57,.24,1.17,.35,1.75,.19,1.02,.39,2.08,.55,3.14,.1,.63,.51,1.02,1.19,1.13,.52,.08,1.05,.19,1.55,.28,.34,.06,.67,.13,1.01,.19,.74,.13,1.49,.26,2.28,.4l1.13,.2-.09,.13c-.04,.06-.07,.11-.1,.16-.06,.1-.11,.18-.19,.25-.85,.85-1.69,1.69-2.54,2.54-1.6,1.6-3.19,3.19-4.78,4.8-.21,.22-.43,.28-.64,.28-.09,0-.19-.01-.28-.03-.83-.16-1.65-.31-2.48-.47-.9-.17-1.8-.34-2.69-.51-.33-.06-.68-.14-1.1-.25Z" style="fill:#e96424;"/></svg>