<?xml version="1.0" encoding="UTF-8"?><svg id="uuid-9ec0f49d-e849-4f7e-b7d1-5ea40261bf96" xmlns="http://www.w3.org/2000/svg" viewBox="0 0 75 75"><g><path d="M25.09,31.36c-2.59,0-3.4-4.12-4.25-8.49-.59-3.04-1.41-7.2-2.74-7.2-.86,0-1.12,.44-1.71,1.81-.89,2.05-2.24,5.15-8.86,5.15v-1.46c5.66,0,6.65-2.27,7.52-4.28,.55-1.26,1.17-2.69,3.05-2.69,2.53,0,3.33,4.07,4.17,8.37,.6,3.09,1.43,7.31,2.82,7.31,.75,0,1.49-2.59,1.97-4.3,.86-3.02,1.75-6.15,4.06-6.15,.89,0,1.3,.27,1.7,.53,.68,.45,1.81,1.19,8.18,1.19v1.46c-6.8,0-8.11-.86-8.98-1.43-.32-.21-.45-.29-.9-.29-1.22,0-2.02,2.82-2.66,5.09-.78,2.75-1.52,5.35-3.37,5.35Z" style="fill:#e96424;"/><path d="M31.9,25.93c-2.01,0-3.19-2.26-4.33-4.45-.83-1.59-1.76-3.38-2.68-3.38-.98,0-1.57,.96-2.44,2.55-.94,1.72-2.01,3.67-4.31,3.67-1.01,0-1.68-.25-2.46-.53-1.32-.48-3.13-1.14-8.16-1.14v-1.46c5.29,0,7.24,.71,8.66,1.23,.73,.27,1.21,.44,1.96,.44,1.34,0,2.07-1.15,3.03-2.91,.85-1.55,1.81-3.3,3.72-3.3,1.8,0,2.85,2.02,3.97,4.17,.9,1.72,1.91,3.67,3.03,3.67,.45,0,.88-.3,1.6-.83,1.32-.98,3.31-2.46,7.51-2.46v1.46c-3.72,0-5.41,1.25-6.64,2.17-.81,.6-1.51,1.12-2.47,1.12Z" style="fill:#e96424;"/><path d="M21.08,38.51c-1.89,0-2.38-3.02-3.01-6.85-.52-3.19-1.17-7.17-2.67-8.29-1.24-.93-2.16-.89-4.63-.8-.86,.03-1.94,.07-3.25,.07v-1.46c1.28,0,2.34-.04,3.19-.07,2.6-.09,3.9-.14,5.56,1.09,1.97,1.47,2.61,5.41,3.23,9.22,.3,1.83,.92,5.63,1.57,5.63,0,0,.74-.11,1.37-4.16,.44-2.83,.71-6.7,.97-10.44,.7-10.19,1.23-15.95,3.79-15.95,2.06,0,2.44,2.65,2.88,5.72,.42,2.91,.89,6.2,2.67,7.93,1.56,1.51,3.41,1.36,5.76,1.16,.8-.07,1.62-.14,2.48-.14v1.46c-.79,0-1.59,.07-2.35,.13-2.39,.2-4.86,.41-6.89-1.57-2.14-2.08-2.67-5.79-3.1-8.77-.3-2.1-.64-4.47-1.44-4.47,0,0-.74,.11-1.37,4.16-.44,2.83-.71,6.7-.97,10.44-.7,10.19-1.23,15.95-3.79,15.95Z" style="fill:#e96424;"/></g><g><path d="M59.5,24.23h-15c-.47,0-.85-.38-.85-.85s.38-.85,.85-.85h15c.47,0,.85,.38,.85,.85s-.38,.85-.85,.85h0Z" style="fill:#e96424;"/><path d="M59.5,30.96h-15c-.47,0-.85-.38-.85-.85s.38-.85,.85-.85h15c.47,0,.85,.38,.85,.85s-.38,.85-.85,.85h0Z" style="fill:#e96424;"/><path d="M59.5,37.69h-15c-.47,0-.85-.38-.85-.85s.38-.85,.85-.85h15c.47,0,.85,.38,.85,.85s-.38,.85-.85,.85h0Z" style="fill:#e96424;"/><path d="M59.5,44.42H26.99c-.47,0-.85-.38-.85-.85s.38-.85,.85-.85H59.5c.47,0,.85,.38,.85,.85s-.38,.85-.85,.85h0Z" style="fill:#e96424;"/><path d="M59.5,51.16H26.99c-.47,0-.85-.38-.85-.85s.38-.85,.85-.85H59.5c.47,0,.85,.38,.85,.85s-.38,.85-.85,.85h0Z" style="fill:#e96424;"/><path d="M47.24,57.89H26.99c-.47,0-.85-.38-.85-.85s.38-.85,.85-.85h20.26c.47,0,.85,.38,.85,.85s-.38,.85-.85,.85h0Z" style="fill:#e96424;"/></g><path d="M64.31,9.83h-22.43v1.7h22.43c.81,0,1.47,.66,1.47,1.47v52.35c0,.81-.66,1.47-1.47,1.47H23.15c-.81,0-1.46-.66-1.46-1.47v-24.59h-1.7v24.59c0,1.74,1.42,3.16,3.16,3.16h41.16c1.74,0,3.16-1.42,3.16-3.16V12.99c0-1.74-1.42-3.16-3.16-3.16Z" style="fill:#e96424;"/></svg>