<?xml version="1.0" encoding="UTF-8"?><svg id="uuid-d267419c-5604-4f8d-b06d-f0207144923a" xmlns="http://www.w3.org/2000/svg" viewBox="0 0 75 75"><path d="M6.35,64.82h62.29V10.18H6.35v54.64h0Zm63.37,2.16H5.27c-.6,0-1.08-.48-1.08-1.08V9.1c0-.6,.48-1.08,1.08-1.08H69.73c.6,0,1.08,.48,1.08,1.08v56.8c0,.6-.48,1.08-1.08,1.08h0Z" style="fill:#e96424;"/><g><path d="M26.09,27.97c-.28,0-.55-.11-.76-.32l-3.9-3.9c-.42-.42-.42-1.11,0-1.53,.42-.42,1.11-.42,1.53,0l3.9,3.9c.42,.42,.42,1.11,0,1.53-.21,.21-.49,.32-.76,.32h0Z" style="fill:#e96424;"/><path d="M22.19,27.97c-.28,0-.55-.11-.76-.32-.42-.42-.42-1.11,0-1.53l3.9-3.9c.42-.42,1.11-.42,1.53,0s.42,1.11,0,1.53l-3.9,3.9c-.21,.21-.49,.32-.76,.32h0Z" style="fill:#e96424;"/><path d="M43.23,44.22c-.28,0-.55-.11-.76-.32l-3.9-3.9c-.42-.42-.42-1.11,0-1.53,.42-.42,1.11-.42,1.53,0l3.9,3.9c.42,.42,.42,1.11,0,1.53-.21,.21-.49,.32-.76,.32h0Z" style="fill:#e96424;"/><path d="M39.34,44.22c-.28,0-.55-.11-.76-.32-.42-.42-.42-1.11,0-1.53l3.9-3.9c.42-.42,1.11-.42,1.53,0,.42,.42,.42,1.11,0,1.53l-3.9,3.9c-.21,.21-.49,.32-.76,.32h0Z" style="fill:#e96424;"/><path d="M50.8,59.36c-.28,0-.55-.11-.76-.32l-3.9-3.9c-.42-.42-.42-1.11,0-1.53,.42-.42,1.11-.42,1.53,0l3.9,3.9c.42,.42,.42,1.11,0,1.53-.21,.21-.49,.32-.76,.32h0Z" style="fill:#e96424;"/><path d="M46.91,59.36c-.28,0-.55-.11-.76-.32-.42-.42-.42-1.11,0-1.53l3.9-3.9c.42-.42,1.11-.42,1.53,0,.42,.42,.42,1.11,0,1.53l-3.9,3.9c-.21,.21-.49,.32-.76,.32h0Z" style="fill:#e96424;"/><path d="M27.87,53.57c-1.06,0-1.93,.86-1.93,1.93s.86,1.93,1.93,1.93,1.93-.86,1.93-1.93-.86-1.93-1.93-1.93h0Zm0,6.01c-2.25,0-4.09-1.83-4.09-4.09s1.83-4.09,4.09-4.09,4.09,1.83,4.09,4.09-1.83,4.09-4.09,4.09h0Z" style="fill:#e96424;"/><path d="M32.49,33.4c-1.06,0-1.93,.86-1.93,1.93s.86,1.93,1.93,1.93,1.93-.86,1.93-1.93-.86-1.93-1.93-1.93h0Zm0,6.01c-2.25,0-4.09-1.83-4.09-4.09s1.83-4.09,4.09-4.09,4.09,1.83,4.09,4.09-1.83,4.09-4.09,4.09h0Z" style="fill:#e96424;"/><path d="M45.85,26.18c-1.06,0-1.93,.86-1.93,1.93s.86,1.93,1.93,1.93,1.93-.86,1.93-1.93-.86-1.93-1.93-1.93h0Zm0,6.01c-2.25,0-4.09-1.83-4.09-4.09s1.83-4.09,4.09-4.09,4.09,1.83,4.09,4.09-1.83,4.09-4.09,4.09h0Z" style="fill:#e96424;"/><path d="M47.52,26.69c-.18,0-.35-.04-.52-.13-.52-.29-.71-.94-.43-1.47,1.3-2.37,1.59-5,1.6-5.02,.06-.59,.59-1.02,1.19-.96,.59,.06,1.02,.59,.96,1.19-.01,.12-.33,3.08-1.85,5.84-.2,.36-.57,.56-.95,.56h0Z" style="fill:#e96424;"/><path d="M34.86,34.22c-.33,0-.65-.15-.86-.43-.36-.47-.27-1.15,.21-1.51,2.45-1.86,4.76-2.59,6.81-3.24,.63-.2,1.22-.39,1.77-.59,.56-.21,1.18,.07,1.39,.63,.21,.56-.07,1.18-.63,1.39-.6,.23-1.23,.43-1.88,.63-1.88,.59-4,1.27-6.15,2.9-.2,.15-.43,.22-.65,.22h0Z" style="fill:#e96424;"/><path d="M27.79,53.57s-.01,0-.02,0c-.6-.01-1.07-.5-1.06-1.1,.07-3.57,.56-10.3,3.12-15.16,.28-.53,.93-.73,1.46-.45s.73,.93,.45,1.46c-2.44,4.63-2.82,11.47-2.87,14.19-.01,.59-.49,1.06-1.08,1.06h0Z" style="fill:#e96424;"/><path d="M52.81,20.9c-.35,0-.69-.17-.9-.48l-2.47-3.65-3.08,3.34c-.4,.44-1.09,.47-1.53,.06-.44-.4-.47-1.09-.06-1.53l4.01-4.34c.22-.24,.55-.37,.88-.34,.33,.03,.63,.2,.81,.47l3.23,4.79c.33,.49,.2,1.17-.29,1.5-.19,.13-.4,.18-.6,.18h0Z" style="fill:#e96424;"/></g></svg>