<svg xmlns="http://www.w3.org/2000/svg" width="53.227" height="53.227" viewBox="0 0 53.227 53.227"><defs><style>.a{fill:#f96c0d;}</style></defs><g transform="translate(-1 -1)"><path class="a" d="M44.16,31a11.16,11.16,0,1,0,11.16,11.16A11.173,11.173,0,0,0,44.16,31Zm0,20.6c-.923,0-1.906-1.311-2.583-3.434h5.166C46.066,50.293,45.083,51.6,44.16,51.6Zm-3.021-5.151a21.289,21.289,0,0,1-.395-3.434h6.832a21.385,21.385,0,0,1-.395,3.434Zm-6.379-3.434h4.268a23.543,23.543,0,0,0,.351,3.434h-3.62a9.357,9.357,0,0,1-1-3.434Zm9.4-10.3c.923,0,1.906,1.311,2.583,3.434H41.577c.677-2.123,1.66-3.434,2.583-3.434Zm3.021,5.151a21.288,21.288,0,0,1,.395,3.434H40.744a21.386,21.386,0,0,1,.395-3.434ZM39.028,41.3H34.761a9.357,9.357,0,0,1,1-3.434h3.62A23.307,23.307,0,0,0,39.028,41.3Zm10.264,1.717H53.56a9.358,9.358,0,0,1-1,3.434H48.94A23.3,23.3,0,0,0,49.292,43.019Zm0-1.717a23.544,23.544,0,0,0-.351-3.434h3.62a9.374,9.374,0,0,1,1,3.434Zm2.147-5.151h-2.9a11.9,11.9,0,0,0-1.194-2.868A9.476,9.476,0,0,1,51.44,36.151ZM40.972,33.283a11.9,11.9,0,0,0-1.194,2.868h-2.9A9.476,9.476,0,0,1,40.972,33.283ZM36.881,48.17h2.9a11.9,11.9,0,0,0,1.194,2.868A9.476,9.476,0,0,1,36.881,48.17Zm10.468,2.868a11.9,11.9,0,0,0,1.194-2.868h2.9A9.476,9.476,0,0,1,47.349,51.038Z" transform="translate(-4.528 -4.245)"/><path class="a" d="M40.491,21.648V14.677a6.865,6.865,0,1,0-6.8-10.243H7.488a6.489,6.489,0,0,0-6.43,7.357L4.224,35.22,2.018,37.426l.718,1.5c-.059.134-.116.269-.168.4L1,39.883v6.366l1.568.554q.08.2.168.4l-.718,1.5,4.5,4.5,1.5-.718c.134.059.269.116.4.168l.552,1.568h6.366l.554-1.568q.2-.08.4-.168l1.5.718,4.5-4.5-.718-1.5c.059-.134.116-.269.168-.4l1.567-.552V39.884l-1.568-.554q-.08-.2-.168-.4l.718-1.5-3.866-3.866L16.03,15.14l18.263-2.962a6.86,6.86,0,0,0,4.48,2.5v6.971A14.6,14.6,0,0,0,25.038,36.2v1.717h1.717V36.2A12.883,12.883,0,0,1,38.774,23.365v1.673h1.717V23.365A12.883,12.883,0,0,1,52.51,36.2v1.717h1.717V36.2A14.6,14.6,0,0,0,40.491,21.648ZM2.76,11.561a4.772,4.772,0,0,1,4.729-5.41H8.935A4.783,4.783,0,0,1,13.666,10.3l3.025,23.151-.391.187c-.134-.059-.269-.116-.4-.168l-.553-1.568H8.978l-.554,1.568q-.2.08-.4.168l-1.5-.718-.769.769ZM19.865,39.3a8.543,8.543,0,0,1,.41.985l.135.393L21.6,41.1v3.936l-1.2.422-.135.393a8.393,8.393,0,0,1-.41.985l-.183.373.548,1.145-2.783,2.783L16.3,50.588l-.373.183a8.543,8.543,0,0,1-.985.41l-.393.135-.421,1.193H10.192l-.422-1.2-.393-.135a8.393,8.393,0,0,1-.985-.41l-.373-.183-1.145.548L4.091,48.351l.548-1.145-.183-.373a8.549,8.549,0,0,1-.41-.984l-.135-.393-1.194-.422V41.1l1.2-.422.135-.393a8.393,8.393,0,0,1,.41-.985l.183-.373L4.092,37.78,6.876,35l1.145.548.373-.183a8.543,8.543,0,0,1,.985-.41l.393-.135.421-1.193h3.936l.422,1.2.393.135a8.394,8.394,0,0,1,.985.41l.373.183L17.447,35l2.783,2.783-.548,1.145ZM15.807,13.437l-.439-3.355a6.464,6.464,0,0,0-2.052-3.931H32.99a6.762,6.762,0,0,0,.342,4.444ZM34.481,7.868a5.151,5.151,0,1,1,5.151,5.151A5.156,5.156,0,0,1,34.481,7.868Z"/><path class="a" d="M12.868,42a6.868,6.868,0,1,0,6.868,6.868A6.876,6.876,0,0,0,12.868,42Zm0,12.019a5.151,5.151,0,1,1,5.151-5.151A5.156,5.156,0,0,1,12.868,54.019Z" transform="translate(-0.708 -5.802)"/><path class="a" d="M13.434,46a3.434,3.434,0,1,0,3.434,3.434A3.437,3.437,0,0,0,13.434,46Zm0,5.151a1.717,1.717,0,1,1,1.717-1.717A1.719,1.719,0,0,1,13.434,51.151Z" transform="translate(-1.274 -6.368)"/><path class="a" d="M48.868,8.434a3.434,3.434,0,1,0-3.434,3.434A3.437,3.437,0,0,0,48.868,8.434Zm-5.151,0a1.717,1.717,0,1,1,1.717,1.717A1.719,1.719,0,0,1,43.717,8.434Z" transform="translate(-5.802 -0.566)"/><path class="a" d="M11.868,12.434a3.434,3.434,0,1,0-3.434,3.434A3.437,3.437,0,0,0,11.868,12.434Zm-5.151,0a1.717,1.717,0,1,1,1.717,1.717A1.719,1.719,0,0,1,6.717,12.434Z" transform="translate(-0.566 -1.132)"/></g></svg>