<?xml version="1.0" encoding="UTF-8"?><svg id="uuid-4a7823e0-d531-41f2-b181-be0bad73d340" xmlns="http://www.w3.org/2000/svg" viewBox="0 0 75 75"><path d="M52.69,44.48c-.54-2.28-1.94-3.71-4.2-4.24,0-.4-.02-.81-.09-1.21-.32-1.98-1.47-3.79-3.15-4.98-1.69-1.19-3.7-1.65-5.66-1.28-2.25,.41-4.02,1.65-5.28,3.74-.55-.32-1.13-.49-1.75-.51-2.09-.06-3.92,1.39-4.33,3.46-.05,.23-.1,.31-.32,.41-2.28,1.08-3.62,3.62-3.18,6.04,.53,2.89,2.89,4.84,5.87,4.84,2.42,0,4.83,0,7.25,0s4.94,0,7.41,0h1.93c1.3,0,2.45-.38,3.42-1.11,1.06-.81,1.76-1.94,2.07-3.36,0-.04,.01-.07,.01-.11v-1.57s0-.08-.01-.11Zm-13.79,4.07s-.03,0-.05,0h-2.45c-1.98,0-3.95,0-5.93,0-1.88,0-3.26-1.17-3.59-3.04-.3-1.67,.79-3.44,2.42-3.95l.18-.06c.6-.18,.79-.34,.79-1v-.25c.04-.92,.46-1.55,1.31-1.9,.81-.34,1.56-.22,2.27,.36,.06,.05,.12,.11,.24,.24,.33,.33,.55,.57,.92,.49,.36-.08,.47-.39,.64-.85,.91-2.5,3.03-3.91,5.71-3.74,2.41,.15,4.61,2.22,4.91,4.62,.07,.56,.07,1.1,0,1.63-.04,.32-.08,.63,.14,.88,.22,.25,.53,.24,.85,.23,1-.03,1.79,.29,2.41,.96,.95,1.02,1.16,2.18,.64,3.43-.53,1.27-1.48,1.93-2.83,1.94-2.02,.03-4.04,.02-6.06,.02h-2.52Z" style="fill:#e96424;"/><path d="M32.47,68.85c1.29,1.11,2.87,1.79,4.56,1.97,.42,.06,.84,.09,1.26,.09,2.3,.19,4.49-.89,5.72-2.81l.19-.31,.36,.03c.76,.06,3.46,.27,6.01,.27,1.56,.09,3.09-.08,4.57-.49l.27-.1c1.97-.78,5.64-2.23,7.42-9.06l.09-.34,.35-.09c3.37-.84,5.81-4.52,5.81-8.75v-11.24c.2-3.82-2.05-7.31-5.59-8.7l-.35-.14-.03-.38c-.96-13.88-11.82-24.75-24.73-24.75S14.49,15.16,13.54,28.81l-.03,.38-.36,.14c-3.57,1.36-5.85,4.83-5.68,8.65v11.29c0,4.84,3.4,8.93,7.42,8.93h5.92c.67-.03,1.19-.61,1.15-1.3l-.02-26.39c.04-.37-.04-.68-.23-.92-.19-.24-.47-.4-.78-.44h-4.66s.06-.65,.06-.65c1.09-12.6,10.36-21.74,22.03-21.74s20.95,9.15,22.05,21.75l.06,.65h-4.45c-.38-.02-.73,.1-1,.33-.21,.19-.36,.45-.4,.73l-.03,.14v26.53c.03,.72,.64,1.29,1.38,1.3h4.12l-.16,.73c-.64,2.85-2.75,5.21-5.53,6.14l-.43,.15c-3.17,.37-6.36,.35-9.51-.05l-.33-.04-.14-.3c-.32-.66-.79-1.25-1.36-1.7-1.25-1-2.76-1.62-4.35-1.79-.42-.06-.84-.09-1.26-.09-3.28,0-5.77,1.63-6.06,3.97-.14,1.39,.42,2.76,1.52,3.64ZM19.25,31.88v23.61h-4.36c-2.55,0-4.71-2.84-4.71-6.21v-11.26c0-3.32,2.16-6.13,4.71-6.13h4.36Zm38.65,23.69h-.61s0-23.51,0-23.51h1.81c1.85-.02,2.7-.03,3.03-.06,2.42,.17,4.23,2.75,4.23,6.02v11.27c0,3.3-1.93,6.09-4.32,6.24-.21,0-2.73,.02-4.14,.04Zm-23.78,9.16c.82-.64,2.39-.96,3.82-.77,1.11,.11,2.17,.54,3.05,1.24,.42,.3,.7,.8,.74,1.35v.1s-.02,.1-.02,.1c-.24,.88-1.71,1.54-3.41,1.54-.3,0-.61-.02-.92-.06-1.69-.22-3.96-1.33-3.8-2.65,.04-.29,.22-.58,.54-.83Z" style="fill:#e96424;"/></svg>