<?xml version="1.0" encoding="UTF-8"?><svg id="uuid-639f54ff-4b86-4a2c-9d2c-4f46fd0a3a1a" xmlns="http://www.w3.org/2000/svg" viewBox="0 0 75 75"><path d="M68.6,60.2H6.4c-1.7,0-3.09-1.38-3.09-3.07V8.48c0-1.69,1.39-3.07,3.09-3.07h62.2c1.7,0,3.09,1.38,3.09,3.07V57.14c0,1.69-1.39,3.07-3.09,3.07ZM6.4,7.44c-.59,0-1.07,.47-1.07,1.04V57.14c0,.57,.48,1.04,1.07,1.04h62.2c.59,0,1.06-.47,1.06-1.04V8.48c0-.57-.48-1.04-1.06-1.04H6.4Z" style="fill:#e96424;"/><path d="M65.83,55.56H9.17c-.56,0-1.01-.45-1.01-1.01V11.07c0-.56,.45-1.01,1.01-1.01h56.65c.56,0,1.01,.45,1.01,1.01V54.55c0,.56-.45,1.01-1.01,1.01Zm-55.64-2.03h54.63V12.08H10.19V53.54Z" style="fill:#e96424;"/><path d="M50.73,69.58H23.25c-.56,0-1.01-.45-1.01-1.01v-3.32c0-.56,.45-1.01,1.01-1.01h27.48c.56,0,1.01,.45,1.01,1.01v3.32c0,.56-.45,1.01-1.01,1.01Zm-26.47-2.03h25.45v-1.3H24.26v1.3Z" style="fill:#e96424;"/><path d="M46.85,66.26H27.6c-.36,0-.7-.2-.88-.51-.18-.32-.18-.71,0-1.02l3.6-6.06c.18-.31,.51-.5,.87-.5h12.05c.36,0,.69,.19,.87,.5l3.6,6.06c.19,.31,.19,.7,0,1.02-.18,.32-.52,.51-.88,.51Zm-17.47-2.03h15.69l-2.4-4.03h-10.9l-2.4,4.03Z" style="fill:#e96424;"/><path d="M37.87,46.16c-10.69,0-19.91-8.79-23.39-12.57-.33-.36-.33-.91,0-1.26,3.46-3.78,12.67-12.56,23.39-12.56s19.91,8.79,23.39,12.57c.33,.36,.33,.91,0,1.26-3.46,3.78-12.67,12.56-23.39,12.56Zm-21.42-13.2c3.68,3.86,12.02,11.33,21.42,11.33s17.75-7.47,21.42-11.33c-3.68-3.86-12.02-11.33-21.42-11.33s-17.75,7.47-21.42,11.33Z" style="fill:#e96424;"/><path d="M37.87,42.51c-6.27,0-11.37-5.1-11.37-11.37s5.1-11.37,11.37-11.37,11.37,5.1,11.37,11.37-5.1,11.37-11.37,11.37Zm0-20.87c-5.24,0-9.5,4.26-9.5,9.5s4.26,9.5,9.5,9.5,9.5-4.26,9.5-9.5-4.26-9.5-9.5-9.5Z" style="fill:#e96424;"/><path d="M37.87,36.35c-2.87,0-5.21-2.34-5.21-5.21s2.34-5.21,5.21-5.21,5.21,2.34,5.21,5.21-2.34,5.21-5.21,5.21Zm0-8.56c-1.84,0-3.34,1.5-3.34,3.34s1.5,3.34,3.34,3.34,3.34-1.5,3.34-3.34-1.5-3.34-3.34-3.34Z" style="fill:#e96424;"/></svg>