<?xml version="1.0" encoding="UTF-8"?><svg id="uuid-38a8e48f-c39d-449a-ad9c-c3bd389e04a7" xmlns="http://www.w3.org/2000/svg" viewBox="0 0 75 75"><path d="M58.65,21.22l-2.82-.78c-.37-1.22-.86-2.41-1.47-3.54l1.45-2.55c.26-.46,.18-1.03-.19-1.4l-5.1-5.1c-.37-.37-.95-.45-1.4-.19l-2.55,1.45c-1.13-.61-2.32-1.1-3.54-1.47l-.78-2.82c-.14-.5-.6-.86-1.13-.86h-7.21c-.52,0-.99,.35-1.13,.86l-.78,2.82c-1.22,.37-2.41,.86-3.54,1.47l-2.55-1.45c-.46-.26-1.03-.18-1.4,.19l-5.1,5.1c-.37,.37-.45,.95-.19,1.4l1.45,2.55c-.61,1.13-1.1,2.32-1.47,3.54l-2.82,.78c-.5,.14-.86,.6-.86,1.13v7.21c0,.52,.35,.99,.86,1.13l2.82,.78c.37,1.22,.86,2.41,1.47,3.54l-1.45,2.55c-.26,.46-.18,1.03,.19,1.4l5.1,5.1c.37,.37,.95,.45,1.4,.19l2.55-1.45c1.13,.61,2.32,1.1,3.54,1.47l.78,2.82c.14,.5,.6,.86,1.13,.86h7.21c.52,0,.99-.35,1.13-.86l.78-2.82c1.22-.37,2.41-.86,3.54-1.47l2.55,1.45c.45,.26,1.03,.18,1.4-.19l5.1-5.1c.37-.37,.45-.95,.19-1.4l-1.45-2.55c.61-1.13,1.1-2.32,1.47-3.54l2.82-.78c.5-.14,.86-.6,.86-1.13v-7.21c0-.52-.35-.99-.86-1.13Zm-4.9,9c-.38,1.47-.97,2.88-1.75,4.2-.21,.36-.21,.81,0,1.17l1.33,2.35-3.84,3.84-2.35-1.33c-.36-.21-.81-.2-1.17,0-1.32,.77-2.74,1.36-4.2,1.74-.4,.1-.72,.42-.83,.82l-.72,2.6h-5.43l-.72-2.6c-.11-.4-.43-.71-.83-.82-1.47-.38-2.88-.97-4.2-1.74-.36-.21-.81-.21-1.17,0l-2.35,1.33-3.84-3.84,1.33-2.35c.21-.36,.2-.81,0-1.17-.77-1.32-1.36-2.74-1.75-4.2-.1-.4-.42-.72-.82-.83l-2.6-.72v-5.43l2.6-.72c.4-.11,.71-.43,.82-.83,.38-1.47,.97-2.88,1.75-4.2,.21-.36,.21-.81,0-1.17l-1.33-2.35,3.84-3.84,2.35,1.33c.36,.21,.81,.2,1.17,0,1.32-.77,2.74-1.36,4.2-1.74,.4-.1,.72-.42,.83-.82l.72-2.6h5.43l.72,2.6c.11,.4,.43,.71,.83,.82,1.47,.38,2.88,.97,4.2,1.75,.36,.21,.81,.21,1.17,0l2.35-1.33,3.84,3.84-1.33,2.35c-.2,.36-.2,.81,0,1.17,.77,1.32,1.36,2.74,1.75,4.2,.1,.4,.42,.72,.82,.83l2.6,.72v5.43l-2.6,.72c-.4,.11-.71,.43-.82,.83Z" style="fill:#e96424;"/><path d="M37.5,15.27c-5.89,0-10.67,4.79-10.67,10.67s4.79,10.67,10.67,10.67,10.67-4.79,10.67-10.67-4.79-10.67-10.67-10.67Zm8.34,10.67c0,4.6-3.74,8.34-8.34,8.34s-8.33-3.74-8.33-8.34,3.74-8.34,8.33-8.34,8.34,3.74,8.34,8.34Z" style="fill:#e96424;"/><path d="M37.5,60.07c-.48,0-.87-.39-.87-.87v-12.41c0-.48,.39-.87,.87-.87s.87,.39,.87,.87v12.41c0,.48-.39,.87-.87,.87h0Z" style="fill:#e96424;"/><path d="M37.5,60.17c-2.44,0-4.42,1.98-4.42,4.42s1.98,4.42,4.42,4.42,4.42-1.98,4.42-4.42-1.98-4.42-4.42-4.42h0Zm0,10.59c-3.4,0-6.16-2.77-6.16-6.16s2.76-6.16,6.16-6.16,6.16,2.76,6.16,6.16-2.76,6.16-6.16,6.16h0Z" style="fill:#e96424;"/><path d="M64.81,48.57c-2.44,0-4.42,1.98-4.42,4.42s1.98,4.42,4.42,4.42,4.42-1.98,4.42-4.42-1.98-4.42-4.42-4.42h0Zm0,10.59c-3.4,0-6.16-2.77-6.16-6.16s2.76-6.16,6.16-6.16,6.16,2.76,6.16,6.16-2.76,6.16-6.16,6.16h0Z" style="fill:#e96424;"/><path d="M60.91,50.22c-.22,0-.44-.08-.61-.25l-8.67-8.67c-.34-.34-.34-.89,0-1.23,.34-.34,.89-.34,1.23,0l8.67,8.67c.34,.34,.34,.89,0,1.23-.17,.17-.39,.25-.61,.25h0Z" style="fill:#e96424;"/><path d="M10.19,48.57c-2.44,0-4.42,1.98-4.42,4.42s1.98,4.42,4.42,4.42,4.42-1.98,4.42-4.42-1.98-4.42-4.42-4.42h0Zm0,10.59c-3.4,0-6.16-2.77-6.16-6.16s2.76-6.16,6.16-6.16,6.16,2.76,6.16,6.16-2.76,6.16-6.16,6.16h0Z" style="fill:#e96424;"/><path d="M14.09,50.22c-.22,0-.45-.08-.61-.25-.34-.34-.34-.89,0-1.23l8.67-8.67c.34-.34,.89-.34,1.23,0,.34,.34,.34,.89,0,1.23l-8.67,8.67c-.17,.17-.39,.25-.61,.25h0Z" style="fill:#e96424;"/></svg>