<?xml version="1.0" encoding="UTF-8"?><svg id="uuid-f2804059-f049-486b-a7bf-ce5cf7af96b7" xmlns="http://www.w3.org/2000/svg" viewBox="0 0 75 75"><path d="M35.68,11.86c-.48-.36-1.15-.26-1.51,.21-.36,.48-.26,1.15,.21,1.51,.01,.01,.03,.02,.04,.03l1.54,1.1c.44,.32,1.05,.25,1.42-.14l3.49-3.74c.42-.43,.41-1.11-.02-1.53s-1.11-.41-1.53,.02c-.01,.01-.02,.02-.03,.04l-2.84,3.05-.77-.55Z" style="fill:#ea6423;"/><path d="M12.25,26.73l-.06,5.29h0c.02,.61,.51,1.08,1.11,1.06,.57-.02,1.03-.47,1.05-1.04l.04-4.22h22.15v3.16c-.02,.6,.45,1.09,1.04,1.11,.6,.02,1.09-.45,1.11-1.04,0-.02,0-.05,0-.07v-3.16h21.32v4.21c-.02,.6,.45,1.09,1.04,1.11,.6,.02,1.09-.45,1.11-1.04,0-.02,0-.05,0-.07v-5.29c0-.6-.48-1.08-1.08-1.08h-22.39v-.83c-.02-.6-.52-1.06-1.11-1.04-.57,.02-1.02,.47-1.04,1.04v.83H13.33c-.59,0-1.07,.48-1.08,1.07h0Z" style="fill:#ea6423;"/><path d="M65.79,45.73c.6,0,1.08-.48,1.08-1.08h0v-9.85c0-.6-.48-1.08-1.08-1.08h-9.81c-.6,0-1.08,.48-1.08,1.08h0v9.85c0,.6,.48,1.08,1.08,1.08h9.81Zm-8.73-2.16v-7.69h7.66v7.69h-7.66Z" style="fill:#ea6423;"/><path d="M18.46,45.73c.6,0,1.08-.48,1.08-1.08h0v-9.85c0-.6-.48-1.08-1.08-1.08H8.65c-.6,0-1.08,.48-1.08,1.08h0v9.85c0,.6,.48,1.08,1.08,1.08h9.81Zm-8.73-2.16v-7.69h7.66v7.69h-7.66Z" style="fill:#ea6423;"/><path d="M42.12,45.73c.6,0,1.08-.48,1.08-1.08h0v-9.85c0-.6-.48-1.08-1.08-1.08h-9.81c-.6,0-1.08,.48-1.08,1.08h0v9.85c0,.6,.48,1.08,1.08,1.08h9.81Zm-8.73-2.16v-7.69h7.66v7.69h-7.66Z" style="fill:#ea6423;"/><path d="M58.67,41.27l1.35,.68c.4,.2,.87,.13,1.2-.16l2.37-2.11c.46-.37,.54-1.05,.16-1.52-.37-.46-1.05-.54-1.52-.16-.03,.02-.06,.05-.08,.07l-1.82,1.62-.7-.35c-.54-.26-1.18-.04-1.44,.49-.26,.53-.05,1.17,.48,1.43Z" style="fill:#ea6423;"/><path d="M35,41.19l1.35,.68c.4,.2,.87,.13,1.2-.16l2.37-2.11c.42-.42,.43-1.1,0-1.53-.39-.39-1.01-.43-1.44-.08l-1.82,1.63-.7-.35c-.54-.26-1.18-.04-1.44,.49-.26,.53-.05,1.17,.48,1.43h0Z" style="fill:#ea6423;"/><path d="M37.12,53.76v3.16c-.02,.6,.45,1.09,1.04,1.11,.6,.02,1.09-.45,1.11-1.04,0-.02,0-.05,0-.07v-3.16h21.32v4.21c-.02,.6,.45,1.09,1.04,1.11,.6,.02,1.09-.45,1.11-1.04,0-.02,0-.05,0-.07v-5.29c0-.6-.48-1.08-1.08-1.08h-22.39v-.83c-.02-.6-.52-1.06-1.11-1.04-.57,.02-1.02,.47-1.04,1.04v.83" style="fill:#ea6423;"/><path d="M66.35,71.67c.6,0,1.08-.48,1.08-1.08h0v-9.85c0-.6-.48-1.08-1.08-1.08h-9.81c-.6,0-1.08,.48-1.08,1.08h0v9.85c0,.6,.48,1.08,1.08,1.08h9.81Zm-8.73-2.16v-7.69h7.66v7.69h-7.66Z" style="fill:#ea6423;"/><path d="M42.69,71.67c.6,0,1.08-.48,1.08-1.08h0v-9.85c0-.6-.48-1.08-1.08-1.08h-9.81c-.6,0-1.08,.48-1.08,1.08h0v9.85c0,.6,.48,1.08,1.08,1.08h9.81Zm-8.73-2.16v-7.69h7.66v7.69h-7.66Z" style="fill:#ea6423;"/><path d="M59.24,67.22l1.35,.68c.4,.2,.87,.13,1.2-.16l2.37-2.11c.46-.37,.54-1.05,.16-1.52-.37-.46-1.05-.54-1.52-.16-.03,.02-.06,.05-.08,.07l-1.82,1.62-.7-.35c-.54-.26-1.18-.04-1.44,.49-.26,.53-.05,1.17,.48,1.43Z" style="fill:#ea6423;"/><path d="M35.57,67.14l1.35,.68c.4,.2,.87,.13,1.2-.16l2.37-2.11c.42-.42,.43-1.1,0-1.53-.39-.39-1.01-.43-1.44-.08l-1.82,1.63-.7-.35c-.54-.26-1.18-.04-1.44,.49-.26,.53-.05,1.17,.48,1.43h0Z" style="fill:#ea6423;"/><path d="M37.56,4.93c3.88,0,7.03,3.15,7.03,7.03s-3.15,7.03-7.03,7.03-7.03-3.15-7.03-7.03,3.15-7.03,7.03-7.03m0-1.6c-4.77,0-8.63,3.86-8.63,8.63s3.86,8.63,8.63,8.63,8.63-3.86,8.63-8.63-3.86-8.63-8.63-8.63h0Z" style="fill:#ea6423;"/></svg>