<?xml version="1.0" encoding="UTF-8"?><svg id="uuid-828e6303-2a1c-46c5-baa2-39a2f3caeb4a" xmlns="http://www.w3.org/2000/svg" viewBox="0 0 75 75"><g><path d="M34.23,8.7c-4.65,0-9.29,0-13.94,0-.76,0-1.52,.12-2.22,.45-2.06,.98-2.96,2.69-2.96,4.91,0,6.25,0,12.51,0,18.76,0,3.6,0,7.2,0,10.8,0,2.72-.02,5.45,0,8.17,.03,2.38,1.74,4.08,3.76,4.08,.42,0,.85-.07,1.28-.23,1.65-.59,2.6-2.03,2.6-4.01,0-4.87,0-9.74,0-14.61,0-5.98,0-11.95,0-17.93,0-1.8,.94-2.73,2.73-2.74,.76,0,1.53,0,2.29,0,1.13,0,2.26,0,3.38,0,3.59,0,7.19,0,10.78,0,4.27,0,8.55,0,12.83,0,0,0,0,0,0,0,.86,0,1.57,.22,2.15,.87,.56,.63,.57,1.38,.57,2.15,0,11.4,0,22.8,0,34.2,0,.44-.01,.88,.1,1.31,.15,.57,.54,.86,1.1,.9,.03,0,.07,0,.1,0,.69,0,1.11-.57,1.11-1.51,0-11.84,0-23.68,0-35.52,0-.35-.01-.69-.1-1.03-.58-2.28-2.47-3.79-4.84-3.79-4.85,0-9.7,0-14.55,0s-9.78,0-14.67,0c-3.37,0-5.4,2.02-5.4,5.37,0,10.66,0,21.32,0,31.99,0,.28,.01,.56-.01,.83-.06,.72-.54,1.21-1.22,1.28-.06,0-.13,0-.19,0-.66,0-1.15-.36-1.32-1.03-.08-.31-.08-.64-.08-.96,0-12.39,0-24.79,0-37.18,0-2.19,.94-3.13,3.11-3.13,8.29,0,16.57,0,24.86,0h0c.12,0,.25,0,.37,0,.13,0,.26,0,.39-.02,.75-.09,1.21-.79,1.01-1.52-.16-.58-.67-.89-1.55-.89-3.82,0-7.65,0-11.47,0h0Z" style="fill:#ea6423;"/><path d="M52.64,8.66c-.41,0-.83,.05-1.24,.14-.64,.15-.95,.66-.86,1.3,.09,.65,.5,.96,1.12,1.01,.12,0,.24,.01,.36,.01,.2,0,.4,0,.6,0h0c.2,0,.4,0,.6,0,.12,0,.24,0,.36-.01,.65-.04,1.12-.47,1.15-1.07,.03-.62-.27-1.1-.88-1.24-.4-.09-.82-.14-1.23-.14h0Z" style="fill:#ea6423;"/><g><path d="M36.3,61.6c-3.18,0-5.76-2.59-5.76-5.76s2.59-5.76,5.76-5.76,5.76,2.59,5.76,5.76-2.59,5.76-5.76,5.76Zm0-9.93c-2.3,0-4.16,1.87-4.16,4.16s1.87,4.17,4.16,4.17,4.17-1.87,4.17-4.17-1.87-4.16-4.17-4.16Z" style="fill:#ea6423;"/><path d="M37.79,67.14h-2.99c-.35,0-.65-.22-.76-.55l-.71-2.16c-.32-.11-.65-.25-.98-.4l-2.06,1.05c-.31,.16-.68,.1-.93-.15l-2.11-2.11c-.24-.25-.3-.62-.15-.93l1.05-2.06c-.15-.32-.3-.64-.42-.99l-2.14-.7c-.33-.11-.55-.41-.55-.76v-2.99c0-.35,.22-.65,.55-.76l2.16-.71c.11-.33,.25-.65,.4-.98l-1.05-2.06c-.16-.31-.1-.68,.15-.93l2.11-2.11c.25-.24,.62-.3,.93-.15l2.06,1.05c.32-.15,.64-.3,.99-.42l.7-2.14c.11-.33,.41-.55,.76-.55h2.99c.35,0,.65,.22,.76,.55l.71,2.16c.33,.11,.65,.25,.98,.4l2.06-1.05c.31-.16,.68-.1,.93,.15l2.11,2.11c.24,.25,.3,.62,.15,.93l-1.05,2.06c.15,.32,.3,.64,.42,.99l2.14,.7c.33,.11,.55,.41,.55,.76v2.99c0,.35-.22,.65-.55,.76l-2.16,.71c-.11,.33-.25,.65-.4,.98l1.05,2.06c.16,.31,.1,.68-.15,.93l-2.11,2.11c-.25,.25-.62,.3-.93,.15l-2.06-1.05c-.32,.15-.64,.3-.99,.42l-.7,2.14c-.11,.33-.41,.55-.76,.55Zm-2.41-1.6h1.83l.65-2c.09-.27,.31-.47,.58-.53,.48-.11,.95-.35,1.45-.59,.23-.11,.5-.11,.72,0l1.9,.97,1.29-1.29-.97-1.9c-.12-.23-.12-.49,0-.72,.26-.52,.46-1,.61-1.5,.08-.25,.27-.44,.52-.53l2-.65v-1.83l-2-.65c-.27-.09-.47-.31-.53-.58-.11-.48-.35-.95-.59-1.45-.11-.23-.11-.49,0-.72l.97-1.9-1.29-1.29-1.9,.97c-.23,.12-.49,.12-.72,0-.52-.26-1.01-.46-1.5-.61-.25-.08-.44-.27-.52-.52l-.65-2h-1.83l-.65,2c-.09,.27-.31,.47-.58,.53-.48,.11-.95,.35-1.45,.6-.23,.11-.49,.11-.72,0l-1.9-.97-1.29,1.29,.97,1.9c.12,.23,.12,.49,0,.72-.26,.52-.46,1.01-.61,1.5-.08,.25-.27,.44-.52,.52l-2,.65v1.83l2,.65c.27,.09,.47,.31,.53,.58,.11,.48,.35,.95,.59,1.44,.11,.23,.11,.5,0,.72l-.97,1.9,1.29,1.29,1.9-.97c.23-.12,.49-.12,.72,0,.52,.26,1,.46,1.5,.61,.25,.08,.44,.27,.52,.52l.65,2Z" style="fill:#ea6423;"/></g></g><rect x="36.77" y="24.63" width="16.88" height="2.22" rx=".49" ry=".49" style="fill:#ea6423;"/><rect x="36.77" y="29.63" width="16.88" height="2.22" rx=".49" ry=".49" style="fill:#ea6423;"/><rect x="36.77" y="35.26" width="16.88" height="2.22" rx=".49" ry=".49" style="fill:#ea6423;"/></svg>