<svg xmlns="http://www.w3.org/2000/svg" width="43.827" height="43.827" viewBox="0 0 43.827 43.827"><defs><style>.a{fill:#f96c0d;}</style></defs><g transform="translate(0.002)"><path class="a" d="M43,0H29.4a.856.856,0,0,0-.605,1.461l3.2,3.2L21.213,15.445,11.256,5.489a.856.856,0,0,0-1.211,0L.277,15.257a.856.856,0,1,0,1.211,1.211L10.651,7.3,22.576,19.229a.856.856,0,0,0,1.211-1.211l-1.363-1.363L33.2,5.875l4.78,4.78L29.3,19.343a.856.856,0,1,0,1.211,1.211l8.688-8.688,3.2,3.2a.856.856,0,0,0,1.461-.605V.856A.856.856,0,0,0,43,0Zm-.856,12.389L31.462,1.712H42.139Z" transform="translate(-0.026)"/></g><g transform="translate(26.903 21.211)"><path class="a" d="M315.751,248.041a.855.855,0,1,0,.251.605A.859.859,0,0,0,315.751,248.041Z" transform="translate(-314.29 -247.79)"/></g><g transform="translate(0.002 15.232)"><path class="a" d="M16.5,185.427l-4.64-4.64,1.381-1.382a.856.856,0,1,0-1.211-1.211L.273,189.951a.856.856,0,1,0,1.211,1.211L10.647,182l4.64,4.64a.856.856,0,1,0,1.211-1.211Z" transform="translate(-0.022 -177.945)"/></g><g transform="translate(21.058 31.407)"><path class="a" d="M246.9,366.9h-.04a.856.856,0,0,0,0,1.712h.034a.856.856,0,0,0,.006-1.712Z" transform="translate(-246 -366.901)"/></g><g transform="translate(0 21.068)"><path class="a" d="M42.971,267.174h-1.5v-3.836a.856.856,0,0,0-.649-.831l-3.979-.991-1.426-3.441,2.112-3.514a.856.856,0,0,0-.128-1.046L34.082,250.2a.856.856,0,0,0-1.046-.128l-3.514,2.112-3.441-1.426-.991-3.979a.856.856,0,0,0-.831-.649H19.568a.856.856,0,0,0-.831.649l-.991,3.979L14.3,252.181l-3.514-2.112a.856.856,0,0,0-1.046.128l-3.317,3.317a.856.856,0,0,0-.128,1.046l2.112,3.514-1.426,3.441-3.979.991a.856.856,0,0,0-.649.831v3.836H.856a.856.856,0,0,0,0,1.712H42.971a.856.856,0,0,0,0-1.712Zm-3.214,0H31.009a9.224,9.224,0,0,0-5.807-10.1.856.856,0,1,0-.61,1.6,7.512,7.512,0,0,1,4.677,8.5H14.557a7.512,7.512,0,0,1,4.705-8.515.856.856,0,0,0-.6-1.6,9.224,9.224,0,0,0-5.842,10.117H4.069v-3.167l3.748-.934a.856.856,0,0,0,.584-.5l1.757-4.239a.856.856,0,0,0-.057-.769l-1.99-3.31,2.371-2.371,3.31,1.99a.856.856,0,0,0,.769.057l4.239-1.757a.856.856,0,0,0,.5-.584l.934-3.748H23.59l.934,3.748a.856.856,0,0,0,.5.584l4.239,1.757a.855.855,0,0,0,.769-.057l3.31-1.99,2.371,2.371-1.99,3.31a.856.856,0,0,0-.057.769l1.757,4.239a.856.856,0,0,0,.584.5l3.748.934Z" transform="translate(0 -246.127)"/></g></svg>