<?xml version="1.0" encoding="UTF-8"?><svg id="uuid-1fc5a2ea-c495-4146-86a8-e5f0b940f0a3" xmlns="http://www.w3.org/2000/svg" viewBox="0 0 75 75"><path d="M36.72,11.37H19.82c-.59,0-1.06,.47-1.06,1.06s.47,1.06,1.06,1.06h16.89c.59,0,1.06-.47,1.06-1.06s-.47-1.06-1.06-1.06Z" style="fill:#e96424;"/><path d="M36.72,17.88H19.82c-.59,0-1.06,.47-1.06,1.06s.47,1.06,1.06,1.06h16.89c.59,0,1.06-.47,1.06-1.06s-.47-1.06-1.06-1.06Z" style="fill:#e96424;"/><path d="M36.72,24.39H19.82c-.59,0-1.06,.47-1.06,1.06s.47,1.06,1.06,1.06h16.89c.59,0,1.06-.47,1.06-1.06s-.47-1.06-1.06-1.06Z" style="fill:#e96424;"/><path d="M36.72,30.9H19.82c-.59,0-1.06,.47-1.06,1.06s.47,1.06,1.06,1.06h16.89c.59,0,1.06-.47,1.06-1.06s-.47-1.06-1.06-1.06Z" style="fill:#e96424;"/><path d="M72.71,4.89c-9.79-3.84-19.81-3.88-29.75-.14-9.87-3.74-19.89-3.7-29.75,.14-.41,.16-.68,.55-.68,.99V42.14c0,.33,.15,.64,.41,.84,.26,.2,.6,.27,.92,.19,9.42-2.48,19.11-2.48,28.84,0,.16,.04,.35,.04,.52,0,9.58-2.37,19.27-2.37,28.86,0,.32,.08,.65,0,.91-.19,.26-.2,.41-.51,.41-.83V5.88c0-.44-.27-.83-.67-.99ZM14.65,40.78V6.61c9.06-3.35,18.19-3.35,27.25,0V40.79c-9.07-2.11-18.15-2.18-27.25,0Zm56.61,.02c-8.82-1.99-17.89-2.11-27.25,0V6.61c9.12-3.35,18.26-3.36,27.25,0V40.8Z" style="fill:#e96424;"/><path d="M48.13,12.43c0,.59,.47,1.06,1.06,1.06h16.89c.59,0,1.06-.47,1.06-1.06s-.47-1.06-1.06-1.06h-16.89c-.59,0-1.06,.47-1.06,1.06Z" style="fill:#e96424;"/><path d="M66.08,17.88h-16.89c-.59,0-1.06,.47-1.06,1.06s.47,1.06,1.06,1.06h16.89c.59,0,1.06-.47,1.06-1.06s-.47-1.06-1.06-1.06Z" style="fill:#e96424;"/><path d="M66.08,24.39h-16.89c-.59,0-1.06,.47-1.06,1.06s.47,1.06,1.06,1.06h16.89c.59,0,1.06-.47,1.06-1.06s-.47-1.06-1.06-1.06Z" style="fill:#e96424;"/><path d="M66.08,30.9h-16.89c-.59,0-1.06,.47-1.06,1.06s.47,1.06,1.06,1.06h16.89c.59,0,1.06-.47,1.06-1.06s-.47-1.06-1.06-1.06Z" style="fill:#e96424;"/><path d="M57.7,49.71l-13.37,8.74c-.49,.32-.63,.98-.31,1.47,.32,.49,.98,.63,1.47,.31l13.32-8.7c.77-.44,1.64-.04,2.02,.79,.42,.93,.1,2.1-.75,2.59l-13.36,8.73-8.69,5.42c-1.25,.78-2.74,.95-4.09,.46l-11.53-4.11c-.13-.05-.26-.07-.4-.06l-3.67,.15v-15.45c2.09-.49,8.02-1.53,10.6,1.75,.54,.69,1.4,1.08,2.34,1.08h9.94c.85,0,1.55,.83,1.55,1.85s-.69,1.85-1.55,1.85h-9.47c-1.03,0-1.99,.61-2.5,1.58-.55,1.05-.48,2.28,.17,3.2,.01,.02,.07,.1,.08,.11,.35,.46,.98,.53,1.45,.19,.47-.34,.56-1.02,.22-1.49-.24-.35-.18-.76-.04-1.03,.05-.1,.26-.44,.62-.44h9.47c2.02,0,3.67-1.78,3.67-3.97s-1.65-3.97-3.67-3.97h-9.94c-.14,0-.48-.03-.68-.28-3.17-4.02-9.48-3.21-12.27-2.61v-1.51c0-.59-.47-1.06-1.06-1.06H4.5c-.59,0-1.06,.47-1.06,1.06v22.37c0,.59,.47,1.06,1.06,1.06h12.77c.59,0,1.06-.47,1.06-1.06v-1.12l3.55-.14,11.34,4.04c.74,.26,1.51,.39,2.28,.39,1.27,0,2.53-.36,3.65-1.06l8.7-5.43s0,0,0,0c0,0,0,0,.01,0l13.32-8.71c1.77-1.01,2.47-3.33,1.58-5.28-.87-1.91-3.08-2.85-5.05-1.72Zm-41.5,17.95H5.56v-20.25h10.65v20.25Z" style="fill:#e96424;"/></svg>