<svg xmlns="http://www.w3.org/2000/svg" xmlns:xlink="http://www.w3.org/1999/xlink" width="60" height="60" viewBox="0 0 60 60"><defs><style>.a,.c{fill:#f96c0d;}.a{stroke:#707070;}.b{clip-path:url(#a);}</style><clipPath id="a"><rect class="a" width="60" height="60" transform="translate(653 2557)"/></clipPath></defs><g class="b" transform="translate(-653 -2557)"><g transform="translate(650.458 2554.966)"><path class="c" d="M35.593,15.254v2.034H32.542a1.017,1.017,0,0,0-1.017,1.017v3.051H28.475a1.017,1.017,0,0,0-1.017,1.017v2.034H24.407a1.017,1.017,0,0,0-1.017,1.017v5.085a1.017,1.017,0,0,0,1.017,1.017H40.678a1.017,1.017,0,0,0,1.017-1.017V15.254a1.017,1.017,0,0,0-1.017-1.017H36.61a1.017,1.017,0,0,0-1.017,1.017ZM25.424,26.441h2.034v3.051H25.424Zm4.068-3.051h2.034v6.1H29.492Zm4.068-4.068h2.034V29.492H33.559Zm4.068-3.051h2.034v13.22H37.627Z"/><path class="c" d="M29.492,32.542h2.034v2.034H29.492Z"/><path class="c" d="M25.424,32.542h2.034v2.034H25.424Z"/><path class="c" d="M33.559,32.542h2.034v2.034H33.559Z"/><path class="c" d="M37.627,32.542h2.034v2.034H37.627Z"/><path class="c" d="M7.119,30.508V40.793a12.179,12.179,0,0,0,5.434,10.154l.668.445v9.625a1.017,1.017,0,0,0,1.017,1.017h12.2a1.017,1.017,0,0,0,1.017-1.017V48.253a23.349,23.349,0,0,0,10.169,0V61.017a1.017,1.017,0,0,0,1.017,1.017h12.2a1.017,1.017,0,0,0,1.017-1.017V51.392l.668-.445a12.179,12.179,0,0,0,5.434-10.154V30.508A3.056,3.056,0,0,0,55.83,27.6c.066-.721.1-1.449.1-2.174a1.017,1.017,0,0,0-1.017-1.017H46.78a1.017,1.017,0,0,0-1.017,1.017A13.22,13.22,0,1,1,32.542,12.2a1.017,1.017,0,0,0,1.017-1.017V3.051a1.017,1.017,0,0,0-1.017-1.017,23.416,23.416,0,0,0-23.39,23.39c0,.725.036,1.453.1,2.174a3.056,3.056,0,0,0-2.137,2.911ZM25.424,60H15.254V51.864H25.424Zm24.407,0H39.661V51.864H49.831Zm6.1-19.207A10.149,10.149,0,0,1,51.4,49.254l-.864.576H39.661V47.7a23.416,23.416,0,0,0,5.157-2.369,7.912,7.912,0,0,0-.072,1.047V47.8H46.78V46.379a5.823,5.823,0,0,1,2.6-4.855,1.017,1.017,0,0,0,.453-.846V36.61a1.017,1.017,0,1,1,2.034,0v5.085H53.9V30.508a1.017,1.017,0,0,1,2.034,0ZM31.525,4.092V10.2A15.254,15.254,0,1,0,47.763,26.441h6.111c-.019.413-.052.825-.095,1.235a3.055,3.055,0,0,0-1.915,2.833v3.226A3.05,3.05,0,0,0,47.8,36.611v3.546a7.861,7.861,0,0,0-1.628,1.71,21.354,21.354,0,0,1-27.253,0,7.859,7.859,0,0,0-1.628-1.709V36.611a3.05,3.05,0,0,0-4.068-2.876V30.509A3.055,3.055,0,0,0,11.3,27.676a21.689,21.689,0,0,1-.118-2.252A21.382,21.382,0,0,1,31.525,4.092ZM9.153,30.508a1.017,1.017,0,0,1,2.034,0V41.695H13.22V36.61a1.017,1.017,0,0,1,2.034,0v4.067a1.017,1.017,0,0,0,.453.847,5.823,5.823,0,0,1,2.6,4.855V47.8h2.034V46.379a7.909,7.909,0,0,0-.072-1.046,23.412,23.412,0,0,0,5.157,2.37v2.128H14.545l-.864-.576a10.149,10.149,0,0,1-4.528-8.462Z"/><path class="c" d="M48.814,19.322h4.068v2.034H48.814Z"/><path class="c" d="M38.644,4.068V6.1H36.61V8.136h2.034v2.034h2.034V8.136h2.034V6.1H40.678V4.068Z"/></g></g></svg>