<svg xmlns="http://www.w3.org/2000/svg" xmlns:xlink="http://www.w3.org/1999/xlink" width="60" height="60" viewBox="0 0 60 60"><defs><style>.a,.c{fill:#f96c0d;}.a{stroke:#707070;}.b{clip-path:url(#a);}</style><clipPath id="a"><rect class="a" width="60" height="60" transform="translate(1021 2308)"/></clipPath></defs><g class="b" transform="translate(-1021 -2308)"><g transform="translate(1020.032 2307.028)"><path class="c" d="M52.258,2.9A8.708,8.708,0,0,0,44.044,8.71H35.537A7.147,7.147,0,0,0,37.761,3.5a2.513,2.513,0,0,0-.741-1.792,2.574,2.574,0,0,0-2.925-.475L31.84,2.364a5.152,5.152,0,0,1-2.288.539H25.576a6.813,6.813,0,0,0-3.013.706L18.3,5.725,5.806,1.561v25.91L18.2,23.341l1.91,1.433a6.813,6.813,0,0,0,4.065,1.355H34.818a2.894,2.894,0,0,0,2.69-3.983A2.878,2.878,0,0,0,38.9,17.419a2.814,2.814,0,0,0,.577-2.9h4.565a8.7,8.7,0,0,0,4.2,4.825L44.083,30.173a6.739,6.739,0,0,0-7.829,4.2l-6.261-1.392c0-.028.008-.053.008-.081a4.839,4.839,0,0,0-9.677,0,4.685,4.685,0,0,0,.058.574l-6.591,2.2a6.885,6.885,0,1,0,.614,1.835l6.587-2.2a4.81,4.81,0,0,0,8.58-.438l6.262,1.392c-.013.168-.026.337-.026.508a6.774,6.774,0,1,0,10.083-5.905l4.165-10.83A8.71,8.71,0,1,0,52.258,2.9ZM7.742,43.548a4.839,4.839,0,1,1,4.839-4.839A4.844,4.844,0,0,1,7.742,43.548Zm17.419-7.742a2.9,2.9,0,1,1,2.9-2.9A2.907,2.907,0,0,1,25.161,35.806Zm22.258.968a4.839,4.839,0,1,1-4.839-4.839A4.844,4.844,0,0,1,47.419,36.774Zm-30-15.214L7.742,24.787V4.245l9.677,3.225Zm20.3-6.076a.969.969,0,0,1-.968.968H31.935v1.935h4.818a.968.968,0,1,1,0,1.935H31.935v1.935h2.883a.968.968,0,1,1,0,1.935H24.173a4.871,4.871,0,0,1-2.9-.968L19.355,21.79V7.364l4.068-2.02a4.88,4.88,0,0,1,2.153-.505h3.975a7.091,7.091,0,0,0,3.154-.744l2.253-1.127a.607.607,0,0,1,.693.111.667.667,0,0,1,.175.516A5.122,5.122,0,0,1,30.71,8.71H27.116v1.935H48.367a.968.968,0,1,1,0,1.935H31.935v1.935h4.818A.969.969,0,0,1,37.722,15.484Zm12.6-6.007a2.9,2.9,0,1,1,0,4.272,2.871,2.871,0,0,0,0-4.272Zm1.94,8.91a6.768,6.768,0,0,1-6.112-3.871h2.221l.019,0a4.839,4.839,0,1,0,0-5.8l-.02,0H46.146a6.771,6.771,0,1,1,6.112,9.677Z"/><path class="c" d="M7.742,35.806a2.9,2.9,0,1,0,2.9,2.9A2.907,2.907,0,0,0,7.742,35.806Zm0,3.871a.968.968,0,1,1,.968-.968A.968.968,0,0,1,7.742,39.677Z"/><path class="c" d="M39.677,36.774a2.9,2.9,0,1,0,2.9-2.9A2.907,2.907,0,0,0,39.677,36.774Zm3.871,0a.968.968,0,1,1-.968-.968A.968.968,0,0,1,43.548,36.774Z"/><path class="c" d="M50.323,59.032H46.452V45.484H38.71V59.032H34.839V39.677H27.1V59.032H23.226V39.677H15.484V59.032H11.613V47.419H3.871V60.968H58.065V22.258H50.323Zm-40.645,0H5.806V49.355H9.677ZM40.645,47.419h3.871V59.032H40.645ZM29.032,41.613H32.9V59.032H29.032Zm-11.613,0H21.29V59.032H17.419ZM52.258,24.194h3.871V59.032H52.258Z"/></g></g></svg>