<svg xmlns="http://www.w3.org/2000/svg" xmlns:xlink="http://www.w3.org/1999/xlink" width="60" height="60" viewBox="0 0 60 60"><defs><style>.a,.c{fill:#f96c0d;}.a{stroke:#707070;}.b{clip-path:url(#a);}</style><clipPath id="a"><rect class="a" width="60" height="60" transform="translate(655 2308)"/></clipPath></defs><g class="b" transform="translate(-655 -2308)"><g transform="translate(657 2308)"><path class="c" d="M53,0H21a3,3,0,0,0-3,3V22h2V3a1,1,0,0,1,1-1H44V9a1,1,0,0,0,1.707.707L48,7.414l2.293,2.293A1,1,0,0,0,52,9V2h1a1,1,0,0,1,1,1V50a1,1,0,0,1-1,1H35v2H53a3,3,0,0,0,3-3V3A3,3,0,0,0,53,0ZM50,6.586,48.707,5.293a1,1,0,0,0-1.414,0L46,6.586V2h4Zm0,0"/><path class="c" d="M30.578,48.147a13.987,13.987,0,0,0,.657-1.6l3.907-.558A1,1,0,0,0,36,45V39a1,1,0,0,0-.858-.99l-3.907-.558a13.987,13.987,0,0,0-.657-1.6L32.942,32.7a1,1,0,0,0-.092-1.307L28.606,27.15a1,1,0,0,0-1.306-.093l-3.154,2.364a13.9,13.9,0,0,0-1.6-.657l-.558-3.906A1,1,0,0,0,21,24H15a1,1,0,0,0-.99.859l-.558,3.906a13.9,13.9,0,0,0-1.6.657L8.7,27.058a1,1,0,0,0-1.306.093L3.15,31.394A1,1,0,0,0,3.058,32.7l2.364,3.152a13.987,13.987,0,0,0-.657,1.6L.858,38.01A1,1,0,0,0,0,39v6a1,1,0,0,0,.858.99l3.907.558a13.987,13.987,0,0,0,.657,1.6L3.058,51.3a1,1,0,0,0,.092,1.307L7.394,56.85a1,1,0,0,0,1.306.093l3.153-2.364a13.9,13.9,0,0,0,1.6.657l.558,3.906A1,1,0,0,0,15,60h6a1,1,0,0,0,.99-.859l.558-3.906a13.9,13.9,0,0,0,1.6-.657L27.3,56.942a1,1,0,0,0,1.306-.093l4.244-4.243a1,1,0,0,0,.092-1.307Zm-2.772,6.675L24.845,52.6a1,1,0,0,0-1.081-.077,11.877,11.877,0,0,1-2.4.987,1,1,0,0,0-.71.819L20.133,58H15.867l-.523-3.669a1,1,0,0,0-.71-.819,11.915,11.915,0,0,1-2.4-.987,1,1,0,0,0-1.081.077l-2.961,2.22L5.178,51.806,7.4,48.845a1,1,0,0,0,.077-1.081,11.947,11.947,0,0,1-.987-2.4,1,1,0,0,0-.818-.71L2,44.133V39.867l3.67-.524a1,1,0,0,0,.818-.71,11.943,11.943,0,0,1,.987-2.4A1,1,0,0,0,7.4,35.152l-2.22-2.961,3.016-3.016,2.961,2.22a1,1,0,0,0,1.081.077,11.987,11.987,0,0,1,2.4-.987,1,1,0,0,0,.71-.819L15.867,26h4.266l.523,3.669a1,1,0,0,0,.71.819,12.024,12.024,0,0,1,2.4.987,1,1,0,0,0,1.081-.077l2.961-2.22,3.016,3.016L28.6,35.155a1,1,0,0,0-.077,1.081,11.945,11.945,0,0,1,.987,2.4,1,1,0,0,0,.818.71L34,39.87v4.266l-3.67.524a1,1,0,0,0-.818.71,11.941,11.941,0,0,1-.987,2.4,1,1,0,0,0,.077,1.081l2.22,2.961Zm0,0"/><path class="c" d="M17,28h2v2H17Zm0,0"/><path class="c" d="M7.395,32.807l1.414-1.414,1.414,1.414L8.809,34.222Zm0,0"/><path class="c" d="M4,41H6v2H4Zm0,0"/><path class="c" d="M7.394,51.192l1.414-1.415,1.414,1.415L8.808,52.606Zm0,0"/><path class="c" d="M17,54h2v2H17Zm0,0"/><path class="c" d="M25.777,51.192l1.414-1.414,1.414,1.414-1.414,1.414Zm0,0"/><path class="c" d="M30,41h2v2H30Zm0,0"/><path class="c" d="M25.778,32.808l1.414-1.415,1.415,1.415-1.415,1.414Zm0,0"/><path class="c" d="M18,34a8,8,0,1,0,8,8A8,8,0,0,0,18,34Zm0,14a6,6,0,1,1,6-6A6,6,0,0,1,18,48Zm0,0"/><path class="c" d="M24,6h6V8H24Zm0,0"/><path class="c" d="M32,6h4V8H32Zm0,0"/><path class="c" d="M24,12H40v2H24Zm0,0"/><path class="c" d="M24,20H50v2H24Zm0,0"/><path class="c" d="M38,26H50v2H38Zm0,0"/><path class="c" d="M38,32H50v2H38Zm0,0"/><path class="c" d="M38,38H50v2H38Zm0,0"/></g></g></svg>