<svg xmlns="http://www.w3.org/2000/svg" width="114.072" height="23.444" viewBox="0 0 114.072 23.444">
  <g id="Group_138" data-name="Group 138" transform="translate(-165.136 71.491)">
    <g id="Group_134" data-name="Group 134" transform="translate(165.136 -71.476)">
      <path id="Path_180" data-name="Path 180" d="M170.116-60.507h0a3.52,3.52,0,0,0,.37-1.777V-66.97a1.8,1.8,0,0,1,.408-1.277,1.65,1.65,0,0,1,1.245-.427h.688v-2.809h-1.4a4.517,4.517,0,0,0-3.251,1.073,4.151,4.151,0,0,0-1.113,3.12v5.08c0,.692-.3,1.014-.94,1.014h-.984v2.857h.984c.642,0,.94.322.94,1.014v5.081a4.151,4.151,0,0,0,1.113,3.12,4.525,4.525,0,0,0,3.251,1.071h1.4v-2.807h-.688a1.643,1.643,0,0,1-1.245-.429,1.79,1.79,0,0,1-.408-1.275v-4.688a3.529,3.529,0,0,0-.37-1.777,1.965,1.965,0,0,0-.808-.738A1.946,1.946,0,0,0,170.116-60.507Z" transform="translate(-165.136 71.483)" fill="#fff"/>
      <path id="Path_181" data-name="Path 181" d="M223.247-60.507h0a3.52,3.52,0,0,1-.37-1.777V-66.97a1.8,1.8,0,0,0-.408-1.277,1.653,1.653,0,0,0-1.246-.427h-.688v-2.809h1.4a4.517,4.517,0,0,1,3.251,1.073,4.151,4.151,0,0,1,1.113,3.12v5.08c0,.692.3,1.014.938,1.014h.986v2.857h-.986c-.64,0-.938.322-.938,1.014v5.081a4.151,4.151,0,0,1-1.113,3.12,4.525,4.525,0,0,1-3.251,1.071h-1.4v-2.807h.688a1.646,1.646,0,0,0,1.246-.429,1.8,1.8,0,0,0,.408-1.275v-4.688a3.529,3.529,0,0,1,.37-1.777,1.943,1.943,0,0,1,.808-.738A1.935,1.935,0,0,1,223.247-60.507Z" transform="translate(-118.615 71.483)" fill="#fff"/>
      <path id="Path_182" data-name="Path 182" d="M171.946-56.329a7.442,7.442,0,0,1-2.232-.907l1.137-2.449a7.14,7.14,0,0,0,1.9.821,7.962,7.962,0,0,0,2.187.316q2.164,0,2.164-1.071a.758.758,0,0,0-.591-.721,8.728,8.728,0,0,0-1.814-.372,17.362,17.362,0,0,1-2.382-.5,3.691,3.691,0,0,1-1.63-1A2.866,2.866,0,0,1,170-64.275a3.23,3.23,0,0,1,.644-1.98,4.17,4.17,0,0,1,1.88-1.345,8.051,8.051,0,0,1,2.92-.48,11.46,11.46,0,0,1,2.482.272,7.01,7.01,0,0,1,2.044.754l-1.137,2.427a6.809,6.809,0,0,0-3.389-.874,3.442,3.442,0,0,0-1.639.307.9.9,0,0,0-.546.786.782.782,0,0,0,.589.765,10.291,10.291,0,0,0,1.88.416,20.129,20.129,0,0,1,2.362.513,3.559,3.559,0,0,1,1.6,1,2.821,2.821,0,0,1,.679,2.011,3.1,3.1,0,0,1-.657,1.946,4.172,4.172,0,0,1-1.913,1.323,8.532,8.532,0,0,1-2.984.469A11.378,11.378,0,0,1,171.946-56.329Z" transform="translate(-161.292 74.341)" fill="#fff"/>
      <path id="Path_183" data-name="Path 183" d="M179.4-56.743a5.823,5.823,0,0,1-2.34-2.154,5.87,5.87,0,0,1-.841-3.126,5.877,5.877,0,0,1,.841-3.128A5.806,5.806,0,0,1,179.4-67.3a7.23,7.23,0,0,1,3.378-.776,6.546,6.546,0,0,1,3.245.776,4.605,4.605,0,0,1,2.024,2.219l-2.646,1.42a2.892,2.892,0,0,0-2.646-1.617,3,3,0,0,0-2.21.874,3.229,3.229,0,0,0-.874,2.384,3.227,3.227,0,0,0,.874,2.382,2.993,2.993,0,0,0,2.21.874,2.864,2.864,0,0,0,2.646-1.617l2.646,1.442a4.711,4.711,0,0,1-2.024,2.187,6.472,6.472,0,0,1-3.245.786A7.229,7.229,0,0,1,179.4-56.743Z" transform="translate(-155.826 74.341)" fill="#fff"/>
      <path id="Path_184" data-name="Path 184" d="M188.477-67.642a6.1,6.1,0,0,1,2.393-.438v3.148c-.379-.029-.635-.044-.765-.044a3.128,3.128,0,0,0-2.3.821,3.314,3.314,0,0,0-.83,2.46v5.552h-3.411V-67.905h3.256v1.553A3.785,3.785,0,0,1,188.477-67.642Z" transform="translate(-149.657 74.341)" fill="#fff"/>
      <path id="Path_185" data-name="Path 185" d="M189.008-67.686a1.773,1.773,0,0,1-.591-1.356,1.773,1.773,0,0,1,.591-1.356,2.164,2.164,0,0,1,1.531-.546,2.222,2.222,0,0,1,1.531.524,1.682,1.682,0,0,1,.591,1.312,1.858,1.858,0,0,1-.591,1.411,2.141,2.141,0,0,1-1.531.557A2.164,2.164,0,0,1,189.008-67.686Zm-.175,2.186h3.411v11.762h-3.411Z" transform="translate(-145.586 71.936)" fill="#fff"/>
      <path id="Path_186" data-name="Path 186" d="M201.539-67.326a5.4,5.4,0,0,1,2.11,2.121,6.4,6.4,0,0,1,.765,3.181,6.41,6.41,0,0,1-.765,3.181,5.416,5.416,0,0,1-2.11,2.121,6,6,0,0,1-2.984.752,4.54,4.54,0,0,1-3.542-1.42v6.478H191.6V-67.905h3.258v1.356a4.52,4.52,0,0,1,3.694-1.531A6,6,0,0,1,201.539-67.326Zm-1.42,7.674a3.3,3.3,0,0,0,.841-2.371,3.3,3.3,0,0,0-.841-2.373,2.84,2.84,0,0,0-2.154-.885,2.838,2.838,0,0,0-2.152.885,3.3,3.3,0,0,0-.843,2.373,3.3,3.3,0,0,0,.843,2.371,2.838,2.838,0,0,0,2.152.885A2.839,2.839,0,0,0,200.118-59.652Z" transform="translate(-142.911 74.341)" fill="#fff"/>
      <path id="Path_187" data-name="Path 187" d="M207.813-54.864a3.516,3.516,0,0,1-1.234.557,6.286,6.286,0,0,1-1.542.186,4.576,4.576,0,0,1-3.247-1.073,4.1,4.1,0,0,1-1.148-3.148v-5.4h-1.814v-2.623h1.814V-69.91h3.411v3.542h2.931v2.623h-2.931v5.359a1.608,1.608,0,0,0,.383,1.148,1.418,1.418,0,0,0,1.084.4,2.187,2.187,0,0,0,1.376-.438Z" transform="translate(-136.843 72.804)" fill="#fff"/>
      <path id="Path_188" data-name="Path 188" d="M204.868-67.686a1.773,1.773,0,0,1-.591-1.356,1.773,1.773,0,0,1,.591-1.356,2.159,2.159,0,0,1,1.529-.546,2.218,2.218,0,0,1,1.531.524,1.682,1.682,0,0,1,.591,1.312,1.858,1.858,0,0,1-.591,1.411,2.138,2.138,0,0,1-1.531.557A2.159,2.159,0,0,1,204.868-67.686Zm-.177,2.186H208.1v11.762h-3.411Z" transform="translate(-132.267 71.936)" fill="#fff"/>
      <path id="Path_189" data-name="Path 189" d="M210.639-56.743A5.823,5.823,0,0,1,208.3-58.9a5.871,5.871,0,0,1-.841-3.126,5.877,5.877,0,0,1,.841-3.128,5.806,5.806,0,0,1,2.34-2.153,7.23,7.23,0,0,1,3.378-.776,6.546,6.546,0,0,1,3.245.776,4.6,4.6,0,0,1,2.024,2.219l-2.646,1.42a2.892,2.892,0,0,0-2.646-1.617,3,3,0,0,0-2.208.874,3.222,3.222,0,0,0-.876,2.384,3.221,3.221,0,0,0,.876,2.382,2.992,2.992,0,0,0,2.208.874,2.862,2.862,0,0,0,2.646-1.617l2.646,1.442a4.7,4.7,0,0,1-2.024,2.187,6.472,6.472,0,0,1-3.245.786A7.229,7.229,0,0,1,210.639-56.743Z" transform="translate(-129.596 74.341)" fill="#fff"/>
      <path id="Path_190" data-name="Path 190" d="M216.58-56.329a7.449,7.449,0,0,1-2.23-.907l1.137-2.449a7.114,7.114,0,0,0,1.9.821,7.959,7.959,0,0,0,2.186.316q2.164,0,2.165-1.071a.758.758,0,0,0-.591-.721,8.724,8.724,0,0,0-1.816-.372,17.482,17.482,0,0,1-2.382-.5,3.675,3.675,0,0,1-1.628-1,2.859,2.859,0,0,1-.69-2.055,3.22,3.22,0,0,1,.646-1.98,4.159,4.159,0,0,1,1.88-1.345,8.044,8.044,0,0,1,2.92-.48,11.443,11.443,0,0,1,2.48.272,6.99,6.99,0,0,1,2.044.754l-1.137,2.427a6.8,6.8,0,0,0-3.387-.874,3.445,3.445,0,0,0-1.641.307.9.9,0,0,0-.546.786.781.781,0,0,0,.591.765,10.254,10.254,0,0,0,1.88.416,20,20,0,0,1,2.36.513,3.575,3.575,0,0,1,1.6,1A2.829,2.829,0,0,1,225-59.707a3.111,3.111,0,0,1-.655,1.946,4.192,4.192,0,0,1-1.913,1.323,8.539,8.539,0,0,1-2.984.469A11.4,11.4,0,0,1,216.58-56.329Z" transform="translate(-123.808 74.341)" fill="#fff"/>
    </g>
    <g id="Group_135" data-name="Group 135" transform="translate(274.61 -71.491)">
      <path id="Path_191" data-name="Path 191" d="M228.939-70.367a2.184,2.184,0,0,0-.822-.824,2.332,2.332,0,0,0-1.17-.3,2.289,2.289,0,0,0-1.172.307,2.245,2.245,0,0,0-.832.833,2.3,2.3,0,0,0-.3,1.159,2.3,2.3,0,0,0,.3,1.159,2.249,2.249,0,0,0,.828.833,2.265,2.265,0,0,0,1.163.307A2.288,2.288,0,0,0,228.1-67.2a2.246,2.246,0,0,0,.833-.837,2.293,2.293,0,0,0,.305-1.168A2.3,2.3,0,0,0,228.939-70.367Zm-.386,2.116a1.816,1.816,0,0,1-.672.684,1.833,1.833,0,0,1-.947.25,1.818,1.818,0,0,1-.942-.247,1.782,1.782,0,0,1-.66-.677,1.918,1.918,0,0,1-.241-.951,1.919,1.919,0,0,1,.241-.951,1.778,1.778,0,0,1,.664-.677,1.848,1.848,0,0,1,.951-.248,1.877,1.877,0,0,1,.951.245,1.757,1.757,0,0,1,.66.668,1.915,1.915,0,0,1,.237.951A1.907,1.907,0,0,1,228.552-68.251Z" transform="translate(-224.641 71.491)" fill="#fff"/>
      <path id="Path_192" data-name="Path 192" d="M227.293-69.64a.837.837,0,0,0,.11-.438.747.747,0,0,0-.27-.605,1.137,1.137,0,0,0-.749-.226h-1.019v2.34h.627v-.675h.416l.442.675h.627l-.513-.784A.742.742,0,0,0,227.293-69.64Zm-.622-.169a.516.516,0,0,1-.329.094h-.355v-.73h.355a.506.506,0,0,1,.329.1.329.329,0,0,1,.118.27A.32.32,0,0,1,226.671-69.809Z" transform="translate(-224.033 71.98)" fill="#fff"/>
    </g>
  </g>
</svg>
