<?xml version="1.0" encoding="UTF-8"?> <!-- Generator: Adobe Illustrator 25.4.1, SVG Export Plug-In . SVG Version: 6.00 Build 0) --> <svg xmlns="http://www.w3.org/2000/svg" xmlns:xlink="http://www.w3.org/1999/xlink" version="1.1" id="Layer_2" x="0px" y="0px" viewBox="0 0 1000 700" style="enable-background:new 0 0 1000 700;" xml:space="preserve"> <style type="text/css"> .st0{fill:#E5F4FA;} .st1{fill:none;stroke:#0085B9;stroke-width:3;stroke-miterlimit:10;} .st2{fill-rule:evenodd;clip-rule:evenodd;fill:#E5F4FA;} .st3{opacity:0.19;fill:#E5F4FA;stroke:#F1F1F2;stroke-width:1.4819;stroke-miterlimit:10;} .st4{fill:#88CDE6;} .st5{opacity:0.6;fill:#88CDE6;} .st6{opacity:0.3;fill:#88CDE6;} .st7{fill:none;stroke:#88CDE6;stroke-width:3.2269;stroke-miterlimit:10;} .st8{fill:none;stroke:#88CDE6;stroke-width:3.2269;stroke-miterlimit:10;stroke-dasharray:9.2542,9.2542;} .st9{fill:none;stroke:#88CDE6;stroke-width:3.2269;stroke-miterlimit:10;stroke-dasharray:9.4925,9.4925;} .st10{fill:none;stroke:#88CDE6;stroke-width:2;stroke-miterlimit:10;} .st11{fill:#0085B9;} .st12{fill:none;stroke:#0085B9;stroke-width:2;stroke-miterlimit:10;} .st13{fill:none;stroke:#88CDE6;stroke-width:3.2269;stroke-miterlimit:10;stroke-dasharray:9.6808;} .st14{fill:none;stroke:#88CDE6;stroke-linecap:round;stroke-miterlimit:10;} .st15{fill:none;stroke:#88CDE6;stroke-width:2;stroke-linecap:round;stroke-miterlimit:10;} .st16{clip-path:url(#SVGID_00000088120691052514321530000002106434881526854327_);fill:#E5F4FA;} .st17{fill:none;stroke:#88CDE6;stroke-width:3;stroke-miterlimit:10;} .st18{fill:none;stroke:#88CDE6;stroke-width:9.4787;stroke-linecap:round;stroke-miterlimit:10;} .st19{fill:#FFFFFF;stroke:#0085B9;stroke-width:3;stroke-miterlimit:10;} .st20{fill:#FFFFFF;stroke:#88CDE6;stroke-width:3;stroke-miterlimit:10;} .st21{fill:#FFFFFF;} .st22{fill:none;stroke:#88CDE6;stroke-width:3;stroke-linecap:round;stroke-linejoin:round;stroke-miterlimit:10;} .st23{fill:none;stroke:#0085B9;stroke-width:3;stroke-linecap:round;stroke-miterlimit:10;} .st24{fill:none;stroke:#88CDE6;stroke-width:3;stroke-linecap:round;stroke-miterlimit:10;} .st25{fill:#CAE9F5;} .st26{clip-path:url(#SVGID_00000036936013018591052950000005558738630653454727_);} .st27{fill:#D65A38;} .st28{clip-path:url(#SVGID_00000097473447492291800120000007898376909149659022_);fill:#E5F4FA;} .st29{clip-path:url(#SVGID_00000021808100532793001820000005131253090165981332_);} .st30{fill:none;stroke:#0085B9;stroke-width:5;stroke-linecap:round;stroke-linejoin:round;stroke-miterlimit:10;} .st31{fill-rule:evenodd;clip-rule:evenodd;fill:#88CDE6;} .st32{fill:none;stroke:#88CDE6;stroke-width:3.2269;stroke-miterlimit:10;stroke-dasharray:9.7803,9.7803;} .st33{fill:none;stroke:#88CDE6;stroke-width:3.2269;stroke-miterlimit:10;stroke-dasharray:9.5451,9.5451;} .st34{fill:none;stroke:#88CDE6;stroke-width:3.2269;stroke-miterlimit:10;stroke-dasharray:9.6756,9.6756;} .st35{fill:none;stroke:#88CDE6;stroke-width:3.2269;stroke-miterlimit:10;stroke-dasharray:9.2733,9.2733;} .st36{fill:none;stroke:#88CDE6;stroke-width:3.2269;stroke-miterlimit:10;stroke-dasharray:9.4681,9.4681;} .st37{fill:none;stroke:#0085B9;stroke-width:4.1692;stroke-linecap:round;stroke-linejoin:round;stroke-miterlimit:10;} .st38{fill:none;stroke:#88CDE6;stroke-width:16;stroke-linecap:round;stroke-miterlimit:10;} </style> <g> <g> <defs> <rect id="SVGID_00000005945492350403210250000014552543821954615461_" x="584.6" y="89.5" width="368.3" height="491.7"></rect> </defs> <clipPath id="SVGID_00000098906635243068268980000014951523167901091456_"> <use xlink:href="#SVGID_00000005945492350403210250000014552543821954615461_" style="overflow:visible;"></use> </clipPath> <path style="clip-path:url(#SVGID_00000098906635243068268980000014951523167901091456_);fill:#E5F4FA;" d="M811.3,424l12.4-30 L796,375.4c1.3-6,2-12.1,2.4-18.3l31.7-10.9l-4.2-32l-33.4-2.3c-1.9-5.9-4.3-11.6-7.1-17.1l22.1-25.3L787.7,244l-30.1,14.8 c-4.6-4.1-9.5-7.9-14.6-11.2l6.5-32.9l-29.9-12.4l-18.7,27.8c-6-1.3-12.1-2.1-18.2-2.4l-10.8-31.7l-32.1,4.2l-2.3,33.5 c-5.9,1.9-11.6,4.3-17.1,7.1l-25.3-22.1l-25.6,19.6l14.7,30.2c-4.1,4.6-7.9,9.5-11.2,14.5l-32.9-6.5l-12.4,30l27.8,18.7 c-1.2,6-2,12.1-2.4,18.2l-31.7,10.9l4.2,32l33.5,2.3c1.9,5.8,4.3,11.6,7.1,17.1L544,430.8l19.7,25.7l30.1-14.8 c4.6,4.1,9.5,7.9,14.6,11.2l-6.5,33l29.9,12.4l18.7-27.9c6,1.2,12.1,2,18.2,2.4l10.8,31.8l32-4.2l2.3-33.5 c5.9-1.9,11.6-4.3,17.1-7.1l25.3,22.1l25.6-19.7l-14.7-30.1c4.1-4.6,7.9-9.5,11.3-14.6L811.3,424z M647,419.5 c-38.2-15.9-56.4-59.7-40.5-98s59.7-56.4,98-40.5s56.4,59.7,40.5,98S685.2,435.4,647,419.5z"></path> </g> <path class="st17" d="M257.4,125.3c0-9.8,8-17.8,17.8-17.8h291c9.8,0,17.7,8,17.7,17.8v438.2c0,9.8-8,17.7-17.7,17.7h-291 c-9.8,0-17.8-8-17.8-17.7V125.3z"></path> <path class="st17" d="M402.6,561.5c-4.3,0-7.9-3.5-7.9-7.9v-1.9c0-4.4,3.6-7.9,7.9-7.9h36c4.3,0,7.9,3.6,7.9,7.9v1.9 c0,4.4-3.6,7.9-7.9,7.9H402.6z"></path> <path class="st17" d="M420.6,138.8c-4.5,0-8.1-3.6-8.1-8.1c0-4.4,3.6-8.1,8.1-8.1c4.5,0,8.1,3.7,8.1,8.1 C428.7,135.2,425.1,138.8,420.6,138.8z"></path> <path class="st17" d="M420.6,134.1c-1.9,0-3.4-1.5-3.4-3.4c0-1.9,1.5-3.4,3.4-3.4c1.9,0,3.4,1.5,3.4,3.4 C424,132.5,422.5,134.1,420.6,134.1z"></path> <rect x="275.9" y="153.8" class="st17" width="289.4" height="370.1"></rect> <path class="st0" d="M522.9,491.5H313.1c-4.7,0-8.5-3.8-8.5-8.5v-75.5c0-4.7,3.8-8.5,8.5-8.5h209.8c4.7,0,8.5,3.8,8.5,8.5V483 C531.3,487.7,527.5,491.5,522.9,491.5z"></path> <path class="st0" d="M534.1,326.3H311c-5.7,0-10.4-4.7-10.4-10.4V206.8c0-5.7,4.7-10.4,10.4-10.4h223.1c5.7,0,10.4,4.7,10.4,10.4 v109.1C544.5,321.7,539.8,326.3,534.1,326.3z"></path> <g> <path class="st1" d="M469.2,359c-20,0-36.3,16.3-36.3,36.3c0,8.4,3,15.9,7.5,22.1c28.8,40.4,28.8,40.4,28.8,40.4s0,0,28.8-40.4 c4.5-6.3,7.5-13.8,7.5-22.1C505.6,375.2,489.3,359,469.2,359z"></path> <path class="st19" d="M482.7,395.3c0,7.4-6,13.4-13.4,13.4c-7.4,0-13.4-6-13.4-13.4c0-7.4,6-13.4,13.4-13.4 C476.7,381.8,482.7,387.9,482.7,395.3z"></path> </g> <g> <defs> <path id="SVGID_00000114068596342210494620000011894562976351131583_" d="M522.9,491.5H313.1c-4.7,0-8.5-3.8-8.5-8.5v-75.5 c0-4.7,3.8-8.5,8.5-8.5h209.8c4.7,0,8.5,3.8,8.5,8.5V483C531.3,487.7,527.5,491.5,522.9,491.5z"></path> </defs> <clipPath id="SVGID_00000076571688882987304340000016820006087508073649_"> <use xlink:href="#SVGID_00000114068596342210494620000011894562976351131583_" style="overflow:visible;"></use> </clipPath> <g style="clip-path:url(#SVGID_00000076571688882987304340000016820006087508073649_);"> <line class="st17" x1="288.2" y1="458.9" x2="553.5" y2="458.9"></line> <line class="st17" x1="350.9" y1="383.6" x2="397.2" y2="458.5"></line> <line class="st17" x1="437" y1="459.1" x2="437" y2="501.9"></line> <line class="st17" x1="374.6" y1="423" x2="284.6" y2="423"></line> <line class="st17" x1="331.2" y1="458.7" x2="331.2" y2="496.5"></line> </g> </g> <rect x="330.5" y="225.3" class="st17" width="26.5" height="26.5"></rect> <rect x="330.5" y="273.1" class="st17" width="26.5" height="26.5"></rect> <line class="st24" x1="383.6" y1="236.2" x2="518.9" y2="236.2"></line> <line class="st24" x1="383.6" y1="286.7" x2="518.9" y2="286.7"></line> <polyline class="st30" points="338.4,280 347.7,290.7 365,260.1 "></polyline> </g> <path class="st17" d="M726.5,312.2l-10.6,10.6l-11.1-11.1l10.6-10.6c-5.8-1.8-12.5-0.5-17.1,4.2c-4.6,4.6-6,11.3-4.2,17.1l-46,46 c-5.8-1.8-12.5-0.4-17.1,4.2c-4.6,4.6-6,11.3-4.2,17.1l10.6-10.6l11.1,11.1L638,400.7c5.8,1.8,12.5,0.5,17.1-4.2 c4.6-4.6,6-11.3,4.2-17.1l46-46c5.8,1.8,12.5,0.4,17.1-4.2C727,324.7,728.3,318,726.5,312.2z"></path> <g> <path class="st11" d="M715,397.5c-0.7,0.7-1.7,1.1-2.8,1.1s-2.1-0.4-2.8-1.1l-34.1-34.1l13.8-13.8l34.1,34.1 c0.7,0.7,1.1,1.7,1.1,2.8s-0.4,2.1-1.1,2.8L715,397.5z"></path> <polygon class="st11" points="643,314 643.1,309.6 632.3,303.2 629,306.5 635.4,317.3 639.8,317.2 675.3,352.7 678.5,349.5 "></polygon> <path class="st4" d="M719.1,385l-28.6-28.6c-0.4-0.4-0.8-0.6-1.4-0.6c-0.5,0-1,0.2-1.4,0.6c-0.4,0.4-0.6,0.8-0.6,1.4 c0,0.5,0.2,1,0.6,1.4l28.6,28.6c0.4,0.4,0.8,0.6,1.4,0.6c0.5,0,1-0.2,1.4-0.6c0.4-0.4,0.6-0.8,0.6-1.4 C719.7,385.9,719.5,385.4,719.1,385z"></path> <polygon class="st27" points="719.1,387.8 719.1,387.8 719.1,387.8 "></polygon> <path class="st4" d="M713.6,390.6L685,362c-0.4-0.4-0.8-0.6-1.4-0.6c-0.5,0-1,0.2-1.4,0.6c-0.4,0.4-0.6,0.8-0.6,1.4 c0,0.5,0.2,1,0.6,1.4l28.6,28.6c0.4,0.4,0.8,0.6,1.4,0.6c0.5,0,1-0.2,1.4-0.6c0.4-0.4,0.6-0.8,0.6-1.4 C714.2,391.4,714,390.9,713.6,390.6z"></path> <rect x="673.7" y="350" transform="matrix(0.7072 -0.7071 0.7071 0.7072 -51.1288 584.087)" class="st11" width="11.7" height="7.6"></rect> </g> </svg> 