<?xml version="1.0" encoding="UTF-8"?> <!-- Generator: Adobe Illustrator 25.4.1, SVG Export Plug-In . SVG Version: 6.00 Build 0) --> <svg xmlns="http://www.w3.org/2000/svg" xmlns:xlink="http://www.w3.org/1999/xlink" version="1.1" id="Layer_2" x="0px" y="0px" viewBox="0 0 1000 700" style="enable-background:new 0 0 1000 700;" xml:space="preserve"> <style type="text/css"> .st0{fill:#E5F4FA;} .st1{fill:none;stroke:#0085B9;stroke-width:3;stroke-miterlimit:10;} .st2{fill-rule:evenodd;clip-rule:evenodd;fill:#E5F4FA;} .st3{opacity:0.19;fill:#E5F4FA;stroke:#F1F1F2;stroke-width:1.4819;stroke-miterlimit:10;} .st4{fill:#88CDE6;} .st5{opacity:0.6;fill:#88CDE6;} .st6{opacity:0.3;fill:#88CDE6;} .st7{fill:none;stroke:#88CDE6;stroke-width:3.2269;stroke-miterlimit:10;} .st8{fill:none;stroke:#88CDE6;stroke-width:3.2269;stroke-miterlimit:10;stroke-dasharray:9.2542,9.2542;} .st9{fill:none;stroke:#88CDE6;stroke-width:3.2269;stroke-miterlimit:10;stroke-dasharray:9.4925,9.4925;} .st10{fill:none;stroke:#88CDE6;stroke-width:2;stroke-miterlimit:10;} .st11{fill:#0085B9;} .st12{fill:none;stroke:#0085B9;stroke-width:2;stroke-miterlimit:10;} .st13{fill:none;stroke:#88CDE6;stroke-width:3.2269;stroke-miterlimit:10;stroke-dasharray:9.6808;} .st14{fill:none;stroke:#88CDE6;stroke-linecap:round;stroke-miterlimit:10;} .st15{fill:none;stroke:#88CDE6;stroke-width:2;stroke-linecap:round;stroke-miterlimit:10;} .st16{clip-path:url(#SVGID_00000053528001246977112980000003895409132713247913_);fill:#E5F4FA;} .st17{fill:none;stroke:#88CDE6;stroke-width:3;stroke-miterlimit:10;} .st18{fill:none;stroke:#88CDE6;stroke-width:9.4787;stroke-linecap:round;stroke-miterlimit:10;} .st19{fill:#FFFFFF;stroke:#0085B9;stroke-width:3;stroke-miterlimit:10;} .st20{fill:#FFFFFF;stroke:#88CDE6;stroke-width:3;stroke-miterlimit:10;} .st21{fill:#FFFFFF;} .st22{fill:none;stroke:#88CDE6;stroke-width:3;stroke-linecap:round;stroke-linejoin:round;stroke-miterlimit:10;} .st23{fill:none;stroke:#0085B9;stroke-width:3;stroke-linecap:round;stroke-miterlimit:10;} .st24{fill:none;stroke:#88CDE6;stroke-width:3;stroke-linecap:round;stroke-miterlimit:10;} .st25{fill:#CAE9F5;} .st26{clip-path:url(#SVGID_00000135682464304422043130000006428029564426123424_);} .st27{fill:#D65A38;} .st28{clip-path:url(#SVGID_00000156578916898302993810000015507012813504661144_);fill:#E5F4FA;} .st29{clip-path:url(#SVGID_00000023254220559101053870000005001254668420470454_);} .st30{fill:none;stroke:#0085B9;stroke-width:5;stroke-linecap:round;stroke-linejoin:round;stroke-miterlimit:10;} .st31{fill-rule:evenodd;clip-rule:evenodd;fill:#88CDE6;} .st32{fill:none;stroke:#88CDE6;stroke-width:3.2269;stroke-miterlimit:10;stroke-dasharray:9.7803,9.7803;} .st33{fill:none;stroke:#88CDE6;stroke-width:3.2269;stroke-miterlimit:10;stroke-dasharray:9.5451,9.5451;} .st34{fill:none;stroke:#88CDE6;stroke-width:3.2269;stroke-miterlimit:10;stroke-dasharray:9.6756,9.6756;} .st35{fill:none;stroke:#88CDE6;stroke-width:3.2269;stroke-miterlimit:10;stroke-dasharray:9.2733,9.2733;} .st36{fill:none;stroke:#88CDE6;stroke-width:3.2269;stroke-miterlimit:10;stroke-dasharray:9.4681,9.4681;} .st37{fill:none;stroke:#0085B9;stroke-width:4.1692;stroke-linecap:round;stroke-linejoin:round;stroke-miterlimit:10;} .st38{fill:none;stroke:#88CDE6;stroke-width:16;stroke-linecap:round;stroke-miterlimit:10;} </style> <path class="st2" d="M140.9,237.6h65.4c1.8,0,3.5-0.7,4.7-2c1.2-1.2,2-2.9,2-4.7v-8.2V163c0-1.8-0.8-3.5-2-4.7l0,0 c-1.2-1.2-2.9-2-4.7-2H153h-43.1c-1.8,0-3.5,0.7-4.7,2c-1.2,1.2-2,2.9-2,4.7v67.9c0,1.8,0.7,3.5,2,4.7h0c1.2,1.2,2.9,2,4.7,2h2.6v0 c0.1,0,0.2,0,0.3,0c0.9,0.2,1.5,1,1.3,1.9l-3.9,20.8l29.4-22.3C140,237.7,140.4,237.6,140.9,237.6z"></path> <g> <path class="st31" d="M160.6,542.2l-26.1,33.1c-0.6,0.8-0.5,1.8,0.3,2.5l0,0l19.9,16c4.2,3.3,9.3,4.7,14.3,4.2 c5-0.5,9.7-2.9,13.1-7.1c13.4-16.3,25.5-33.9,36.1-52.3c10.6-18.4,19.8-37.7,27.3-57.4c1.9-5,1.6-10.3-0.4-14.9 c-2-4.5-5.8-8.3-10.8-10.3l-23.8-9.3c-0.9-0.3-1.9,0.1-2.3,1l0,0L192.5,487c-0.4,0.9,0.1,1.9,1,2.3h0l0,0l13.3,5.2 c-4.5,9.7-9.5,19.4-15,28.9l0,0.1c-5.4,9.4-11.3,18.6-17.5,27.3l-11.2-8.9c-0.8-0.6-1.9-0.5-2.5,0.3L160.6,542.2L160.6,542.2z M138.3,576.1l24-30.5l11.2,9h0l0.1,0.1c0.8,0.6,1.9,0.4,2.4-0.4c6.6-9.3,12.9-19.1,18.7-29.1l0-0.1c5.8-10.1,11.2-20.5,15.9-30.8 l0-0.1c0.4-0.9-0.1-1.9-1-2.3l-13.4-5.2l14.4-36l22.2,8.6c4.1,1.6,7.2,4.7,8.8,8.4c1.7,3.7,1.9,8.1,0.4,12.2 c-7.4,19.6-16.5,38.7-27,56.9c-10.5,18.2-22.5,35.6-35.8,51.8c-2.8,3.4-6.7,5.4-10.7,5.8c-4.1,0.4-8.3-0.7-11.7-3.4L138.3,576.1 L138.3,576.1z M210.7,494.3L210.7,494.3L210.7,494.3z"></path> </g> <path class="st31" d="M262.6,399.3L218.5,366l-27.2,20.5c-0.6,0.5-1.4,0.5-2.1,0L162.1,366l-44.1,33.3c0.2,1.5,0.9,2.8,1.9,3.8h0 c1.2,1.2,2.9,2,4.8,2h131.1c1.9,0,3.6-0.8,4.8-2C261.7,402.1,262.4,400.8,262.6,399.3L262.6,399.3z M217.5,362.5l-27.2,20.5 l-27.1-20.5l-0.1,0L118,328.4v-8.5c0-1.9,0.8-3.6,2-4.8c1.2-1.2,2.9-2,4.8-2h131.1c1.9,0,3.6,0.8,4.8,2l0,0c1.2,1.2,2,2.9,2,4.8v8.5 L217.5,362.5L217.5,362.5L217.5,362.5z M221.4,363.9l41.3-31.2v62.5L221.4,363.9L221.4,363.9z M118,332.6l41.3,31.2L118,395.1V332.6 L118,332.6z M124.8,309.7h131.1c2.8,0,5.4,1.2,7.2,3l0,0c1.9,1.8,3,4.4,3,7.2v78.4c0,2.8-1.2,5.4-3,7.2c-1.8,1.9-4.4,3-7.2,3H124.8 c-2.8,0-5.3-1.1-7.2-3l0,0h0l0,0c-1.9-1.9-3-4.4-3-7.2v-78.4c0-2.8,1.1-5.4,3-7.2C119.4,310.8,122,309.7,124.8,309.7z"></path> <path class="st31" d="M868,231.5h-8.8v9.6h8.8v-4.8V231.5L868,231.5z M850,107.5c14.4,0,27.4,5.8,36.8,15.2 c9.4,9.4,15.2,22.4,15.2,36.8v4.8c1.9,0.3,3.7,1.2,5,2.5l0,0c1.6,1.6,2.6,3.8,2.6,6.2V200c0,2.4-1,4.6-2.6,6.2 c-1.6,1.6-3.8,2.6-6.2,2.6h-7.7v5.2c0,6.6-2.7,12.5-7,16.8c-4,4-9.4,6.5-15.3,6.9v4.8c0,0.8-0.7,1.5-1.5,1.5h-11.7 c-0.8,0-1.5-0.7-1.5-1.5V230c0-0.8,0.7-1.5,1.5-1.5h11.7c0.8,0,1.5,0.7,1.5,1.5v4.7c5.2-0.4,9.8-2.6,13.3-6.1 c3.8-3.8,6.1-9,6.1-14.7V213c-0.2,0.1-0.5,0.2-0.8,0.2h-11.7c-0.8,0-1.5-0.7-1.5-1.5v-50.5c0-0.8,0.7-1.5,1.5-1.5h11.7 c0.1,0,0.1,0,0.2,0v-0.3c0-10.9-4.4-20.8-11.6-28c-7.2-7.2-17.1-11.6-28-11.6c-10.9,0-20.8,4.4-28,11.6c-7.2,7.2-11.6,17.1-11.6,28 v0.3c0.1,0,0.1,0,0.2,0h11.7c0.8,0,1.5,0.7,1.5,1.5v50.5c0,0.8-0.7,1.5-1.5,1.5h-11.7c-0.8,0-1.5-0.7-1.5-1.5v-2.9h-10 c-2.4,0-4.6-1-6.2-2.6l0,0v0l0,0c-1.6-1.6-2.6-3.8-2.6-6.2v-27.1c0-2.4,1-4.6,2.6-6.2c1.3-1.3,3.1-2.2,5-2.5v-4.8 c0-14.4,5.8-27.4,15.2-36.8C822.7,113.3,835.7,107.5,850,107.5L850,107.5z M884.8,124.8c-8.9-8.9-21.2-14.4-34.7-14.4 s-25.8,5.5-34.7,14.4c-8.9,8.9-14.4,21.2-14.4,34.7v4.7h6.6v-4.7c0-11.7,4.8-22.4,12.4-30.1c7.7-7.7,18.3-12.4,30.1-12.4 c11.7,0,22.4,4.8,30.1,12.4c7.7,7.7,12.4,18.3,12.4,30.1v4.7h6.6v-4.7C899.2,146,893.7,133.7,884.8,124.8L884.8,124.8z M900.9,167.1 h-0.2h-9.5h-0.2v38.8h0.8h0h0h9.2c1.6,0,3.1-0.7,4.1-1.7c1.1-1.1,1.7-2.5,1.7-4.1v-27.1c0-1.6-0.7-3.1-1.7-4.1h0 C903.9,167.8,902.5,167.1,900.9,167.1L900.9,167.1z M888,162.7h-8.8v47.5h8.8v-2.9v-41.7V162.7L888,162.7z M809.2,167.1H809h-9.5 h-0.2c-1.6,0-3.1,0.7-4.1,1.7c-1.1,1.1-1.7,2.5-1.7,4.1V200c0,1.6,0.7,3.1,1.7,4.1l0,0c1.1,1.1,2.5,1.7,4.1,1.7h10V167.1 L809.2,167.1z M820.9,162.7h-8.8v2.9v41.7v2.9h8.8V162.7z"></path> <path class="st31" d="M868,412.3h-8.8v9.6h8.8v-4.8V412.3L868,412.3z M850,288.3c14.4,0,27.4,5.8,36.8,15.2 c9.4,9.4,15.2,22.4,15.2,36.8v4.8c1.9,0.3,3.7,1.2,5,2.5l0,0c1.6,1.6,2.6,3.8,2.6,6.2v27.1c0,2.4-1,4.6-2.6,6.2 c-1.6,1.6-3.8,2.6-6.2,2.6h-7.7v5.2c0,6.6-2.7,12.5-7,16.8c-4,4-9.4,6.5-15.3,6.9v4.8c0,0.8-0.7,1.5-1.5,1.5h-11.7 c-0.8,0-1.5-0.7-1.5-1.5v-12.5c0-0.8,0.7-1.5,1.5-1.5h11.7c0.8,0,1.5,0.7,1.5,1.5v4.7c5.2-0.4,9.8-2.6,13.3-6.1 c3.8-3.8,6.1-9,6.1-14.7v-1.1c-0.2,0.1-0.5,0.2-0.8,0.2h-11.7c-0.8,0-1.5-0.7-1.5-1.5v-50.5c0-0.8,0.7-1.5,1.5-1.5h11.7 c0.1,0,0.1,0,0.2,0v-0.3c0-10.9-4.4-20.8-11.6-28c-7.2-7.2-17.1-11.6-28-11.6c-10.9,0-20.8,4.4-28,11.6c-7.2,7.2-11.6,17.1-11.6,28 v0.3c0.1,0,0.1,0,0.2,0h11.7c0.8,0,1.5,0.7,1.5,1.5v50.5c0,0.8-0.7,1.5-1.5,1.5h-11.7c-0.8,0-1.5-0.7-1.5-1.5v-2.9h-10 c-2.4,0-4.6-1-6.2-2.6l0,0v0l0,0c-1.6-1.6-2.6-3.8-2.6-6.2v-27.1c0-2.4,1-4.6,2.6-6.2c1.3-1.3,3.1-2.2,5-2.5v-4.8 c0-14.4,5.8-27.4,15.2-36.8C822.7,294.1,835.7,288.3,850,288.3L850,288.3z M884.8,305.6c-8.9-8.9-21.2-14.4-34.7-14.4 s-25.8,5.5-34.7,14.4c-8.9,8.9-14.4,21.2-14.4,34.7v4.7h6.6v-4.7c0-11.7,4.8-22.4,12.4-30.1c7.7-7.7,18.3-12.4,30.1-12.4 c11.7,0,22.4,4.8,30.1,12.4c7.7,7.7,12.4,18.3,12.4,30.1v4.7h6.6v-4.7C899.2,326.8,893.7,314.5,884.8,305.6L884.8,305.6z M900.9,347.9h-0.2h-9.5h-0.2v38.8h0.8h0h0h9.2c1.6,0,3.1-0.7,4.1-1.7c1.1-1.1,1.7-2.5,1.7-4.1v-27.1c0-1.6-0.7-3.1-1.7-4.1h0 C903.9,348.6,902.5,347.9,900.9,347.9L900.9,347.9z M888,343.5h-8.8v47.5h8.8v-2.9v-41.7V343.5L888,343.5z M809.2,347.9H809h-9.5 h-0.2c-1.6,0-3.1,0.7-4.1,1.7c-1.1,1.1-1.7,2.5-1.7,4.1v27.1c0,1.6,0.7,3.1,1.7,4.1l0,0c1.1,1.1,2.5,1.7,4.1,1.7h10V347.9 L809.2,347.9z M820.9,343.5h-8.8v2.9v41.7v2.9h8.8V343.5z"></path> <path class="st31" d="M868,593.1h-8.8v9.6h8.8v-4.8V593.1L868,593.1z M850,469.1c14.4,0,27.4,5.8,36.8,15.2 c9.4,9.4,15.2,22.4,15.2,36.8v4.8c1.9,0.3,3.7,1.2,5,2.5l0,0c1.6,1.6,2.6,3.8,2.6,6.2v27.1c0,2.4-1,4.6-2.6,6.2 c-1.6,1.6-3.8,2.6-6.2,2.6h-7.7v5.2c0,6.6-2.7,12.5-7,16.8c-4,4-9.4,6.5-15.3,6.9v4.8c0,0.8-0.7,1.5-1.5,1.5h-11.7 c-0.8,0-1.5-0.7-1.5-1.5v-12.5c0-0.8,0.7-1.5,1.5-1.5h11.7c0.8,0,1.5,0.7,1.5,1.5v4.7c5.2-0.4,9.8-2.6,13.3-6.1 c3.8-3.8,6.1-9,6.1-14.7v-1.1c-0.2,0.1-0.5,0.2-0.8,0.2h-11.7c-0.8,0-1.5-0.7-1.5-1.5v-50.5c0-0.8,0.7-1.5,1.5-1.5h11.7 c0.1,0,0.1,0,0.2,0v-0.3c0-10.9-4.4-20.8-11.6-28c-7.2-7.2-17.1-11.6-28-11.6c-10.9,0-20.8,4.4-28,11.6c-7.2,7.2-11.6,17.1-11.6,28 v0.3c0.1,0,0.1,0,0.2,0h11.7c0.8,0,1.5,0.7,1.5,1.5v50.5c0,0.8-0.7,1.5-1.5,1.5h-11.7c-0.8,0-1.5-0.7-1.5-1.5v-2.9h-10 c-2.4,0-4.6-1-6.2-2.6l0,0v0l0,0c-1.6-1.6-2.6-3.8-2.6-6.2v-27.1c0-2.4,1-4.6,2.6-6.2c1.3-1.3,3.1-2.2,5-2.5v-4.8 c0-14.4,5.8-27.4,15.2-36.8C822.7,474.9,835.7,469.1,850,469.1L850,469.1z M884.8,486.4c-8.9-8.9-21.2-14.4-34.7-14.4 s-25.8,5.5-34.7,14.4c-8.9,8.9-14.4,21.2-14.4,34.7v4.7h6.6v-4.7c0-11.7,4.8-22.4,12.4-30.1c7.7-7.7,18.3-12.4,30.1-12.4 c11.7,0,22.4,4.8,30.1,12.4c7.7,7.7,12.4,18.3,12.4,30.1v4.7h6.6v-4.7C899.2,507.6,893.7,495.3,884.8,486.4L884.8,486.4z M900.9,528.7h-0.2h-9.5h-0.2v38.8h0.8h0h0h9.2c1.6,0,3.1-0.7,4.1-1.7c1.1-1.1,1.7-2.5,1.7-4.1v-27.1c0-1.6-0.7-3.1-1.7-4.1h0 C903.9,529.4,902.5,528.7,900.9,528.7L900.9,528.7z M888,524.3h-8.8v47.5h8.8v-2.9v-41.7V524.3L888,524.3z M809.2,528.7H809h-9.5 h-0.2c-1.6,0-3.1,0.7-4.1,1.7c-1.1,1.1-1.7,2.5-1.7,4.1v27.1c0,1.6,0.7,3.1,1.7,4.1l0,0c1.1,1.1,2.5,1.7,4.1,1.7h10V528.7 L809.2,528.7z M820.9,524.3h-8.8v2.9v41.7v2.9h8.8V524.3z"></path> <path class="st31" d="M215.6,231.6h-64.9l-32.5,24.7c-0.7,0.6-1.8,0.4-2.3-0.3c-0.3-0.4-0.4-0.9-0.3-1.3l0,0l4.3-23h-0.6 c-2.7,0-5.3-1.1-7.1-2.9v0h0l0,0c-1.8-1.8-2.9-4.3-2.9-7.1v-67.9c0-2.8,1.1-5.3,2.9-7.1c1.8-1.8,4.3-2.9,7.1-2.9h41.4v-6.5 c0-2.8,1.1-5.3,2.9-7.1c1.8-1.8,4.3-2.9,7.1-2.9H267c2.8,0,5.3,1.1,7.1,2.9l0,0c1.8,1.8,2.9,4.3,2.9,7.1V205c0,2.8-1.1,5.3-2.9,7.1 c-1.8,1.8-4.3,2.9-7.1,2.9h-0.6l4.3,23h0c0.1,0.4,0,0.9-0.3,1.3c-0.6,0.7-1.6,0.9-2.3,0.3l-32.5-24.7h-9.9v6.5 c0,2.8-1.1,5.3-2.9,7.1C220.8,230.5,218.3,231.6,215.6,231.6L215.6,231.6z M178.2,202.4h-48.4c-0.9,0-1.7,0.7-1.7,1.7 c0,0.9,0.8,1.7,1.7,1.7h48.4c0.9,0,1.7-0.8,1.7-1.7C179.9,203.1,179.1,202.4,178.2,202.4L178.2,202.4z M205,184h-75.2 c-0.9,0-1.7,0.7-1.7,1.7c0,0.9,0.8,1.7,1.7,1.7H205c0.9,0,1.7-0.7,1.7-1.7C206.7,184.7,205.9,184,205,184L205,184z M196.2,166.7 h-66.5c-0.9,0-1.7,0.7-1.7,1.7c0,0.9,0.7,1.7,1.7,1.7h66.5c0.9,0,1.7-0.7,1.7-1.7C197.9,167.5,197.2,166.7,196.2,166.7L196.2,166.7z M256,186.4c0.9,0,1.7,0.7,1.7,1.7c0,0.9-0.7,1.7-1.7,1.7h-30.4v22h10.5c0.4,0,0.8,0.2,1.1,0.4l29.4,22.3l-3.9-20.8 c-0.2-0.9,0.4-1.8,1.3-1.9c0.1,0,0.2,0,0.3,0l0,0h2.6c1.8,0,3.5-0.8,4.7-2c1.2-1.2,2-2.9,2-4.7v-67.9c0-1.8-0.8-3.5-2-4.7l0,0 c-1.2-1.2-2.9-2-4.7-2h-96.4c-1.8,0-3.5,0.8-4.7,2c-1.2,1.2-2,2.9-2,4.7v6.5h51.6c2.8,0,5.3,1.1,7.1,2.9l0,0c1.1,1.1,2,2.5,2.5,4 H256c0.9,0,1.7,0.7,1.7,1.7c0,0.9-0.7,1.7-1.7,1.7h-30.4V168h24.7c0.9,0,1.7,0.8,1.7,1.7c0,0.9-0.8,1.7-1.7,1.7h-24.7v15H256 L256,186.4z M150.2,228.3h65.4c1.8,0,3.5-0.7,4.7-2c1.2-1.2,2-2.9,2-4.7v-8.2v-59.7c0-1.8-0.8-3.5-2-4.7l0,0c-1.2-1.2-2.9-2-4.7-2 h-53.3h-43.1c-1.8,0-3.5,0.7-4.7,2c-1.2,1.2-2,2.9-2,4.7v67.9c0,1.8,0.7,3.5,2,4.7h0c1.2,1.2,2.9,2,4.7,2h2.6v0c0.1,0,0.2,0,0.3,0 c0.9,0.2,1.5,1,1.3,1.9l-3.9,20.8l29.4-22.3C149.3,228.5,149.7,228.3,150.2,228.3z"></path> <g> <g> <line class="st7" x1="290.9" y1="173.9" x2="295.7" y2="173.9"></line> <path class="st32" d="M305.5,173.9h186.6c6.5,0,11.8,5.3,11.8,11.8v161.7"></path> <polyline class="st7" points="503.9,352.2 503.9,357 508.7,357 "></polyline> <line class="st33" x1="518.3" y1="357" x2="742.6" y2="357"></line> <line class="st7" x1="747.4" y1="357" x2="752.2" y2="357"></line> <g> <path class="st4" d="M751.6,369.1c6.7,0,12.1-5.4,12.1-12.1s-5.4-12.1-12.1-12.1c-6.7,0-12.1,5.4-12.1,12.1 S744.9,369.1,751.6,369.1z"></path> </g> </g> </g> <g> <g> <line class="st7" x1="244.9" y1="548.1" x2="249.7" y2="548.1"></line> <path class="st34" d="M259.4,548.1h232.7c6.5,0,11.8-5.3,11.8-11.8V366.7"></path> <polyline class="st7" points="503.9,361.9 503.9,357 499,357 "></polyline> <line class="st35" x1="489.8" y1="357" x2="290.4" y2="357"></line> <line class="st7" x1="285.8" y1="357" x2="280.9" y2="357"></line> </g> </g> <g> <g> <line class="st7" x1="753.2" y1="200.7" x2="748.3" y2="200.7"></line> <path class="st36" d="M738.8,200.7h-14.2c-6.5,0-11.8,5.3-11.8,11.8v289c0,6.5,5.3,11.8,11.8,11.8h14.9"></path> <line class="st7" x1="744.3" y1="513.3" x2="749.2" y2="513.3"></line> <g> <path class="st4" d="M752.5,188.6c6.7,0,12.1,5.4,12.1,12.1s-5.4,12.1-12.1,12.1c-6.7,0-12.1-5.4-12.1-12.1 S745.8,188.6,752.5,188.6z"></path> </g> <g> <path class="st4" d="M748.6,525.4c6.7,0,12.1-5.4,12.1-12.1c0-6.7-5.4-12.1-12.1-12.1c-6.7,0-12.1,5.4-12.1,12.1 C736.4,520,741.9,525.4,748.6,525.4z"></path> </g> </g> </g> <path class="st0" d="M636.6,455.9l16.2-28.1l-25.1-22.1c2-5.8,3.6-11.7,4.8-17.8l32.8-6.7l0-32.2l-32.9-6.7 c-1.2-6.1-2.8-12-4.8-17.9l25.2-22.2l-16.2-28L605,285c-4-4.7-8.4-9-13-13l10.7-31.8l-28-16.2l-22.2,25.2c-5.8-2-11.7-3.6-17.8-4.8 l-6.6-32.9l-32.4-0.1l-6.6,33c-6.1,1.1-12,2.7-17.8,4.8L449.1,224l-27.9,16.1l10.6,31.8c-4.7,4-9,8.3-13,13L387,274.1l-16.2,28.1 l25.1,22.1c-2,5.7-3.6,11.7-4.7,17.8l-32.9,6.6l0,32.3l32.9,6.6c1.1,6,2.7,12,4.8,17.8l-25.2,22.2l16.2,28l31.8-10.7 c4,4.7,8.4,9.1,13,13L421,489.9l28,16.2l22.2-25.2c5.7,2,11.7,3.6,17.8,4.7l6.6,32.9l32.3,0l6.6-32.9c6.1-1.1,12.1-2.7,17.9-4.8 l22.2,25.2l28-16.2l-10.6-31.7c4.7-4,9.1-8.4,13.1-13L636.6,455.9z M474.3,429.9c-35.9-20.7-48.1-66.6-27.4-102.4 c20.7-35.9,66.6-48.1,102.4-27.4c35.9,20.7,48.1,66.6,27.4,102.4C556,438.4,510.2,450.6,474.3,429.9z"></path> <path class="st1" d="M626.5,448.9l16.2-28.1l-25.1-22.1c2-5.8,3.6-11.7,4.8-17.8l32.8-6.7l0-32.2l-32.9-6.7 c-1.2-6.1-2.8-12-4.8-17.9l25.2-22.2l-16.2-28L594.8,278c-4-4.7-8.4-9-13-13l10.7-31.8l-28-16.2l-22.2,25.2 c-5.8-2-11.7-3.6-17.8-4.8l-6.6-32.9l-32.4-0.1l-6.6,33c-6.1,1.1-12,2.7-17.8,4.8L439,217l-27.9,16.1l10.6,31.8c-4.7,4-9,8.3-13,13 l-31.8-10.7l-16.2,28.1l25.1,22.1c-2,5.7-3.6,11.7-4.7,17.8l-32.9,6.6l0,32.3l32.9,6.6c1.1,6,2.7,12,4.8,17.8l-25.2,22.2l16.2,28 l31.8-10.7c4,4.7,8.4,9.1,13,13l-10.7,31.8l28,16.2l22.2-25.2c5.7,2,11.7,3.6,17.8,4.7l6.6,32.9l32.3,0l6.6-32.9 c6.1-1.1,12.1-2.7,17.9-4.8l22.2,25.2l28-16.2l-10.6-31.7c4.7-4,9.1-8.4,13.1-13L626.5,448.9z M464.2,422.9 c-35.9-20.7-48.1-66.6-27.4-102.4c20.7-35.9,66.6-48.1,102.4-27.4c35.9,20.7,48.1,66.6,27.4,102.4 C545.9,431.4,500.1,443.6,464.2,422.9z"></path> </svg> 