<?xml version="1.0" encoding="UTF-8"?> <!-- Generator: Adobe Illustrator 25.4.1, SVG Export Plug-In . SVG Version: 6.00 Build 0) --> <svg xmlns="http://www.w3.org/2000/svg" xmlns:xlink="http://www.w3.org/1999/xlink" version="1.1" id="Layer_2" x="0px" y="0px" viewBox="0 0 1000 700" style="enable-background:new 0 0 1000 700;" xml:space="preserve"> <style type="text/css"> .st0{fill:#E5F4FA;} .st1{fill:none;stroke:#0085B9;stroke-width:3;stroke-miterlimit:10;} .st2{fill-rule:evenodd;clip-rule:evenodd;fill:#E5F4FA;} .st3{opacity:0.19;fill:#E5F4FA;stroke:#F1F1F2;stroke-width:1.4819;stroke-miterlimit:10;} .st4{fill:#88CDE6;} .st5{opacity:0.6;fill:#88CDE6;} .st6{opacity:0.3;fill:#88CDE6;} .st7{fill:none;stroke:#88CDE6;stroke-width:3.2269;stroke-miterlimit:10;} .st8{fill:none;stroke:#88CDE6;stroke-width:3.2269;stroke-miterlimit:10;stroke-dasharray:9.2542,9.2542;} .st9{fill:none;stroke:#88CDE6;stroke-width:3.2269;stroke-miterlimit:10;stroke-dasharray:9.4925,9.4925;} .st10{fill:none;stroke:#88CDE6;stroke-width:2;stroke-miterlimit:10;} .st11{fill:#0085B9;} .st12{fill:none;stroke:#0085B9;stroke-width:2;stroke-miterlimit:10;} .st13{fill:none;stroke:#88CDE6;stroke-width:3.2269;stroke-miterlimit:10;stroke-dasharray:9.6808;} .st14{fill:none;stroke:#88CDE6;stroke-linecap:round;stroke-miterlimit:10;} .st15{fill:none;stroke:#88CDE6;stroke-width:2;stroke-linecap:round;stroke-miterlimit:10;} .st16{clip-path:url(#SVGID_00000038401546996568016680000018384573911074951581_);fill:#E5F4FA;} .st17{fill:none;stroke:#88CDE6;stroke-width:3;stroke-miterlimit:10;} .st18{fill:none;stroke:#88CDE6;stroke-width:9.4787;stroke-linecap:round;stroke-miterlimit:10;} .st19{fill:#FFFFFF;stroke:#0085B9;stroke-width:3;stroke-miterlimit:10;} .st20{fill:#FFFFFF;stroke:#88CDE6;stroke-width:3;stroke-miterlimit:10;} .st21{fill:#FFFFFF;} .st22{fill:none;stroke:#88CDE6;stroke-width:3;stroke-linecap:round;stroke-linejoin:round;stroke-miterlimit:10;} .st23{fill:none;stroke:#0085B9;stroke-width:3;stroke-linecap:round;stroke-miterlimit:10;} .st24{fill:none;stroke:#88CDE6;stroke-width:3;stroke-linecap:round;stroke-miterlimit:10;} .st25{fill:#CAE9F5;} .st26{clip-path:url(#SVGID_00000026881558296864076880000002072559794803448243_);} .st27{fill:#D65A38;} .st28{clip-path:url(#SVGID_00000075861932618497655730000001128193144734834332_);fill:#E5F4FA;} .st29{clip-path:url(#SVGID_00000087384234561305949960000010580141218441481102_);} .st30{fill:none;stroke:#0085B9;stroke-width:5;stroke-linecap:round;stroke-linejoin:round;stroke-miterlimit:10;} .st31{fill-rule:evenodd;clip-rule:evenodd;fill:#88CDE6;} .st32{fill:none;stroke:#88CDE6;stroke-width:3.2269;stroke-miterlimit:10;stroke-dasharray:9.7803,9.7803;} .st33{fill:none;stroke:#88CDE6;stroke-width:3.2269;stroke-miterlimit:10;stroke-dasharray:9.5451,9.5451;} .st34{fill:none;stroke:#88CDE6;stroke-width:3.2269;stroke-miterlimit:10;stroke-dasharray:9.6756,9.6756;} .st35{fill:none;stroke:#88CDE6;stroke-width:3.2269;stroke-miterlimit:10;stroke-dasharray:9.2733,9.2733;} .st36{fill:none;stroke:#88CDE6;stroke-width:3.2269;stroke-miterlimit:10;stroke-dasharray:9.4681,9.4681;} .st37{fill:none;stroke:#0085B9;stroke-width:4.1692;stroke-linecap:round;stroke-linejoin:round;stroke-miterlimit:10;} .st38{fill:none;stroke:#88CDE6;stroke-width:16;stroke-linecap:round;stroke-miterlimit:10;} </style> <g> <defs> <rect id="SVGID_1_" x="702.2" y="150" width="249.4" height="307.2"></rect> </defs> <clipPath id="SVGID_00000141435004612776886120000004863462284574505104_"> <use xlink:href="#SVGID_1_" style="overflow:visible;"></use> </clipPath> <path style="clip-path:url(#SVGID_00000141435004612776886120000004863462284574505104_);fill:#E5F4FA;" d="M888.4,367.7l10.2-24.6 l-22.8-15.3c1-4.9,1.7-9.9,2-15l26-8.9l-3.5-26.3l-27.5-1.9c-1.6-4.8-3.5-9.5-5.8-14l18.2-20.8L869,219.7l-24.7,12.2 c-3.8-3.4-7.8-6.5-12-9.2l5.3-27.1l-24.6-10.2l-15.4,22.9c-4.9-1-9.9-1.7-15-2l-8.9-26.1l-26.4,3.4l-1.9,27.6 c-4.8,1.6-9.5,3.5-14,5.8l-20.8-18.1l-21,16.1l12.1,24.8c-3.4,3.8-6.5,7.8-9.2,11.9l-27.1-5.3l-10.2,24.7l22.9,15.3 c-1,4.9-1.7,9.9-2,15l-26.1,8.9l3.5,26.3l27.5,1.9c1.6,4.8,3.5,9.5,5.8,14l-18.2,20.8l16.2,21.1l24.7-12.2c3.8,3.4,7.8,6.5,12,9.2 l-5.3,27.1l24.6,10.2l15.4-22.9c4.9,1,9.9,1.7,15,2l8.9,26.1l26.3-3.5l1.9-27.5c4.8-1.6,9.5-3.5,14.1-5.8l20.7,18.1l21-16.2 l-12.1-24.7c3.4-3.8,6.5-7.8,9.3-12L888.4,367.7z M753.4,363.9c-31.4-13-46.3-49.1-33.3-80.5c13-31.4,49.1-46.3,80.5-33.3 c31.4,13,46.3,49.1,33.3,80.5S784.9,377,753.4,363.9z"></path> </g> <g> <polyline class="st22" points="517.1,523.4 517.1,534.8 424.2,534.8 424.2,523.4 "></polyline> <path class="st22" d="M701.7,454.9V168.2c0-6.5-5.2-11.7-11.6-11.7h-439c-6.4,0-11.5,5.2-11.5,11.7v286.7"></path> <polyline class="st22" points="570,454.9 701.7,454.9 759.9,523.4 517.1,523.4 "></polyline> <polyline class="st22" points="424.2,523.4 181.5,523.4 239.6,454.9 570,454.9 "></polyline> <path class="st22" d="M193,523.4h-11.5v14c0,6.3,5.2,11.5,11.5,11.5h555.4c6.4,0,11.5-5.2,11.5-11.5v-14h-11.5"></path> </g> <path class="st0" d="M660.7,201.1v142.4c0,3.9-3.1,7-7,7H521.5c-3.9,0-7-3.1-7-7V201.1c0-3.9,3.1-7,7-7h132.1 C657.6,194,660.7,197.2,660.7,201.1z"></path> <g> <line class="st23" x1="366.1" y1="224.2" x2="443" y2="224.2"></line> <line class="st23" x1="366.1" y1="248.1" x2="443" y2="248.1"></line> </g> <path class="st0" d="M476.3,351.6H282.9c-2.7,0-4.8-2.2-4.8-4.8v-42.1c0-2.7,2.2-4.8,4.8-4.8h193.4c2.7,0,4.8,2.2,4.8,4.8v42.1 C481.2,349.5,479,351.6,476.3,351.6z"></path> <circle class="st17" cx="309" cy="325.7" r="12.9"></circle> <path class="st0" d="M653.3,419.3H284.7c-3.7,0-6.6-3-6.6-6.6v-38.5c0-3.7,3-6.6,6.6-6.6h368.6c3.7,0,6.6,3,6.6,6.6v38.5 C659.9,416.4,657,419.3,653.3,419.3z"></path> <g> <path class="st17" d="M636.8,233.5l-10.6,10.6L615.1,233l10.6-10.6c-5.8-1.8-12.5-0.5-17.1,4.2c-4.6,4.6-6,11.3-4.2,17.1l-46,46 c-5.8-1.8-12.5-0.4-17.1,4.2c-4.6,4.6-6,11.3-4.2,17.1l10.6-10.6l11.1,11.1L548.3,322c5.8,1.8,12.5,0.5,17.1-4.2 c4.6-4.6,6-11.3,4.2-17.1l46-46c5.8,1.8,12.5,0.4,17.1-4.2C637.3,245.9,638.7,239.3,636.8,233.5z"></path> <g> <path class="st11" d="M625.3,318.7c-0.7,0.7-1.7,1.1-2.8,1.1c-1.1,0-2.1-0.4-2.8-1.1l-34.1-34.1l13.8-13.8l34.1,34.1 c0.7,0.7,1.1,1.7,1.1,2.8s-0.4,2.1-1.1,2.8L625.3,318.7z"></path> <polygon class="st11" points="553.4,235.2 553.4,230.9 542.6,224.5 539.3,227.7 545.8,238.6 550.1,238.5 585.6,273.9 588.8,270.7 "></polygon> <path class="st4" d="M629.5,306.3l-28.6-28.6c-0.4-0.4-0.8-0.6-1.4-0.6c-0.5,0-1,0.2-1.4,0.6c-0.4,0.4-0.6,0.8-0.6,1.4 c0,0.5,0.2,1,0.6,1.4l28.6,28.6c0.4,0.4,0.8,0.6,1.4,0.6c0.5,0,1-0.2,1.4-0.6c0.4-0.4,0.6-0.8,0.6-1.4 C630,307.1,629.8,306.6,629.5,306.3z"></path> <polygon class="st27" points="629.5,309.1 629.5,309.1 629.5,309.1 "></polygon> <path class="st4" d="M623.9,311.8l-28.6-28.6c-0.4-0.4-0.8-0.6-1.4-0.6c-0.5,0-1,0.2-1.4,0.6c-0.4,0.4-0.6,0.8-0.6,1.4 c0,0.5,0.2,1,0.6,1.4l28.6,28.6c0.4,0.4,0.8,0.6,1.4,0.6c0.5,0,1-0.2,1.4-0.6c0.4-0.4,0.6-0.8,0.6-1.4 C624.5,312.7,624.3,312.2,623.9,311.8z"></path> <rect x="584" y="271.2" transform="matrix(0.7072 -0.7071 0.7071 0.7072 -21.7086 497.6227)" class="st11" width="11.7" height="7.6"></rect> </g> </g> <path class="st31" d="M310.7,200.2c-5.4,0-10.4,2.2-13.9,5.8c-3.6,3.6-5.8,8.5-5.8,13.9c0,5.4,2.2,10.4,5.8,13.9 c1.4,1.4,2.9,2.5,4.7,3.5c-4.8,1.5-9.1,4.2-12.6,7.6c-5.6,5.6-9,13.3-9,21.8c0,1,0.8,1.9,1.9,1.9h58c1,0,1.9-0.8,1.9-1.9 c0-8.5-3.5-16.2-9-21.8c-3.5-3.5-7.8-6.1-12.6-7.6c1.7-0.9,3.3-2.1,4.7-3.5v0l0,0c3.6-3.6,5.8-8.5,5.8-13.9c0-5.4-2.2-10.3-5.8-13.9 C321,202.4,316.1,200.2,310.7,200.2L310.7,200.2z M322,208.5c2.9,2.9,4.7,6.9,4.7,11.3c0,4.4-1.8,8.4-4.7,11.3l0,0 c-2.9,2.9-6.9,4.7-11.3,4.7h0c-4.4,0-8.4-1.8-11.3-4.7c-2.9-2.9-4.7-6.9-4.7-11.3c0-4.4,1.8-8.4,4.7-11.3c2.9-2.9,6.9-4.7,11.3-4.7 C315.1,203.9,319.1,205.7,322,208.5L322,208.5z M329.9,247.5c4.5,4.5,7.4,10.6,7.9,17.3h-54.1c0.5-6.7,3.4-12.8,7.9-17.3 c4.9-4.9,11.7-7.9,19.2-8h0C318.2,239.5,325,242.5,329.9,247.5L329.9,247.5z"></path> <polyline class="st37" points="303.5,321 309.9,330.9 327.7,307.7 "></polyline> <path class="st17" d="M631.5,402.1H305.6c-4.4,0-8-3.6-8-8s3.6-8,8-8h325.9c4.4,0,8,3.6,8,8S635.9,402.1,631.5,402.1z"></path> <polyline class="st38" points="305.6,394.1 413,394.1 492.2,394.1 "></polyline> </svg> 