<?xml version="1.0" encoding="UTF-8"?><svg id="uuid-0affe10c-3a31-4e02-bdb6-1330137fea84" xmlns="http://www.w3.org/2000/svg" viewBox="0 0 75 75"><path d="M53.7,34.99h-2V14.25l-9.05-4.52-9.05,4.52v11.94h-2V13.63c0-.38,.21-.72,.55-.89l10.05-5.02c.28-.14,.61-.14,.89,0l10.05,5.02c.34,.17,.55,.52,.55,.89v21.36Z" style="fill:#e96424;"/><path d="M42.65,20.91c-.15,0-.31-.04-.45-.11l-10.05-5.02,.89-1.79,9.6,4.8,9.6-4.8,.89,1.79-10.05,5.02c-.14,.07-.29,.11-.45,.11Z" style="fill:#e96424;"/><path d="M23.55,43.78h-2v-12.56c0-.38,.21-.72,.55-.89l10.05-5.03c.28-.14,.61-.14,.89,0l10.05,5.03c.34,.17,.55,.52,.55,.89v7.54h-2v-6.92l-9.05-4.53-9.05,4.53v11.94Z" style="fill:#e96424;"/><rect x="32.24" y="58.81" width="6.95" height="2" transform="translate(-22.98 22.29) rotate(-26.57)" style="fill:#e96424;"/><path d="M32.6,38.5c-.15,0-.31-.04-.45-.11l-10.05-5.03,.89-1.79,9.6,4.8,9.6-4.8,.89,1.79-10.05,5.03c-.14,.07-.29,.11-.45,.11Z" style="fill:#e96424;"/><path d="M22.55,67.39c-.15,0-.31-.04-.45-.11l-10.05-5.02c-.34-.17-.55-.52-.55-.89v-12.56c0-.38,.21-.72,.55-.89l10.05-5.03c.28-.14,.61-.14,.89,0l10.05,5.03c.34,.17,.55,.52,.55,.89v12.56c0,.38-.21,.72-.55,.89l-10.05,5.02c-.14,.07-.29,.11-.45,.11Zm-9.05-6.64l9.05,4.52,9.05-4.52v-11.33l-9.05-4.53-9.05,4.53v11.33Z" style="fill:#e96424;"/><path d="M22.55,56.09c-.15,0-.31-.04-.45-.11l-10.05-5.03,.89-1.79,9.6,4.8,9.6-4.8,.89,1.79-10.05,5.03c-.14,.07-.29,.11-.45,.11Z" style="fill:#e96424;"/><rect x="41.65" y="19.91" width="2" height="11.31" style="fill:#e96424;"/><rect x="31.6" y="37.5" width="2" height="11.31" style="fill:#e96424;"/><rect x="21.55" y="55.09" width="2" height="11.31" style="fill:#e96424;"/><path d="M53.96,62.37h-5.02c-.55,0-1-.45-1-1v-2.21c-.93-.37-1.82-.88-2.6-1.51l-1.92,1.11c-.23,.13-.5,.17-.76,.1-.26-.07-.47-.24-.61-.47l-2.51-4.35c-.28-.48-.11-1.09,.37-1.37l1.91-1.1c-.08-.52-.13-1.03-.13-1.54s.04-.98,.12-1.48l-1.9-1.1c-.48-.28-.64-.89-.37-1.37l2.51-4.35c.28-.48,.89-.64,1.37-.37l1.88,1.08c.8-.65,1.7-1.18,2.65-1.55v-2.15c0-.55,.45-1,1-1h5.02c.55,0,1,.45,1,1v2.13c.96,.37,1.87,.89,2.68,1.55l1.84-1.07c.23-.13,.5-.17,.76-.1s.47,.24,.61,.47l2.51,4.35c.28,.48,.11,1.09-.37,1.37l-1.85,1.07c.08,.51,.12,1.02,.12,1.51s-.04,1.04-.13,1.57l1.86,1.07c.48,.28,.64,.89,.37,1.37l-2.51,4.35c-.13,.23-.35,.4-.61,.47-.26,.07-.53,.03-.76-.1l-1.89-1.09c-.8,.64-1.69,1.15-2.64,1.51v2.19c0,.55-.45,1-1,1Zm-4.02-2h3.02v-1.9c0-.44,.29-.83,.72-.96,1.15-.34,2.23-.96,3.12-1.79,.32-.3,.8-.36,1.18-.14l1.64,.95,1.51-2.62-1.61-.93c-.38-.22-.58-.67-.47-1.1,.15-.62,.23-1.24,.23-1.84s-.07-1.18-.22-1.79c-.1-.43,.09-.88,.47-1.1l1.6-.93-1.51-2.62-1.6,.92c-.38,.22-.87,.16-1.19-.14-.9-.85-1.99-1.48-3.15-1.82-.43-.12-.72-.52-.72-.96v-1.85h-3.02v1.86c0,.44-.29,.83-.71,.96-1.16,.35-2.23,.98-3.12,1.83-.32,.31-.81,.36-1.19,.14l-1.63-.94-1.51,2.62,1.65,.95c.38,.22,.57,.66,.47,1.09-.14,.6-.21,1.19-.21,1.77s.07,1.2,.22,1.81c.1,.43-.09,.88-.47,1.1l-1.67,.96,1.51,2.62,1.67-.97c.38-.22,.86-.17,1.19,.14,.88,.83,1.95,1.45,3.09,1.8,.42,.13,.71,.52,.71,.96v1.92Z" style="fill:#e96424;"/><path d="M51.45,54.83c-2.63,0-4.77-2.14-4.77-4.77s2.14-4.77,4.77-4.77,4.77,2.14,4.77,4.77-2.14,4.77-4.77,4.77Zm0-7.54c-1.53,0-2.77,1.24-2.77,2.77s1.24,2.77,2.77,2.77,2.77-1.24,2.77-2.77-1.24-2.77-2.77-2.77Z" style="fill:#e96424;"/></svg>