<?xml version="1.0" encoding="UTF-8"?>
<svg width="69px" height="75px" viewBox="0 0 69 75" version="1.1" xmlns="http://www.w3.org/2000/svg" xmlns:xlink="http://www.w3.org/1999/xlink">
    <!-- Generator: Sketch 63.1 (92452) - https://sketch.com -->
    <title>strategicservices-ia1-icon5</title>
    <desc>Created with Sketch.</desc>
    <defs>
        <polygon id="path-1" points="5.55555556e-05 0 69 0 69 74.9995 5.55555556e-05 74.9995"></polygon>
    </defs>
    <g id="/services/strategic-services" stroke="none" stroke-width="1" fill="none" fill-rule="evenodd">
        <g id="Desktop" transform="translate(-1956.000000, -7390.000000)">
            <g id="I/IA1" transform="translate(0.000000, 6708.000000)">
                <g id="Timeline" transform="translate(320.000000, 682.000000)">
                    <g id="strategicservices-ia1-icon5" transform="translate(1636.000000, 0.000000)">
                        <g id="Group-3">
                            <mask id="mask-2" fill="white">
                                <use xlink:href="#path-1"></use>
                            </mask>
                            <g id="Clip-2"></g>
                            <path d="M38.8135,43.2705 L18.6855,43.2705 C17.8925,43.2705 17.2485,43.9155 17.2485,44.7125 C17.2485,45.5055 17.8925,46.1545 18.6855,46.1545 L38.8135,46.1545 C39.6045,46.1545 40.2505,45.5055 40.2505,44.7125 C40.2505,43.9155 39.6045,43.2705 38.8135,43.2705 L38.8135,43.2705 Z M50.3105,37.5004988 L18.6855,37.5004988 C17.8925,37.4995 17.2495,38.1445 17.2495,38.9415 C17.2495,39.7365 17.8925,40.3855 18.6855,40.3855 L50.3105,40.3855 C51.1055,40.3855 51.7485,39.7365 51.7485,38.9415 C51.7485,38.1445 51.1055,37.4995 50.3105,37.5004988 L50.3105,37.5004988 Z M18.6875,25.9615046 L33.0605,25.9615046 C33.8565,25.9635 34.4985,25.3145 34.4985,24.5195 C34.4985,23.7205 33.8565,23.0765 33.0605,23.0774988 L18.6875,23.0774988 C17.8935,23.0765 17.2485,23.7205 17.2485,24.5195 C17.2485,25.3145 17.8935,25.9635 18.6875,25.9615046 L18.6875,25.9615046 Z M50.3105,31.7315 L18.6875,31.7315 C17.8925,31.7315 17.2515,32.3775 17.2515,33.1735 C17.2515,33.9695 17.8925,34.6165 18.6875,34.6165 L50.3105,34.6165 C51.1055,34.6165 51.7485,33.9685 51.7485,33.1725 C51.7485,32.3755 51.1055,31.7315 50.3105,31.7315 L50.3105,31.7315 Z M44.5625,57.6955 C43.7655,57.6955 43.1255,58.3365 43.1255,59.1355 L43.1255,60.5785 C43.1205,62.1685 41.8345,63.4575 40.2485,63.4625 L28.7495,63.4625 C27.1645,63.4575 25.8755,62.1685 25.8735,60.5785 L25.8755,59.1355 C25.8755,58.3365 25.2315,57.6955 24.4355,57.6955 C23.6425,57.6955 22.9985,58.3365 22.9994988,59.1355 L22.9994988,60.5785 C22.9985,63.7625 25.5725,66.3445 28.7495,66.3445 L40.2485,66.3445 C43.4235,66.3415 45.9975,63.7625 46.0005,60.5785 L46.0005,59.1355 C46.0005,58.3365 45.3555,57.6955 44.5625,57.6955 L44.5625,57.6955 Z M66.1255,69.2325 C66.1215,70.8215 64.8355,72.1115 63.2505,72.1185 L5.7485,72.1185 C4.1605,72.1115 2.8755,70.8215 2.8725,69.2325 L2.8725,54.0065 C3.7205,54.5025 4.6955,54.8075 5.7485,54.8075 L63.2485,54.8075 C64.3015,54.8075 65.2755,54.5025 66.1255,54.0065 L66.1255,69.2325 Z M10.0635,29.7145 L10.0635,51.9235 L5.7485,51.9235 C4.2305,51.9165 2.9995,50.7315 2.8945,49.2345 L10.0635,29.7145 Z M12.9375,51.9235 L56.0625,51.9235 L56.0625,14.4215 L12.9375,14.4215 L12.9375,51.9235 Z M15.8125,11.5385 L53.1875,11.5385 L53.1875,8.6515 L15.8125,8.6515 L15.8125,11.5385 Z M18.6855,5.7695 L50.3125,5.7695 L50.3125,2.8805 L18.6855,2.8805 L18.6855,5.7695 Z M66.1045,49.2415 C65.9945,50.7355 64.7665,51.9165 63.2485,51.9235 L58.9375,51.9235 L58.9375,29.7175 L66.1045,49.2415 Z M68.9125,48.5375 L58.9355,21.3695 L58.9355,12.9805 C58.9355,12.5945 58.7865,12.2325 58.5165,11.9615 C58.2435,11.6885 57.8815,11.5385 57.5005,11.5385 L56.0605,11.5385 L56.0605,7.2115 C56.0605,6.8295 55.9075,6.4605 55.6415,6.1885 C55.3725,5.9225 55.0025,5.7685 54.6255,5.7695 L53.1855,5.7695 L53.1855,1.4395 C53.1855,1.0605 53.0325,0.6905 52.7665,0.4215 C52.4975,0.1525 52.1275,-0.0015 51.7515,-0.000504840053 L17.2495,-0.000504840053 C16.8715,-0.0015 16.5005,0.1525 16.2345,0.4215 C15.9645,0.6905 15.8105,1.0605 15.8125,1.4395 L15.8125,5.7695 L14.3765,5.7695 C13.9935,5.7685 13.6255,5.9225 13.3565,6.1885 C13.0895,6.4605 12.9355,6.8295 12.9375,7.2115 L12.9375,11.5385 L11.4985,11.5385 C11.1185,11.5385 10.7495,11.6895 10.4815,11.9585 C10.2145,12.2295 10.0635,12.6005 10.0635,12.9805 L10.0635,21.3725 L0.0865,48.5375 L5.55555556e-05,49.0385 C5.55555556e-05,49.0415 5.55555556e-05,49.0435 5.55555556e-05,49.0465 L5.55555556e-05,69.2325 C5.55555556e-05,72.4165 2.5725,74.9994952 5.7485,74.9994952 L63.2505,74.9994952 C66.4235,74.9994952 68.9975,72.4165 69.0005,69.2325 L69.0005,49.0385 L68.9125,48.5375 Z" id="Fill-1" fill="#000000" mask="url(#mask-2)"></path>
                        </g>
                        <path d="M10.0635,29.7148 L10.0635,51.9238 L5.7485,51.9238 C4.2305,51.9168 2.9995,50.7318 2.8945,49.2348 L10.0635,29.7148 Z" id="Fill-4" fill="#000000"></path>
                        <path d="M66.1045,49.2412 C65.9945,50.7352 64.7665,51.9172 63.2485,51.9242 L58.9375,51.9242 L58.9375,29.7182 L66.1045,49.2412 Z" id="Fill-6" fill="#000000"></path>
                    </g>
                </g>
            </g>
        </g>
    </g>
</svg>