<?xml version="1.0" encoding="UTF-8"?>
<svg width="75px" height="55px" viewBox="0 0 75 55" version="1.1" xmlns="http://www.w3.org/2000/svg" xmlns:xlink="http://www.w3.org/1999/xlink">
    <!-- Generator: Sketch 63.1 (92452) - https://sketch.com -->
    <title>strategicservices-ia1-icon1</title>
    <desc>Created with Sketch.</desc>
    <g id="/services/strategic-services" stroke="none" stroke-width="1" fill="none" fill-rule="evenodd">
        <g id="Desktop" transform="translate(-321.000000, -7403.000000)" fill="#000000" fill-rule="nonzero">
            <g id="I/IA1" transform="translate(0.000000, 6708.000000)">
                <g id="Timeline" transform="translate(320.000000, 682.000000)">
                    <g id="strategicservices-ia1-icon1" transform="translate(1.000000, 13.000000)">
                        <path d="M21.13125,13.3875 L21.04875,13.365 L17.8075,12.53875 C17.38,12.42875 16.9275,12.5525 16.615,12.86625 L12.5,16.98125 L8.3825,12.86625 C8.07,12.5525 7.6175,12.42875 7.19,12.53875 L3.95125,13.365 L3.86625,13.3875 C1.55625,14.15625 0,16.31875 0,18.75 L0,31.25 C0,34.27375 2.14625,36.79375 5,37.3725 L5,53.75 C5,54.08375 5.13,54.39875 5.365,54.63375 C5.60125,54.87 5.91625,54.99875 6.25,54.99875 L18.75125,54.99875 C19.08375,54.99875 19.3975,54.87 19.6325,54.63375 C19.86875,54.39875 19.99875,54.08375 19.99875,53.75 L19.99875,37.3725 C22.85125,36.79375 24.99875,34.2725 24.99875,31.25 L24.99875,18.75 C24.99875,16.31875 23.4425,14.15625 21.13125,13.3875 L21.13125,13.3875 Z M19.99875,34.7675 L19.99875,21.25 C19.99875,20.56 19.44,20.00125 18.75125,20.00125 C18.05875,20.00125 17.4999946,20.56 17.4999946,21.25 L17.4999946,52.5 L13.75,52.5 L13.75,33.75 C13.75,33.05875 13.19125,32.5 12.49875,32.5 C11.80875,32.5 11.25125,33.05875 11.25125,33.75 L11.25125,52.5 L7.49875,52.5 L7.49875,21.25 C7.49875,20.56 6.93875,20.00125 6.25,20.00125 C5.56,20.00125 5.00125,20.56 5.00125,21.25 L4.99999459,34.76875 C3.5475,34.25125 2.50125,32.88 2.49999459,31.25 L2.49999459,18.75 C2.4975,17.4075 3.36125,16.2 4.62625,15.77125 L7.11875,15.13625 L11.615,19.63375 C11.85,19.87 12.165,19.99875 12.4999946,19.99875 C12.8325,19.99875 13.1475,19.87 13.3825,19.63375 L17.88125,15.13625 L20.36375,15.76875 C21.63375,16.19375 22.5025,17.40375 22.4999946,18.75 L22.50125,31.25 C22.49625,32.87875 21.45125,34.25 19.99875,34.7675 L19.99875,34.7675 Z M12.49875,12.5 C15.9525,12.4975 18.7475,9.7025 18.75,6.24875 C18.7475,2.7975 15.9525,0 12.49875,0 C9.0475,0 6.25,2.7975 6.25,6.24875 C6.25,9.7025 9.0475,12.4975 12.49875,12.5 L12.49875,12.5 Z M12.49875,2.49875 C14.56875,2.50375 16.24625,4.17875 16.24875,6.24875 C16.24625,8.32125 14.56875,9.99625 12.49875,10 C10.42875,9.99625 8.75375,8.32125 8.74875,6.24875 C8.75375,4.17875 10.42875,2.50375 12.49875,2.49875 L12.49875,2.49875 Z M47.40125,34.51625 C47.34125,34.3725 47.2525,34.24375 47.14625,34.1325 C47.14125,34.1275 47.13875,34.12125 47.135,34.11625 L42.1325,29.115 C41.64375,28.6275 40.8525,28.6275 40.36625,29.11625 C39.8775,29.60375 39.8775,30.39625 40.36625,30.88375 L43.23125,33.75 L28.74875,33.75 C28.05875,33.75 27.50125,34.3075 27.50125,34.99875 C27.50125,35.68875 28.05875,36.25 28.74875,36.24875 L43.23,36.24875 L40.36625,39.11625 C39.8775,39.605 39.8775,40.395 40.36625,40.88375 C40.60875,41.12875 40.92875,41.25125 41.24875,41.25125 C41.57,41.25125 41.89,41.12875 42.135,40.88375 L47.135,35.8825 C47.18375,35.83375 47.20875,35.76875 47.24875,35.7125 C47.3025,35.6375 47.365,35.57 47.40125,35.48375 C47.4575,35.3525 47.47875,35.20875 47.48625,35.06125 C47.4875,35.03875 47.49875,35.02125 47.49875,34.99875 C47.49875,34.9475 47.47625,34.90625 47.47125,34.8575 C47.45875,34.74125 47.44625,34.6225 47.40125,34.51625 L47.40125,34.51625 Z M46.25,18.75 L31.76875,18.75 L34.635,15.8825 C35.12,15.39375 35.12,14.605 34.635,14.11625 C34.14625,13.6275 33.35375,13.6275 32.865,14.11625 L27.8675,19.115 C27.7525,19.23 27.66125,19.36625 27.5975,19.51875 C27.47,19.825 27.46875,20.17125 27.59625,20.4775 C27.66,20.63125 27.75375,20.77 27.87,20.88625 L32.865,25.88375 C33.11,26.12875 33.43,26.25 33.74875,26.25 C34.06875,26.25 34.38875,26.12875 34.635,25.88375 C35.1225,25.39625 35.1225,24.60375 34.635,24.11625 L31.76625,21.25 L46.25,21.25 C46.94125,21.25 47.49875,20.68875 47.49875,20 C47.49875,19.31 46.94125,18.75 46.25,18.75 L46.25,18.75 Z M71.13125,13.38875 L71.04875,13.365 L67.80875,12.5375 C67.38,12.42875 66.92875,12.5525 66.615,12.86625 L62.49875,16.98125 L58.38375,12.86625 C58.07125,12.5525 57.62,12.42875 57.19125,12.5375 L53.95,13.365 L53.86875,13.38875 C51.55625,14.15625 50.00125,16.31875 50,18.74875 L50,31.25 C50.00125,34.275 52.14625,36.79375 55.00125,37.37375 L55.00125,53.74875 C55.00125,54.085 55.12875,54.3975 55.365,54.63375 C55.60125,54.87 55.91625,55 56.25,55 L68.75,55 C69.0825,55 69.39875,54.87 69.63375,54.63375 C69.87,54.3975 69.99875,54.0825 69.99875,53.74875 L69.99875,37.37375 C72.85125,36.79375 74.99875,34.275 75,31.25 L75,18.74875 C74.9975,16.31875 73.4425,14.15625 71.13125,13.38875 L71.13125,13.38875 Z M72.5000014,31.25 C72.4975,32.88 71.45125,34.25125 69.99875,34.76875 L69.99875,21.25 C69.99875,20.56 69.43875,20.00125 68.75,20.00125 C68.06,20.00125 67.5,20.56 67.5,21.25 L67.5,52.5 L63.75,52.5 L63.75,33.75 C63.75,33.05875 63.19125,32.5 62.49875,32.5 C61.81,32.5 61.25125,33.05875 61.25125,33.75 L61.25125,52.5 L57.49875,52.5 L57.49875,21.25 C57.49875,20.56 56.94,20.00125 56.25,20.00125 C55.56,20.00125 55.00125,20.56 55.00125,21.25 L55.00125,34.76875 C53.5475,34.25125 52.50125,32.88 52.49875,31.25 L52.49875,18.74875 C52.49875,17.41875 53.3475,16.21875 54.59625,15.78125 L57.11875,15.13625 L61.615,19.63375 C61.85125,19.87 62.16625,19.99875 62.49875,19.99875 C62.83375,19.99875 63.14625,19.87 63.3825,19.63375 L67.88,15.13625 L70.39375,15.77875 C71.6475,16.21375 72.50125,17.41625 72.5000014,18.74875 L72.5000014,31.25 Z M62.49875,12.5 C65.95125,12.5 68.74875,9.70125 68.75125,6.25 C68.74875,2.79625 65.95125,0.0025 62.49875,0 C59.0475,0.0025 56.25,2.79625 56.25,6.25 C56.25,9.70125 59.0475,12.5 62.49875,12.5 L62.49875,12.5 Z M62.49875,2.49875 C64.57125,2.50375 66.24625,4.17875 66.24875,6.25 C66.24625,8.3225 64.57125,9.99375 62.49875,10 C60.43,9.99375 58.7525,8.3225 58.75125,6.25 C58.7525,4.17875 60.43,2.50375 62.49875,2.49875 L62.49875,2.49875 Z" id="Fill-77"></path>
                    </g>
                </g>
            </g>
        </g>
    </g>
</svg>